<?xml version="1.0" encoding="utf-8"?>
<!-- Generator: Adobe Illustrator 16.0.0, SVG Export Plug-In . SVG Version: 6.00 Build 0)  -->
<!DOCTYPE svg PUBLIC "-//W3C//DTD SVG 1.1//EN" "http://www.w3.org/Graphics/SVG/1.1/DTD/svg11.dtd">
<svg version="1.1" xmlns="http://www.w3.org/2000/svg" xmlns:xlink="http://www.w3.org/1999/xlink" x="0px" y="0px" width="679px"
	 height="155.5px" viewBox="0 0 679 155.5" enable-background="new 0 0 679 155.5" xml:space="preserve">
<g id="Layer_1">
	<path fill="#12A5EA" d="M299.534,71.139l-11.19-3.777c-1.018-4.04-2.616-7.848-4.701-11.333l5.247-10.588l-4.547-4.548
		l-0.255-0.255l-4.55-4.548l-10.586,5.246c-3.487-2.084-7.295-3.681-11.334-4.699l-3.777-11.193h-6.434h-0.359h-6.433l-3.775,11.193
		c-4.042,1.018-7.85,2.614-11.336,4.699l-10.586-5.246l-4.548,4.548l-0.258,0.254l-4.547,4.55l5.244,10.588
		c-2.081,3.485-3.679,7.294-4.696,11.332l-11.192,3.779v6.431v0.359v6.432l11.192,3.778c1.017,4.039,2.616,7.848,4.696,11.332
		l-5.244,10.589l4.547,4.548l0.255,0.255l4.55,4.548l10.586-5.247c3.486,2.084,7.294,3.681,11.333,4.699l3.778,11.193h6.433h0.359
		h6.434l3.777-11.193c4.039-1.018,7.847-2.614,11.334-4.699l10.586,5.247l4.547-4.548l0.258-0.253l4.547-4.55l-5.247-10.589
		c2.085-3.484,3.684-7.293,4.701-11.332l11.19-3.778V77.93V77.57V71.139z M247.227,110.125c-17.881,0-32.374-14.495-32.374-32.376
		c0-17.878,14.493-32.375,32.374-32.375s32.376,14.497,32.376,32.375C279.603,95.63,265.107,110.125,247.227,110.125z"/>
	<path fill-rule="evenodd" clip-rule="evenodd" fill="#12A5EA" d="M231.944,60.119c0-0.358-0.003-0.717,0.015-1.071
		c0.146-3.142,2.344-4.368,5.105-2.836c1.247,0.696,2.472,1.432,3.709,2.151c7.294,4.25,14.591,8.5,21.886,12.753
		c2.158,1.259,4.335,2.498,6.458,3.815c2.904,1.796,2.931,4.308,0.03,6.063c-3.447,2.083-6.954,4.064-10.438,6.081
		c-4.582,2.649-9.165,5.294-13.755,7.932c-2.676,1.536-5.325,3.123-8.054,4.555c-2.527,1.327-4.729,0.005-4.757-2.855
		C232.083,90.432,231.944,66.039,231.944,60.119z"/>
	<path fill="#12A5EA" d="M24.072,63.919l3.845-12.826H53.57c10.645,0,19.237,8.593,19.237,19.238v44.889H40.744
		c-10.645,0-19.237-8.594-19.237-19.238c0-10.645,8.592-19.238,19.237-19.238h19.239v-6.413c0-3.591-2.823-6.413-6.413-6.413H24.072
		z M59.983,102.396V89.569H40.744c-3.59,0-6.413,2.822-6.413,6.414c0,3.591,2.823,6.413,6.413,6.413H59.983z"/>
	<path fill="#12A5EA" d="M117.694,102.396c3.593,0,6.413-2.822,6.413-6.413v-44.89h12.826v44.89
		c0,10.644-8.595,19.238-19.239,19.238H104.87c-10.647,0-19.24-8.594-19.24-19.238v-44.89h12.827v44.89
		c0,3.591,2.82,6.413,6.413,6.413H117.694z"/>
	<path fill="#12A5EA" d="M157.45,63.919h-12.824l3.848-12.826h8.976V25.442h12.827v25.651h19.239l-3.848,12.826h-15.391v32.064
		c0,3.591,2.823,6.413,6.413,6.413h12.827l-3.848,12.825h-8.979c-10.645,0-19.239-8.594-19.239-19.238V63.919z"/>
</g>
<g id="Layer_2">
	<path fill="#2F6A94" d="M326.613,89.569c-10.645,0-19.239-8.593-19.239-19.238s8.595-19.238,19.239-19.238h28.216l3.848,12.826
		h-32.063c-3.593,0-6.413,2.822-6.413,6.413c0,3.591,2.565,6.413,7.695,6.413h12.824c10.645,0,19.239,8.593,19.239,19.238
		c0,10.644-8.595,19.238-19.239,19.238h-29.498l-3.848-12.825h33.346c3.593,0,6.413-2.822,6.413-6.413
		c0-3.592-2.565-6.414-7.695-6.414H326.613z"/>
	<path fill="#2F6A94" d="M400.996,51.093c10.645,0,19.239,8.593,19.239,19.238v19.238h-38.477v6.414c0,3.591,2.82,6.413,6.414,6.413
		h29.498l-3.848,12.825h-25.649c-10.645,0-19.24-8.594-19.24-19.238V70.332c0-10.645,8.595-19.238,19.24-19.238H400.996z
		 M388.172,63.919c-3.593,0-6.414,2.822-6.414,6.413v6.413h25.65v-6.413c0-3.591-2.82-6.413-6.413-6.413H388.172z"/>
	<path fill="#2F6A94" d="M475.38,51.093l3.848,12.826h-21.805c-6.411,0-12.824,6.413-12.824,12.826v38.476h-12.826V51.093H444.6
		v11.8c0.513-6.542,6.027-11.8,12.824-11.8H475.38z"/>
	<path fill="#2F6A94" d="M485.639,70.332V51.093h12.824v19.238c0,10.261,12.826,30.782,12.826,30.782s12.827-20.521,12.827-30.782
		V51.093h12.824v19.238c0,16.673-19.237,44.889-19.237,44.889h-12.826C504.875,115.221,485.639,87.004,485.639,70.332z"/>
	<path fill="#2F6A94" d="M579.26,51.093c10.645,0,19.24,8.593,19.24,19.238v19.238h-38.477v6.414c0,3.591,2.82,6.413,6.413,6.413
		h29.498l-3.848,12.825h-25.65c-10.645,0-19.239-8.594-19.239-19.238V70.332c0-10.645,8.595-19.238,19.239-19.238H579.26z
		 M566.437,63.919c-3.593,0-6.413,2.822-6.413,6.413v6.413h25.65v-6.413c0-3.591-2.82-6.413-6.413-6.413H566.437z"/>
	<path fill="#2F6A94" d="M653.648,51.093l3.845,12.826h-21.802c-6.413,0-12.826,6.413-12.826,12.826v38.476h-12.824V51.093h12.824
		v11.8c0.513-6.542,6.029-11.8,12.826-11.8H653.648z"/>
</g>
</svg>
