<?xml version="1.0" encoding="UTF-8" standalone="no"?>
<!-- Generator: Adobe Illustrator 16.0.0, SVG Export Plug-In . SVG Version: 6.00 Build 0)  -->

<svg
   xmlns:dc="http://purl.org/dc/elements/1.1/"
   xmlns:cc="http://creativecommons.org/ns#"
   xmlns:rdf="http://www.w3.org/1999/02/22-rdf-syntax-ns#"
   xmlns:svg="http://www.w3.org/2000/svg"
   xmlns="http://www.w3.org/2000/svg"
   xmlns:sodipodi="http://sodipodi.sourceforge.net/DTD/sodipodi-0.dtd"
   xmlns:inkscape="http://www.inkscape.org/namespaces/inkscape"
   version="1.1"
   x="0px"
   y="0px"
   width="679px"
   height="155.5px"
   viewBox="0 0 679 155.5"
   enable-background="new 0 0 679 155.5"
   xml:space="preserve"
   id="svg93"
   sodipodi:docname="autoserver.template.svg"
   inkscape:version="0.92.3 (2405546, 2018-03-11)"><metadata
   id="metadata99"><rdf:RDF><cc:Work
       rdf:about=""><dc:format>image/svg+xml</dc:format><dc:type
         rdf:resource="http://purl.org/dc/dcmitype/StillImage" /><dc:title></dc:title></cc:Work></rdf:RDF></metadata><defs
   id="defs97" /><sodipodi:namedview
   pagecolor="#ffffff"
   bordercolor="#666666"
   borderopacity="1"
   objecttolerance="10"
   gridtolerance="10"
   guidetolerance="10"
   inkscape:pageopacity="0"
   inkscape:pageshadow="2"
   inkscape:window-width="1853"
   inkscape:window-height="1025"
   id="namedview95"
   showgrid="false"
   inkscape:measure-start="574.271,11.9123"
   inkscape:measure-end="653.686,28.788"
   inkscape:zoom="2.0147275"
   inkscape:cx="339.65182"
   inkscape:cy="110.37115"
   inkscape:window-x="67"
   inkscape:window-y="27"
   inkscape:window-maximized="1"
   inkscape:current-layer="svg93" />
<g
   id="Layer_1">
	<path
   fill="#12A5EA"
   d="M299.534,71.139l-11.19-3.777c-1.018-4.04-2.616-7.848-4.701-11.333l5.247-10.588l-4.547-4.548   l-0.255-0.255l-4.55-4.548l-10.586,5.246c-3.487-2.084-7.295-3.681-11.334-4.699l-3.777-11.193h-6.434h-0.359h-6.433l-3.775,11.193   c-4.042,1.018-7.85,2.614-11.336,4.699l-10.586-5.246l-4.548,4.548l-0.258,0.254l-4.547,4.55l5.244,10.588   c-2.081,3.485-3.679,7.294-4.696,11.332l-11.192,3.779v6.431v0.359v6.432l11.192,3.778c1.017,4.039,2.616,7.848,4.696,11.332   l-5.244,10.589l4.547,4.548l0.255,0.255l4.55,4.548l10.586-5.247c3.486,2.084,7.294,3.681,11.333,4.699l3.778,11.193h6.433h0.359   h6.434l3.777-11.193c4.039-1.018,7.847-2.614,11.334-4.699l10.586,5.247l4.547-4.548l0.258-0.253l4.547-4.55l-5.247-10.589   c2.085-3.484,3.684-7.293,4.701-11.332l11.19-3.778V77.93V77.57V71.139z M247.227,110.125c-17.881,0-32.374-14.495-32.374-32.376   c0-17.878,14.493-32.375,32.374-32.375s32.376,14.497,32.376,32.375C279.603,95.63,265.107,110.125,247.227,110.125z"
   id="path69" />
	<path
   fill-rule="evenodd"
   clip-rule="evenodd"
   fill="#12A5EA"
   d="M231.944,60.119c0-0.358-0.003-0.717,0.015-1.071   c0.146-3.142,2.344-4.368,5.105-2.836c1.247,0.696,2.472,1.432,3.709,2.151c7.294,4.25,14.591,8.5,21.886,12.753   c2.158,1.259,4.335,2.498,6.458,3.815c2.904,1.796,2.931,4.308,0.03,6.063c-3.447,2.083-6.954,4.064-10.438,6.081   c-4.582,2.649-9.165,5.294-13.755,7.932c-2.676,1.536-5.325,3.123-8.054,4.555c-2.527,1.327-4.729,0.005-4.757-2.855   C232.083,90.432,231.944,66.039,231.944,60.119z"
   id="path71" />
	<path
   fill="#12A5EA"
   d="M24.072,63.919l3.845-12.826H53.57c10.645,0,19.237,8.593,19.237,19.238v44.889H40.744   c-10.645,0-19.237-8.594-19.237-19.238c0-10.645,8.592-19.238,19.237-19.238h19.239v-6.413c0-3.591-2.823-6.413-6.413-6.413H24.072   z M59.983,102.396V89.569H40.744c-3.59,0-6.413,2.822-6.413,6.414c0,3.591,2.823,6.413,6.413,6.413H59.983z"
   id="path73" />
	<path
   fill="#12A5EA"
   d="M117.694,102.396c3.593,0,6.413-2.822,6.413-6.413v-44.89h12.826v44.89   c0,10.644-8.595,19.238-19.239,19.238H104.87c-10.647,0-19.24-8.594-19.24-19.238v-44.89h12.827v44.89   c0,3.591,2.82,6.413,6.413,6.413H117.694z"
   id="path75" />
	<path
   fill="#12A5EA"
   d="M157.45,63.919h-12.824l3.848-12.826h8.976V25.442h12.827v25.651h19.239l-3.848,12.826h-15.391v32.064   c0,3.591,2.823,6.413,6.413,6.413h12.827l-3.848,12.825h-8.979c-10.645,0-19.239-8.594-19.239-19.238V63.919z"
   id="path77" />
</g>

<flowRoot
   xml:space="preserve"
   id="flowRoot3804"
   style="font-style:normal;font-weight:normal;font-size:40px;line-height:1.25;font-family:sans-serif;letter-spacing:0px;word-spacing:0px;fill:#2f6a94;fill-opacity:1;stroke:none"
   transform="matrix(3.2052839,0,0,3.2052839,-142.12365,381.26395)"><flowRegion
     id="flowRegion3806"
     style="fill:#2f6a94;fill-opacity:1"><rect
       id="rect3808"
       width="358.85745"
       height="104.23246"
       x="138.97661"
       y="-118.48246"
       style="fill:#2f6a94;fill-opacity:1" /></flowRegion><flowPara
     id="flowPara3810"
     style="font-style:normal;font-variant:normal;font-weight:normal;font-stretch:normal;font-family:'Tenby Five';-inkscape-font-specification:'Tenby Five';fill:#2f6a94;fill-opacity:1">server</flowPara></flowRoot></svg>