<?xml version="1.0" encoding="UTF-8" standalone="no"?>
<!-- Created with Inkscape (http://www.inkscape.org/) -->

<svg
   width="217.53766mm"
   height="30.967215mm"
   viewBox="0 0 217.53766 30.967214"
   version="1.1"
   id="svg8"
   xmlns="http://www.w3.org/2000/svg"
   xmlns:svg="http://www.w3.org/2000/svg"
   xmlns:rdf="http://www.w3.org/1999/02/22-rdf-syntax-ns#"
   xmlns:cc="http://creativecommons.org/ns#"
   xmlns:dc="http://purl.org/dc/elements/1.1/">
  <defs
     id="defs2" />
  <metadata
     id="metadata5">
    <rdf:RDF>
      <cc:Work
         rdf:about="">
        <dc:format>image/svg+xml</dc:format>
        <dc:type
           rdf:resource="http://purl.org/dc/dcmitype/StillImage" />
      </cc:Work>
    </rdf:RDF>
  </metadata>
  <g
     id="layer1"
     transform="translate(3.4070092,-39.665795)">
    <g
       aria-label="(keep)=&gt;(func)=&gt;{props}"
       transform="matrix(0.37218136,0,0,0.37218136,-37.959987,-22.064625)"
       id="flowRoot815"
       style="font-size:40px;letter-spacing:0px;word-spacing:0px">
      <path
         d="m 123.00586,189.40681 h 3.76953 q -8.76953,7.34375 -8.76953,17.4414 0,10.17578 8.73047,17.44141 h -3.73047 q -8.67188,-6.89453 -8.67188,-17.40235 0,-10.39062 8.67188,-17.48046 z"
         style="fill:#737373"
         id="path4332" />
      <path
         d="m 140.05664,207.16071 2.63672,-2.96875 7.71484,-7.67578 h 4.33594 l -9.64844,9.27734 10.19532,12.16797 h -4.16016 l -8.32031,-9.84375 -2.51953,1.60157 v 8.24218 h -3.51563 v -30.39062 h 3.51563 v 13.94531 l -0.3125,5.64453 z"
         style="fill:#ebebeb"
         id="path4334" />
      <path
         d="m 177.98633,207.92243 h -15.11719 q 0.15625,7.32422 6.71875,7.32422 3.80859,0 7.22656,-1.48438 v 3.125 q -3.24218,1.46485 -7.10937,1.46485 -4.78516,0 -7.65625,-2.91016 -2.8711,-2.92969 -2.8711,-8.04687 0,-5.19532 2.63672,-8.22266 2.65625,-3.04687 7.08985,-3.04687 4.14062,0 6.60156,2.61718 2.48047,2.61719 2.48047,6.97266 z m -15.03906,-2.89062 h 11.1914 q 0,-5.95704 -5.3125,-5.95704 -5.37109,0 -5.8789,5.95704 z"
         style="fill:#ebebeb"
         id="path4336" />
      <path
         d="m 201.99023,207.92243 h -15.11718 q 0.15625,7.32422 6.71875,7.32422 3.80859,0 7.22656,-1.48438 v 3.125 q -3.24219,1.46485 -7.10938,1.46485 -4.78515,0 -7.65625,-2.91016 -2.87109,-2.92969 -2.87109,-8.04687 0,-5.19532 2.63672,-8.22266 2.65625,-3.04687 7.08984,-3.04687 4.14063,0 6.60157,2.61718 2.48046,2.61719 2.48046,6.97266 z m -15.03906,-2.89062 h 11.19141 q 0,-5.95704 -5.3125,-5.95704 -5.3711,0 -5.87891,5.95704 z"
         style="fill:#ebebeb"
         id="path4338" />
      <path
         d="m 211.22852,215.24665 h -0.23438 q 0.23438,2.51953 0.23438,3.16406 v 9.16016 h -3.55469 v -31.05469 h 2.87109 l 0.52735,2.89063 h 0.15625 q 2.14843,-3.28125 6.28906,-3.28125 3.92578,0 6.15234,2.92968 2.2461,2.91016 2.2461,8.14453 0,5.27344 -2.2461,8.22266 -2.24609,2.92969 -6.15234,2.92969 -4.04297,0 -6.28906,-3.10547 z m 0,-8.84766 v 0.80078 q 0,4.4336 1.34765,6.32813 1.36719,1.875 4.33594,1.875 5.3125,0 5.3125,-8.24219 0,-8.08594 -5.35156,-8.08594 -2.96875,0 -4.27735,1.71875 -1.28906,1.71875 -1.36718,5.60547 z"
         style="fill:#ebebeb"
         id="path4340" />
      <path
         d="m 238.14258,224.28962 h -3.71094 q 8.71094,-7.2461 8.71094,-17.44141 0,-10.11719 -8.75,-17.4414 h 3.75 q 8.6914,7.05078 8.6914,17.48046 0,10.54688 -8.6914,17.40235 z"
         style="fill:#737373"
         id="path4342" />
      <path
         d="m 255.56445,201.32087 v -2.91016 h 18.02735 v 2.91016 z m 0,8.00781 v -2.92969 h 18.02735 v 2.92969 z"
         style="fill:#737373"
         id="path4344" />
      <path
         d="m 279.56836,210.52009 13.94531,-6.67969 -13.94531,-6.67969 v -3.125 l 18.02734,8.8086 v 1.99218 l -18.02734,8.8086 z"
         style="fill:#737373"
         id="path4346" />
      <path
         d="m 315.03711,189.40681 h 3.76953 q -8.76953,7.34375 -8.76953,17.4414 0,10.17578 8.73047,17.44141 h -3.73047 q -8.67188,-6.89453 -8.67188,-17.40235 0,-10.39062 8.67188,-17.48046 z"
         style="fill:#737373"
         id="path4348" />
      <path
         d="m 344.99805,199.19196 h -7.59766 v 18.76953 h -3.55469 v -18.76953 h -6.1914 v -2.14844 l 6.1914,-0.64453 v -1.875 q 0,-3.76953 1.75782,-5.46875 1.75781,-1.69922 5.83984,-1.69922 2.51953,0 4.92187,0.6836 l -0.80078,2.79297 q -2.03125,-0.54688 -4.04297,-0.54688 -2.40234,0 -3.26171,0.97656 -0.85938,0.97657 -0.85938,3.22266 v 2.03125 h 7.59766 z"
         style="fill:#ebebeb"
         id="path4350" />
      <path
         d="m 366.61914,217.96149 -0.52734,-2.87109 h -0.19532 q -2.05078,3.26172 -6.52343,3.26172 -7.63672,0 -7.63672,-7.83203 v -14.00391 h 3.55469 v 13.80859 q 0,5.07813 4.60937,5.07813 3.14453,0 4.58984,-1.79688 1.44532,-1.8164 1.44532,-5.95703 v -11.13281 h 3.55468 v 21.44531 z"
         style="fill:#ebebeb"
         id="path4352" />
      <path
         d="M 389.93945,217.96149 V 204.1529 q 0,-5.07813 -4.64843,-5.07813 -5.9961,0 -5.9961,7.77344 v 11.11328 h -3.55469 v -21.44531 h 2.8711 l 0.52734,2.89063 h 0.19531 q 2.01172,-3.28125 6.5625,-3.28125 7.59766,0 7.59766,7.83203 v 14.0039 z"
         style="fill:#ebebeb"
         id="path4354" />
      <path
         d="m 417.3418,197.2779 -1.21094,3.08594 q -2.92969,-1.11328 -5.23438,-1.11328 -7.24609,0 -7.24609,8.0664 0,7.92969 7.05078,7.92969 3.06641,0 6.26953,-1.21094 v 3.125 q -2.61718,1.19141 -6.42578,1.19141 -5.01953,0 -7.79297,-2.83203 -2.77343,-2.85157 -2.77343,-8.16407 0,-5.48828 2.83203,-8.35937 2.83203,-2.87109 7.96875,-2.87109 3.47656,0 6.5625,1.15234 z"
         style="fill:#ebebeb"
         id="path4356" />
      <path
         d="m 430.17383,224.28962 h -3.71094 q 8.71094,-7.2461 8.71094,-17.44141 0,-10.11719 -8.75,-17.4414 h 3.75 q 8.6914,7.05078 8.6914,17.48046 0,10.54688 -8.6914,17.40235 z"
         style="fill:#737373"
         id="path4358" />
      <path
         d="m 447.5957,201.32087 v -2.91016 h 18.02735 v 2.91016 z m 0,8.00781 v -2.92969 h 18.02735 v 2.92969 z"
         style="fill:#737373"
         id="path4360" />
      <path
         d="m 471.59961,210.52009 13.94531,-6.67969 -13.94531,-6.67969 v -3.125 l 18.02734,8.8086 v 1.99218 l -18.02734,8.8086 z"
         style="fill:#737373"
         id="path4362" />
      <path
         d="m 507.18555,218.27399 q 0,1.58203 1.09375,2.30469 1.09375,0.74219 3.90625,0.78125 v 2.92969 q -8.55469,-0.11719 -8.55469,-5.72266 v -6.52344 q 0,-3.6914 -6.60156,-3.6914 v -3.02735 q 6.60156,0 6.60156,-3.6914 v -6.50391 q 0,-5.60547 8.55469,-5.72265 v 2.91015 q -2.8125,0.0391 -3.90625,0.78125 -1.09375,0.72266 -1.09375,2.30469 v 6.48437 q 0,4.04297 -4.55078,4.84375 v 0.23438 q 4.55078,0.80078 4.55078,4.84375 z"
         style="fill:#737373"
         id="path4364" />
      <path
         d="m 523.2793,215.24665 h -0.23438 q 0.23438,2.51953 0.23438,3.16406 v 9.16016 h -3.55469 v -31.05469 h 2.87109 l 0.52735,2.89063 h 0.15625 q 2.14843,-3.28125 6.28906,-3.28125 3.92578,0 6.15234,2.92968 2.2461,2.91016 2.2461,8.14453 0,5.27344 -2.2461,8.22266 -2.24609,2.92969 -6.15234,2.92969 -4.04297,0 -6.28906,-3.10547 z m 0,-8.84766 v 0.80078 q 0,4.4336 1.34765,6.32813 1.36719,1.875 4.33594,1.875 5.3125,0 5.3125,-8.24219 0,-8.08594 -5.35156,-8.08594 -2.96875,0 -4.27735,1.71875 -1.28906,1.71875 -1.36718,5.60547 z"
         style="fill:#ebebeb"
         id="path4366" />
      <path
         d="m 561.32617,197.00446 -0.95703,3.24219 q -2.40234,-0.87891 -4.375,-0.87891 -3.18359,0 -4.92187,1.81641 -1.71875,1.79687 -1.71875,5.21484 v 11.5625 h -3.55469 v -21.44531 h 2.89062 l 0.42969,3.92578 h 0.15625 q 1.48438,-2.32422 3.18359,-3.32031 1.69922,-0.99609 4.17969,-0.99609 2.30469,0 4.6875,0.8789 z"
         style="fill:#ebebeb"
         id="path4368" />
      <path
         d="m 576.56055,218.35212 q -4.21875,0 -6.95313,-3.02735 -2.71484,-3.04687 -2.71484,-8.125 0,-5.13671 2.63672,-8.10546 2.65625,-2.96875 7.14843,-2.96875 4.25782,0 6.97266,3.02734 2.71484,3.02734 2.71484,8.04687 0,5.17579 -2.67578,8.16407 -2.67578,2.98828 -7.1289,2.98828 z m 0.0781,-2.94922 q 6.05469,0 6.05469,-8.20313 0,-8.125 -6.09375,-8.125 -6.03516,0 -6.03516,8.125 0,8.20313 6.07422,8.20313 z"
         style="fill:#ebebeb"
         id="path4370" />
      <path
         d="m 595.29102,215.24665 h -0.23438 q 0.23438,2.51953 0.23438,3.16406 v 9.16016 h -3.55469 v -31.05469 h 2.87109 l 0.52735,2.89063 h 0.15625 q 2.14843,-3.28125 6.28906,-3.28125 3.92578,0 6.15234,2.92968 2.2461,2.91016 2.2461,8.14453 0,5.27344 -2.2461,8.22266 -2.24609,2.92969 -6.15234,2.92969 -4.04297,0 -6.28906,-3.10547 z m 0,-8.84766 v 0.80078 q 0,4.4336 1.34765,6.32813 1.36719,1.875 4.33594,1.875 5.3125,0 5.3125,-8.24219 0,-8.08594 -5.35156,-8.08594 -2.96875,0 -4.27735,1.71875 -1.28906,1.71875 -1.36718,5.60547 z"
         style="fill:#ebebeb"
         id="path4372" />
      <path
         d="m 616.61914,217.00446 v -3.24219 q 3.76953,1.67969 7.22656,1.67969 5.3711,0 5.3711,-3.16406 0,-1.11328 -0.95703,-1.93359 -0.95704,-0.82032 -4.41407,-2.07032 -4.55078,-1.69922 -5.74218,-3.10547 -1.17188,-1.42578 -1.17188,-3.35937 0,-2.65625 2.16797,-4.16016 2.1875,-1.52343 6.03516,-1.52343 3.86718,0 7.20703,1.44531 l -1.17188,2.91015 q -3.55469,-1.40625 -6.23047,-1.40625 -4.60937,0 -4.60937,2.59766 0,1.19141 0.97656,1.91406 0.99609,0.70313 4.55078,1.97266 4.1211,1.50391 5.46875,2.96875 1.36719,1.44531 1.36719,3.55469 0,2.92968 -2.28516,4.60937 -2.28515,1.66016 -6.46484,1.66016 -4.84375,0 -7.32422,-1.34766 z"
         style="fill:#ebebeb"
         id="path4374" />
      <path
         d="m 646.0918,211.80915 q 0,-4.04297 4.57031,-4.84375 v -0.23438 q -4.57031,-0.80078 -4.57031,-4.84375 v -6.48437 q 0,-1.58203 -1.11328,-2.32422 -1.09375,-0.74219 -3.88672,-0.76172 v -2.91015 q 8.57422,0.11718 8.57422,5.72265 v 6.50391 q 0,3.6914 6.60156,3.6914 v 3.02735 q -6.60156,0 -6.60156,3.6914 v 6.52344 q 0,5.60547 -8.57422,5.72266 v -2.92969 q 2.79297,-0.0195 3.88672,-0.76172 1.11328,-0.74219 1.11328,-2.32422 z"
         style="fill:#737373"
         id="path4376" />
    </g>
  </g>
</svg>
