<?xml version="1.0" encoding="UTF-8" standalone="no"?>
<svg
   xmlns:dc="http://purl.org/dc/elements/1.1/"
   xmlns:cc="http://creativecommons.org/ns#"
   xmlns:rdf="http://www.w3.org/1999/02/22-rdf-syntax-ns#"
   xmlns:svg="http://www.w3.org/2000/svg"
   xmlns="http://www.w3.org/2000/svg"
   id="svg8"
   version="1.1"
   viewBox="0 0 217.53766 30.967214"
   height="30.967215mm"
   width="217.53766mm">
  <defs
     id="defs2" />
  <metadata
     id="metadata5">
    <rdf:RDF>
      <cc:Work
         rdf:about="">
        <dc:format>image/svg+xml</dc:format>
        <dc:type
           rdf:resource="http://purl.org/dc/dcmitype/StillImage" />
        <dc:title></dc:title>
      </cc:Work>
    </rdf:RDF>
  </metadata>
  <g
     transform="translate(3.4070092,-39.665795)"
     id="layer1">
    <g
       id="flowRoot815"
       style="font-style:normal;font-weight:normal;font-size:40px;line-height:1.25;font-family:sans-serif;letter-spacing:0px;word-spacing:0px;fill:#000000;fill-opacity:1;stroke:none"
       transform="matrix(0.37218136,0,0,0.37218136,-37.959987,-22.064625)"
       aria-label="(keep)=&gt;(func)=&gt;{props}">
      <path
         id="path926"
         style="fill:#8c8c8c;fill-opacity:1"
         d="m 123.00586,189.40681 h 3.76953 q -8.76953,7.34375 -8.76953,17.4414 0,10.17578 8.73047,17.44141 h -3.73047 q -8.67188,-6.89453 -8.67188,-17.40235 0,-10.39062 8.67188,-17.48046 z" />
      <path
         id="path928"
         style="font-style:normal;font-variant:normal;font-weight:normal;font-stretch:normal;font-family:'Droid Sans Mono';-inkscape-font-specification:'Droid Sans Mono';fill:#141414;fill-opacity:1"
         d="m 140.03711,207.16071 2.63672,-2.96875 7.71484,-7.67578 h 4.33594 l -9.64844,9.27734 10.19531,12.16797 h -4.16015 l -8.32031,-9.84375 -2.51954,1.60157 v 8.24218 h -3.51562 v -30.39062 h 3.51562 v 13.94531 l -0.3125,5.64453 z" />
      <path
         id="path930"
         style="font-style:normal;font-variant:normal;font-weight:normal;font-stretch:normal;font-family:'Droid Sans Mono';-inkscape-font-specification:'Droid Sans Mono';fill:#141414;fill-opacity:1"
         d="m 177.94727,207.92243 h -15.11719 q 0.15625,7.32422 6.71875,7.32422 3.80859,0 7.22656,-1.48438 v 3.125 q -3.24219,1.46485 -7.10937,1.46485 -4.78516,0 -7.65625,-2.91016 -2.8711,-2.92969 -2.8711,-8.04687 0,-5.19532 2.63672,-8.22266 2.65625,-3.04687 7.08984,-3.04687 4.14063,0 6.60157,2.61718 2.48047,2.61719 2.48047,6.97266 z m -15.03907,-2.89062 h 11.19141 q 0,-5.95704 -5.3125,-5.95704 -5.37109,0 -5.87891,5.95704 z" />
      <path
         id="path932"
         style="font-style:normal;font-variant:normal;font-weight:normal;font-stretch:normal;font-family:'Droid Sans Mono';-inkscape-font-specification:'Droid Sans Mono';fill:#141414;fill-opacity:1"
         d="m 201.93164,207.92243 h -15.11719 q 0.15625,7.32422 6.71875,7.32422 3.8086,0 7.22657,-1.48438 v 3.125 q -3.24219,1.46485 -7.10938,1.46485 -4.78516,0 -7.65625,-2.91016 -2.87109,-2.92969 -2.87109,-8.04687 0,-5.19532 2.63672,-8.22266 2.65625,-3.04687 7.08984,-3.04687 4.14062,0 6.60156,2.61718 2.48047,2.61719 2.48047,6.97266 z m -15.03906,-2.89062 h 11.1914 q 0,-5.95704 -5.3125,-5.95704 -5.37109,0 -5.8789,5.95704 z" />
      <path
         id="path934"
         style="font-style:normal;font-variant:normal;font-weight:normal;font-stretch:normal;font-family:'Droid Sans Mono';-inkscape-font-specification:'Droid Sans Mono';fill:#141414;fill-opacity:1"
         d="m 211.15039,215.24665 h -0.23437 q 0.23437,2.51953 0.23437,3.16406 v 9.16016 h -3.55469 v -31.05469 h 2.8711 l 0.52734,2.89063 h 0.15625 q 2.14844,-3.28125 6.28906,-3.28125 3.92578,0 6.15235,2.92968 2.24609,2.91016 2.24609,8.14453 0,5.27344 -2.24609,8.22266 -2.2461,2.92969 -6.15235,2.92969 -4.04297,0 -6.28906,-3.10547 z m 0,-8.84766 v 0.80078 q 0,4.4336 1.34766,6.32813 1.36718,1.875 4.33593,1.875 5.3125,0 5.3125,-8.24219 0,-8.08594 -5.35156,-8.08594 -2.96875,0 -4.27734,1.71875 -1.28906,1.71875 -1.36719,5.60547 z" />
      <path
         id="path936"
         style="fill:#8c8c8c;fill-opacity:1"
         d="m 238.04492,224.28962 h -3.71094 q 8.71094,-7.2461 8.71094,-17.44141 0,-10.11719 -8.75,-17.4414 h 3.75 q 8.69141,7.05078 8.69141,17.48046 0,10.54688 -8.69141,17.40235 z" />
      <path
         id="path938"
         style="fill:#8c8c8c;fill-opacity:1"
         d="m 255.44727,201.32087 v -2.91016 h 18.02734 v 2.91016 z m 0,8.00781 v -2.92969 h 18.02734 v 2.92969 z" />
      <path
         id="path940"
         style="fill:#8c8c8c;fill-opacity:1"
         d="m 279.43164,210.52009 13.94531,-6.67969 -13.94531,-6.67969 v -3.125 l 18.02734,8.8086 v 1.99218 l -18.02734,8.8086 z" />
      <path
         id="path942"
         style="fill:#8c8c8c;fill-opacity:1"
         d="m 314.88086,189.40681 h 3.76953 q -8.76953,7.34375 -8.76953,17.4414 0,10.17578 8.73047,17.44141 h -3.73047 q -8.67188,-6.89453 -8.67188,-17.40235 0,-10.39062 8.67188,-17.48046 z" />
      <path
         id="path944"
         style="font-style:normal;font-variant:normal;font-weight:normal;font-stretch:normal;font-family:'Droid Sans Mono';-inkscape-font-specification:'Droid Sans Mono';fill:#141414;fill-opacity:1"
         d="m 344.82227,199.19196 h -7.59766 v 18.76953 h -3.55469 v -18.76953 h -6.1914 v -2.14844 l 6.1914,-0.64453 v -1.875 q 0,-3.76953 1.75781,-5.46875 1.75782,-1.69922 5.83985,-1.69922 2.51953,0 4.92187,0.6836 l -0.80078,2.79297 q -2.03125,-0.54688 -4.04297,-0.54688 -2.40234,0 -3.26172,0.97656 -0.85937,0.97657 -0.85937,3.22266 v 2.03125 h 7.59766 z" />
      <path
         id="path946"
         style="font-style:normal;font-variant:normal;font-weight:normal;font-stretch:normal;font-family:'Droid Sans Mono';-inkscape-font-specification:'Droid Sans Mono';fill:#141414;fill-opacity:1"
         d="m 366.42383,217.96149 -0.52735,-2.87109 h -0.19531 q -2.05078,3.26172 -6.52344,3.26172 -7.63671,0 -7.63671,-7.83203 v -14.00391 h 3.55468 v 13.80859 q 0,5.07813 4.60938,5.07813 3.14453,0 4.58984,-1.79688 1.44531,-1.8164 1.44531,-5.95703 v -11.13281 h 3.55469 v 21.44531 z" />
      <path
         id="path948"
         style="font-style:normal;font-variant:normal;font-weight:normal;font-stretch:normal;font-family:'Droid Sans Mono';-inkscape-font-specification:'Droid Sans Mono';fill:#141414;fill-opacity:1"
         d="M 389.72461,217.96149 V 204.1529 q 0,-5.07813 -4.64844,-5.07813 -5.99609,0 -5.99609,7.77344 v 11.11328 h -3.55469 v -21.44531 h 2.87109 l 0.52735,2.89063 h 0.19531 q 2.01172,-3.28125 6.5625,-3.28125 7.59766,0 7.59766,7.83203 v 14.0039 z" />
      <path
         id="path950"
         style="font-style:normal;font-variant:normal;font-weight:normal;font-stretch:normal;font-family:'Droid Sans Mono';-inkscape-font-specification:'Droid Sans Mono';fill:#141414;fill-opacity:1"
         d="m 417.10742,197.2779 -1.21094,3.08594 q -2.92968,-1.11328 -5.23437,-1.11328 -7.24609,0 -7.24609,8.0664 0,7.92969 7.05078,7.92969 3.0664,0 6.26953,-1.21094 v 3.125 q -2.61719,1.19141 -6.42578,1.19141 -5.01953,0 -7.79297,-2.83203 -2.77344,-2.85157 -2.77344,-8.16407 0,-5.48828 2.83203,-8.35937 2.83203,-2.87109 7.96875,-2.87109 3.47656,0 6.5625,1.15234 z" />
      <path
         id="path952"
         style="fill:#8c8c8c;fill-opacity:1"
         d="m 429.91992,224.28962 h -3.71094 q 8.71094,-7.2461 8.71094,-17.44141 0,-10.11719 -8.75,-17.4414 h 3.75 q 8.69141,7.05078 8.69141,17.48046 0,10.54688 -8.69141,17.40235 z" />
      <path
         id="path954"
         style="fill:#8c8c8c;fill-opacity:1"
         d="m 447.32227,201.32087 v -2.91016 h 18.02734 v 2.91016 z m 0,8.00781 v -2.92969 h 18.02734 v 2.92969 z" />
      <path
         id="path956"
         style="fill:#8c8c8c;fill-opacity:1"
         d="m 471.30664,210.52009 13.94531,-6.67969 -13.94531,-6.67969 v -3.125 l 18.02734,8.8086 v 1.99218 l -18.02734,8.8086 z" />
      <path
         id="path958"
         style="fill:#8c8c8c;fill-opacity:1"
         d="m 506.87305,218.27399 q 0,1.58203 1.09375,2.30469 1.09375,0.74219 3.90625,0.78125 v 2.92969 q -8.55469,-0.11719 -8.55469,-5.72266 v -6.52344 q 0,-3.6914 -6.60156,-3.6914 v -3.02735 q 6.60156,0 6.60156,-3.6914 v -6.50391 q 0,-5.60547 8.55469,-5.72265 v 2.91015 q -2.8125,0.0391 -3.90625,0.78125 -1.09375,0.72266 -1.09375,2.30469 v 6.48437 q 0,4.04297 -4.55078,4.84375 v 0.23438 q 4.55078,0.80078 4.55078,4.84375 z" />
      <path
         id="path960"
         style="font-style:normal;font-variant:normal;font-weight:normal;font-stretch:normal;font-family:'Droid Sans Mono';-inkscape-font-specification:'Droid Sans Mono';fill:#141414;fill-opacity:1"
         d="m 522.94727,215.24665 h -0.23438 q 0.23438,2.51953 0.23438,3.16406 v 9.16016 h -3.55469 v -31.05469 h 2.87109 l 0.52735,2.89063 h 0.15625 q 2.14843,-3.28125 6.28906,-3.28125 3.92578,0 6.15234,2.92968 2.2461,2.91016 2.2461,8.14453 0,5.27344 -2.2461,8.22266 -2.24609,2.92969 -6.15234,2.92969 -4.04297,0 -6.28906,-3.10547 z m 0,-8.84766 v 0.80078 q 0,4.4336 1.34765,6.32813 1.36719,1.875 4.33594,1.875 5.3125,0 5.3125,-8.24219 0,-8.08594 -5.35156,-8.08594 -2.96875,0 -4.27735,1.71875 -1.28906,1.71875 -1.36718,5.60547 z" />
      <path
         id="path962"
         style="font-style:normal;font-variant:normal;font-weight:normal;font-stretch:normal;font-family:'Droid Sans Mono';-inkscape-font-specification:'Droid Sans Mono';fill:#141414;fill-opacity:1"
         d="m 560.97461,197.00446 -0.95703,3.24219 q -2.40235,-0.87891 -4.375,-0.87891 -3.1836,0 -4.92188,1.81641 -1.71875,1.79687 -1.71875,5.21484 v 11.5625 h -3.55468 v -21.44531 h 2.89062 l 0.42969,3.92578 h 0.15625 q 1.48437,-2.32422 3.18359,-3.32031 1.69922,-0.99609 4.17969,-0.99609 2.30469,0 4.6875,0.8789 z" />
      <path
         id="path964"
         style="font-style:normal;font-variant:normal;font-weight:normal;font-stretch:normal;font-family:'Droid Sans Mono';-inkscape-font-specification:'Droid Sans Mono';fill:#141414;fill-opacity:1"
         d="m 576.18945,218.35212 q -4.21875,0 -6.95312,-3.02735 -2.71485,-3.04687 -2.71485,-8.125 0,-5.13671 2.63672,-8.10546 2.65625,-2.96875 7.14844,-2.96875 4.25781,0 6.97266,3.02734 2.71484,3.02734 2.71484,8.04687 0,5.17579 -2.67578,8.16407 -2.67578,2.98828 -7.12891,2.98828 z m 0.0781,-2.94922 q 6.05469,0 6.05469,-8.20313 0,-8.125 -6.09375,-8.125 -6.03516,0 -6.03516,8.125 0,8.20313 6.07422,8.20313 z" />
      <path
         id="path966"
         style="font-style:normal;font-variant:normal;font-weight:normal;font-stretch:normal;font-family:'Droid Sans Mono';-inkscape-font-specification:'Droid Sans Mono';fill:#141414;fill-opacity:1"
         d="m 594.90039,215.24665 h -0.23437 q 0.23437,2.51953 0.23437,3.16406 v 9.16016 h -3.55469 v -31.05469 h 2.8711 l 0.52734,2.89063 h 0.15625 q 2.14844,-3.28125 6.28906,-3.28125 3.92578,0 6.15235,2.92968 2.24609,2.91016 2.24609,8.14453 0,5.27344 -2.24609,8.22266 -2.2461,2.92969 -6.15235,2.92969 -4.04297,0 -6.28906,-3.10547 z m 0,-8.84766 v 0.80078 q 0,4.4336 1.34766,6.32813 1.36718,1.875 4.33593,1.875 5.3125,0 5.3125,-8.24219 0,-8.08594 -5.35156,-8.08594 -2.96875,0 -4.27734,1.71875 -1.28906,1.71875 -1.36719,5.60547 z" />
      <path
         id="path968"
         style="font-style:normal;font-variant:normal;font-weight:normal;font-stretch:normal;font-family:'Droid Sans Mono';-inkscape-font-specification:'Droid Sans Mono';fill:#141414;fill-opacity:1"
         d="m 616.20898,217.00446 v -3.24219 q 3.76954,1.67969 7.22657,1.67969 5.37109,0 5.37109,-3.16406 0,-1.11328 -0.95703,-1.93359 -0.95703,-0.82032 -4.41406,-2.07032 -4.55078,-1.69922 -5.74219,-3.10547 -1.17188,-1.42578 -1.17188,-3.35937 0,-2.65625 2.16797,-4.16016 2.1875,-1.52343 6.03516,-1.52343 3.86719,0 7.20703,1.44531 l -1.17187,2.91015 q -3.55469,-1.40625 -6.23047,-1.40625 -4.60938,0 -4.60938,2.59766 0,1.19141 0.97656,1.91406 0.9961,0.70313 4.55079,1.97266 4.12109,1.50391 5.46875,2.96875 1.36718,1.44531 1.36718,3.55469 0,2.92968 -2.28515,4.60937 -2.28516,1.66016 -6.46485,1.66016 -4.84375,0 -7.32422,-1.34766 z" />
      <path
         id="path970"
         style="fill:#8c8c8c;fill-opacity:1"
         d="m 645.66211,211.80915 q 0,-4.04297 4.57031,-4.84375 v -0.23438 q -4.57031,-0.80078 -4.57031,-4.84375 v -6.48437 q 0,-1.58203 -1.11328,-2.32422 -1.09375,-0.74219 -3.88672,-0.76172 v -2.91015 q 8.57422,0.11718 8.57422,5.72265 v 6.50391 q 0,3.6914 6.60156,3.6914 v 3.02735 q -6.60156,0 -6.60156,3.6914 v 6.52344 q 0,5.60547 -8.57422,5.72266 v -2.92969 q 2.79297,-0.0195 3.88672,-0.76172 1.11328,-0.74219 1.11328,-2.32422 z" />
    </g>
  </g>
</svg>
