<?xml version="1.0" encoding="UTF-8" standalone="no"?>
<svg
   xmlns:dc="http://purl.org/dc/elements/1.1/"
   xmlns:cc="http://creativecommons.org/ns#"
   xmlns:rdf="http://www.w3.org/1999/02/22-rdf-syntax-ns#"
   xmlns:svg="http://www.w3.org/2000/svg"
   xmlns="http://www.w3.org/2000/svg"
   id="svg93"
   xml:space="preserve"
   enable-background="new 0 0 679 155.5"
   viewBox="0 0 684 155.5"
   height="155.5"
   width="684"
   y="0px"
   x="0px"
   version="1.1"><metadata
   id="metadata99"><rdf:RDF><cc:Work
       rdf:about=""><dc:format>image/svg+xml</dc:format><dc:type
         rdf:resource="http://purl.org/dc/dcmitype/StillImage" /><dc:title></dc:title></cc:Work></rdf:RDF></metadata><defs
   id="defs97" />
<g
   id="Layer_1">
	<path
   style="fill:#52c48b;fill-opacity:1"
   id="path69"
   d="m 299.534,71.139 -11.19,-3.777 c -1.018,-4.04 -2.616,-7.848 -4.701,-11.333 l 5.247,-10.588 -4.547,-4.548 -0.255,-0.255 -4.55,-4.548 -10.586,5.246 c -3.487,-2.084 -7.295,-3.681 -11.334,-4.699 l -3.777,-11.193 h -6.434 -0.359 -6.433 l -3.775,11.193 c -4.042,1.018 -7.85,2.614 -11.336,4.699 l -10.586,-5.246 -4.548,4.548 -0.258,0.254 -4.547,4.55 5.244,10.588 c -2.081,3.485 -3.679,7.294 -4.696,11.332 l -11.192,3.779 v 6.431 0.359 6.432 l 11.192,3.778 c 1.017,4.039 2.616,7.848 4.696,11.332 l -5.244,10.589 4.547,4.548 0.255,0.255 4.55,4.548 10.586,-5.247 c 3.486,2.084 7.294,3.681 11.333,4.699 l 3.778,11.193 h 6.433 0.359 6.434 l 3.777,-11.193 c 4.039,-1.018 7.847,-2.614 11.334,-4.699 l 10.586,5.247 4.547,-4.548 0.258,-0.253 4.547,-4.55 -5.247,-10.589 c 2.085,-3.484 3.684,-7.293 4.701,-11.332 l 11.19,-3.778 V 77.93 77.57 71.139 Z m -52.307,38.986 c -17.881,0 -32.374,-14.495 -32.374,-32.376 0,-17.878 14.493,-32.375 32.374,-32.375 17.881,0 32.376,14.497 32.376,32.375 0,17.881 -14.496,32.376 -32.376,32.376 z" />
	<path
   style="clip-rule:evenodd;fill:#52c48b;fill-rule:evenodd;fill-opacity:1"
   id="path71"
   d="m 231.944,60.119 c 0,-0.358 -0.003,-0.717 0.015,-1.071 0.146,-3.142 2.344,-4.368 5.105,-2.836 1.247,0.696 2.472,1.432 3.709,2.151 7.294,4.25 14.591,8.5 21.886,12.753 2.158,1.259 4.335,2.498 6.458,3.815 2.904,1.796 2.931,4.308 0.03,6.063 -3.447,2.083 -6.954,4.064 -10.438,6.081 -4.582,2.649 -9.165,5.294 -13.755,7.932 -2.676,1.536 -5.325,3.123 -8.054,4.555 -2.527,1.327 -4.729,0.005 -4.757,-2.855 -0.06,-6.275 -0.199,-30.668 -0.199,-36.588 z" />
	<path
   style="fill:#52c48b;fill-opacity:1"
   id="path73"
   d="M 24.072,63.919 27.917,51.093 H 53.57 c 10.645,0 19.237,8.593 19.237,19.238 V 115.22 H 40.744 c -10.645,0 -19.237,-8.594 -19.237,-19.238 0,-10.645 8.592,-19.238 19.237,-19.238 h 19.239 v -6.413 c 0,-3.591 -2.823,-6.413 -6.413,-6.413 H 24.072 Z m 35.911,38.477 V 89.569 H 40.744 c -3.59,0 -6.413,2.822 -6.413,6.414 0,3.591 2.823,6.413 6.413,6.413 z" />
	<path
   style="fill:#52c48b;fill-opacity:1"
   id="path75"
   d="m 117.694,102.396 c 3.593,0 6.413,-2.822 6.413,-6.413 v -44.89 h 12.826 v 44.89 c 0,10.644 -8.595,19.238 -19.239,19.238 H 104.87 c -10.647,0 -19.24,-8.594 -19.24,-19.238 v -44.89 h 12.827 v 44.89 c 0,3.591 2.82,6.413 6.413,6.413 z" />
	<path
   style="fill:#52c48b;fill-opacity:1"
   id="path77"
   d="m 157.45,63.919 h -12.824 l 3.848,-12.826 h 8.976 V 25.442 h 12.827 v 25.651 h 19.239 l -3.848,12.826 h -15.391 v 32.064 c 0,3.591 2.823,6.413 6.413,6.413 h 12.827 l -3.848,12.825 h -8.979 c -10.645,0 -19.239,-8.594 -19.239,-19.238 V 63.919 Z" />
</g>

<g
   id="g1383"><g
     id="flowRoot3804"
     style="font-style:normal;font-weight:normal;font-size:40px;line-height:1.25;font-family:sans-serif;letter-spacing:0px;word-spacing:0px;fill:#2a7a52;fill-opacity:1;stroke:none"
     transform="matrix(3.2052839,0,0,3.2052839,-142.12365,381.26395)"
     aria-label="quality"><path
       id="path1385"
       style="font-style:normal;font-variant:normal;font-weight:normal;font-stretch:normal;font-family:'Tenby Five';-inkscape-font-specification:'Tenby Five';fill:#2a7a52;fill-opacity:1"
       d="m 152.57656,-83.091797 v 8 h 4 V -103.0918 h -10 c -3.32,0 -6,2.68 -6,6.000003 v 8 c 0,3.32 2.68,6 6,6 z m -8,-14 c 0,-1.12 0.88,-2 2,-2 h 6 v 12 h -6 c -1.12,0 -2,-0.88 -2,-2 z" /><path
       id="path1387"
       style="font-style:normal;font-variant:normal;font-weight:normal;font-stretch:normal;font-family:'Tenby Five';-inkscape-font-specification:'Tenby Five';fill:#2a7a52;fill-opacity:1"
       d="m 166.58594,-87.091797 c -1.12,0 -2,-0.88 -2,-2 V -103.0918 h -4 v 14.000003 c 0,3.32 2.68,6 6,6 h 4 c 3.32,0 6,-2.68 6,-6 V -103.0918 h -4 v 14.000003 c 0,1.12 -0.88,2 -2,2 z" /><path
       id="path1389"
       style="font-style:normal;font-variant:normal;font-weight:normal;font-stretch:normal;font-family:'Tenby Five';-inkscape-font-specification:'Tenby Five';fill:#2a7a52;fill-opacity:1"
       d="m 189.78594,-99.091797 c 1.12,0 2,0.88 2,2 v 2 h -6 c -3.32,0 -6,2.68 -6,6 0,3.32 2.68,6 6,6 h 10 v -14 c 0,-3.320003 -2.68,-6.000003 -6,-6.000003 h -8 l -1.2,4.000003 z m -4,12 c -1.12,0 -2,-0.88 -2,-2 0,-1.12 0.88,-2 2,-2 h 6 v 4 z" /><path
       id="path1391"
       style="font-style:normal;font-variant:normal;font-weight:normal;font-stretch:normal;font-family:'Tenby Five';-inkscape-font-specification:'Tenby Five';fill:#2a7a52;fill-opacity:1"
       d="m 199.80469,-89.091797 c 0,3.32 2.68,6 6,6 h 1.2 l 1.2,-4 h -2.4 c -1.12,0 -2,-0.88 -2,-2 V -111.0918 h -4 z" /><path
       id="path1393"
       style="font-style:normal;font-variant:normal;font-weight:normal;font-stretch:normal;font-family:'Tenby Five';-inkscape-font-specification:'Tenby Five';fill:#2a7a52;fill-opacity:1"
       d="m 210.58594,-83.091797 h 4 V -103.0918 h -4 z m 0,-24.000003 h 4 v -4 h -4 z" /><path
       id="path1395"
       style="font-style:normal;font-variant:normal;font-weight:normal;font-stretch:normal;font-family:'Tenby Five';-inkscape-font-specification:'Tenby Five';fill:#2a7a52;fill-opacity:1"
       d="m 220.95469,-89.091797 c 0,3.32 2.68,6 6,6 h 2.8 l 1.2,-4 h -4 c -1.12,0 -2,-0.88 -2,-2 v -10 h 4.8 l 1.2,-4.000003 h -6 v -8 h -4 v 8 h -2.8 l -1.2,4.000003 h 4 z" /><path
       id="path1397"
       style="font-style:normal;font-variant:normal;font-weight:normal;font-stretch:normal;font-family:'Tenby Five';-inkscape-font-specification:'Tenby Five';fill:#2a7a52;fill-opacity:1"
       d="m 233.32031,-103.0918 v 14.000003 c 0,3.32 2.68,6 6,6 h 6 v 2 c 0,1.12 -0.88,2 -2,2 h -9.2 l 1.2,4 h 8 c 3.32,0 6,-2.68 6,-6 V -103.0918 h -4 v 16.000003 h -6 c -1.12,0 -2,-0.88 -2,-2 V -103.0918 Z" /></g></g></svg>