<?xml version="1.0" encoding="UTF-8" standalone="no"?>
<!-- Created with Inkscape (http://www.inkscape.org/) -->

<svg
   xmlns:dc="http://purl.org/dc/elements/1.1/"
   xmlns:cc="http://creativecommons.org/ns#"
   xmlns:rdf="http://www.w3.org/1999/02/22-rdf-syntax-ns#"
   xmlns:svg="http://www.w3.org/2000/svg"
   xmlns="http://www.w3.org/2000/svg"
   xmlns:sodipodi="http://sodipodi.sourceforge.net/DTD/sodipodi-0.dtd"
   xmlns:inkscape="http://www.inkscape.org/namespaces/inkscape"
   width="213.40215mm"
   height="45.400002mm"
   viewBox="0 0 213.40215 45.400002"
   version="1.1"
   id="svg8"
   inkscape:version="0.92.4 (5da689c313, 2019-01-14)"
   sodipodi:docname="get-bin-path.svg">
  <defs
     id="defs2" />
  <sodipodi:namedview
     id="base"
     pagecolor="#ffffff"
     bordercolor="#666666"
     borderopacity="1.0"
     inkscape:pageopacity="0.0"
     inkscape:pageshadow="2"
     inkscape:zoom="0.98994949"
     inkscape:cx="562.82281"
     inkscape:cy="-39.530393"
     inkscape:document-units="mm"
     inkscape:current-layer="layer1"
     showgrid="false"
     fit-margin-top="10"
     fit-margin-left="10"
     fit-margin-right="10"
     fit-margin-bottom="10"
     inkscape:window-width="1850"
     inkscape:window-height="1016"
     inkscape:window-x="70"
     inkscape:window-y="27"
     inkscape:window-maximized="1" />
  <metadata
     id="metadata5">
    <rdf:RDF>
      <cc:Work
         rdf:about="">
        <dc:format>image/svg+xml</dc:format>
        <dc:type
           rdf:resource="http://purl.org/dc/dcmitype/StillImage" />
        <dc:title></dc:title>
      </cc:Work>
    </rdf:RDF>
  </metadata>
  <g
     inkscape:label="Layer 1"
     inkscape:groupmode="layer"
     id="layer1"
     transform="translate(6.8487712,-16.790655)">
    <g
       aria-label="/get/bin.path"
       transform="scale(0.26458333)"
       style="font-style:normal;font-weight:normal;font-size:40px;line-height:1.25;font-family:sans-serif;letter-spacing:0px;word-spacing:0px;fill:#000000;fill-opacity:1;stroke:none"
       id="flowRoot815">
      <path
         d="m 49.644531,105.66227 -29.390625,68.53125 h -8.34375 l 29.390625,-68.53125 z"
         style="font-size:96px;fill:#92662f;fill-opacity:1"
         id="path1053" />
      <path
         d="m 112.36328,122.72477 v 5.29688 l -9.1875,1.26562 q 3.04688,3.98438 3.04688,9.98438 0,7.54687 -5.01563,12.04687 -4.968749,4.45313 -13.874999,4.45313 -2.578125,0 -4.03125,-0.28125 -4.6875,2.625 -4.6875,6.23437 0,3.9375 7.546875,3.9375 h 8.765625 q 8.156249,0 12.468749,3.60938 4.3125,3.60937 4.3125,10.3125 0,17.67187 -26.484374,17.67187 -10.21875,0 -15.5625,-3.79687 -5.296875,-3.75 -5.296875,-10.54688 0,-9.9375 11.25,-12.65625 -4.5,-2.20312 -4.5,-7.21875 0,-5.25 6.234375,-9 -4.171875,-1.73437 -6.5625,-5.71875 -2.390625,-4.03125 -2.390625,-8.76562 0,-8.53125 4.96875,-13.125 5.015625,-4.64063 14.25,-4.64063 4.03125,0 7.03125,0.9375 z m -24.937499,27.1875 q 10.453125,0 10.453125,-10.78125 0,-11.20312 -10.546875,-11.20312 -10.546875,0 -10.546875,11.34375 0,10.64062 10.640625,10.64062 z m 4.59375,23.4375 h -8.8125 q -10.78125,0 -10.78125,9.28125 0,8.15625 12.703125,8.15625 18.515624,0 18.515624,-10.45312 0,-4.125 -2.34375,-5.57813 -2.343749,-1.40625 -9.281249,-1.40625 z"
         style="font-style:normal;font-variant:normal;font-weight:normal;font-stretch:normal;font-size:96px;font-family:'Droid Sans Mono';-inkscape-font-specification:'Droid Sans Mono'"
         id="path1055" />
      <path
         d="m 168.51953,150.09977 h -36.28125 q 0.375,17.57813 16.125,17.57813 9.14063,0 17.34375,-3.5625 v 7.5 q -7.78125,3.51562 -17.0625,3.51562 -11.48437,0 -18.375,-6.98437 -6.89062,-7.03125 -6.89062,-19.3125 0,-12.46875 6.32812,-19.73438 6.375,-7.3125 17.01563,-7.3125 9.9375,0 15.84375,6.28125 5.95312,6.28125 5.95312,16.73438 z m -36.09375,-6.9375 h 26.85938 q 0,-14.29687 -12.75,-14.29687 -12.89063,0 -14.10938,14.29687 z"
         style="font-style:normal;font-variant:normal;font-weight:normal;font-stretch:normal;font-size:96px;font-family:'Droid Sans Mono';-inkscape-font-specification:'Droid Sans Mono'"
         id="path1057" />
      <path
         d="m 222.51953,167.16227 v 6.46875 q -6.09375,1.5 -11.8125,1.5 -16.96875,0 -16.96875,-16.125 v -29.85937 h -12.51562 v -4.40625 l 12.51562,-2.29688 3.60938,-13.45312 h 4.92187 v 13.73437 h 20.53125 v 6.42188 h -20.53125 v 29.85937 q 0,9.14063 9,9.14063 4.35938,0 11.25,-0.98438 z"
         style="font-style:normal;font-variant:normal;font-weight:normal;font-stretch:normal;font-size:96px;font-family:'Droid Sans Mono';-inkscape-font-specification:'Droid Sans Mono'"
         id="path1059" />
      <path
         d="m 279.89453,105.66227 -29.39062,68.53125 h -8.34375 l 29.39062,-68.53125 z"
         style="font-size:96px;fill:#92662f;fill-opacity:1"
         id="path1061" />
      <path
         d="m 305.76953,167.6779 h -0.5625 l -1.73437,6.51562 h -6.23438 v -72.9375 h 8.53125 v 17.625 q 0,3.79688 -0.375,10.59375 h 0.375 q 5.01563,-7.6875 15.09375,-7.6875 9.42188,0 14.76563,7.03125 5.39062,6.98438 5.39062,19.54688 0,12.65625 -5.39062,19.73437 -5.39063,7.03125 -14.76563,7.03125 -9.70312,0 -15.09375,-7.45312 z m 0,-19.3125 q 0,10.64062 3.23438,15.1875 3.28125,4.5 10.40625,4.5 12.75,0 12.75,-19.78125 0,-19.40625 -12.84375,-19.40625 -7.26563,0 -10.40625,4.40625 -3.14063,4.40625 -3.14063,15.09375 z"
         style="font-style:normal;font-variant:normal;font-weight:normal;font-stretch:normal;font-size:96px;font-family:'Droid Sans Mono';-inkscape-font-specification:'Droid Sans Mono'"
         id="path1063" />
      <path
         d="m 377.06641,101.53727 q 4.96875,0 4.96875,5.34375 0,2.71875 -1.5,4.07813 -1.45313,1.3125 -3.46875,1.3125 -5.01563,0 -5.01563,-5.39063 0,-5.34375 5.01563,-5.34375 z m -4.3125,27.9375 -12.60938,-0.98437 v -5.76563 h 21.14063 v 44.76563 l 16.5,0.9375 v 5.76562 h -41.15625 v -5.76562 l 16.125,-0.9375 z"
         style="font-style:normal;font-variant:normal;font-weight:normal;font-stretch:normal;font-size:96px;font-family:'Droid Sans Mono';-inkscape-font-specification:'Droid Sans Mono'"
         id="path1065" />
      <path
         d="M 446.53516,174.19352 V 141.0529 q 0,-12.1875 -11.15625,-12.1875 -14.39063,0 -14.39063,18.65625 v 26.67187 h -8.53125 v -51.46875 h 6.89063 l 1.26562,6.9375 h 0.46875 q 4.82813,-7.875 15.75,-7.875 18.23438,0 18.23438,18.79688 v 33.60937 z"
         style="font-style:normal;font-variant:normal;font-weight:normal;font-stretch:normal;font-size:96px;font-family:'Droid Sans Mono';-inkscape-font-specification:'Droid Sans Mono'"
         id="path1067" />
      <path
         d="m 491.30078,160.08415 q 7.125,0 7.125,7.78125 0,7.78125 -7.125,7.78125 -7.07812,0 -7.07812,-7.78125 0,-7.78125 7.07812,-7.78125 z"
         style="font-size:96px;fill:#92662f;fill-opacity:1"
         id="path1069" />
      <path
         d="m 536.01953,167.6779 h -0.5625 q 0.5625,6.04687 0.5625,7.59375 v 21.98437 h -8.53125 v -74.53125 h 6.89063 l 1.26562,6.9375 h 0.375 q 5.15625,-7.875 15.09375,-7.875 9.42188,0 14.76563,7.03125 5.39062,6.98438 5.39062,19.54688 0,12.65625 -5.39062,19.73437 -5.39063,7.03125 -14.76563,7.03125 -9.70312,0 -15.09375,-7.45312 z m 0,-21.23438 v 1.92188 q 0,10.64062 3.23438,15.1875 3.28125,4.5 10.40625,4.5 12.75,0 12.75,-19.78125 0,-19.40625 -12.84375,-19.40625 -7.125,0 -10.26563,4.125 -3.09375,4.125 -3.28125,13.45312 z"
         style="font-style:normal;font-variant:normal;font-weight:normal;font-stretch:normal;font-size:96px;font-family:'Droid Sans Mono';-inkscape-font-specification:'Droid Sans Mono'"
         id="path1071" />
      <path
         d="m 619.59766,174.19352 -1.73438,-7.125 h -0.375 q -3.60937,4.54688 -7.40625,6.32813 -3.79687,1.73437 -9.79687,1.73437 -7.64063,0 -12,-4.03125 -4.3125,-4.03125 -4.3125,-11.29687 0,-15.5625 23.90625,-16.3125 l 9.51562,-0.32813 v -3.23437 q 0,-11.0625 -11.4375,-11.0625 -6.89062,0 -15.375,3.84375 l -2.95312,-6.42188 q 9.1875,-4.5 17.95312,-4.5 10.64063,0 15.375,4.07813 4.78125,4.07812 4.78125,13.07812 v 35.25 z m -2.29688,-25.17187 -7.59375,0.32812 q -9.1875,0.375 -13.03125,2.90625 -3.84375,2.48438 -3.84375,7.64063 0,8.34375 9.375,8.34375 6.89063,0 10.96875,-3.79688 4.125,-3.84375 4.125,-10.78125 z"
         style="font-style:normal;font-variant:normal;font-weight:normal;font-stretch:normal;font-size:96px;font-family:'Droid Sans Mono';-inkscape-font-specification:'Droid Sans Mono'"
         id="path1073" />
      <path
         d="m 683.01953,167.16227 v 6.46875 q -6.09375,1.5 -11.8125,1.5 -16.96875,0 -16.96875,-16.125 v -29.85937 h -12.51562 v -4.40625 l 12.51562,-2.29688 3.60938,-13.45312 h 4.92187 v 13.73437 h 20.53125 v 6.42188 h -20.53125 v 29.85937 q 0,9.14063 9,9.14063 4.35938,0 11.25,-0.98438 z"
         style="font-style:normal;font-variant:normal;font-weight:normal;font-stretch:normal;font-size:96px;font-family:'Droid Sans Mono';-inkscape-font-specification:'Droid Sans Mono'"
         id="path1075" />
      <path
         d="M 734.34766,174.19352 V 141.0529 q 0,-12.1875 -11.15625,-12.1875 -14.39063,0 -14.39063,18.65625 v 26.67187 h -8.53125 v -72.9375 h 8.53125 v 21.65625 l -0.375,6.75 h 0.46875 q 4.82813,-7.875 15.75,-7.875 18.23438,0 18.23438,18.79688 v 33.60937 z"
         style="font-style:normal;font-variant:normal;font-weight:normal;font-stretch:normal;font-size:96px;font-family:'Droid Sans Mono';-inkscape-font-specification:'Droid Sans Mono'"
         id="path1077" />
    </g>
  </g>
</svg>
