<?xml version="1.0" encoding="UTF-8" standalone="no"?>
<!-- Created with Inkscape (http://www.inkscape.org/) -->

<svg
   width="205.28246mm"
   height="127.36383mm"
   viewBox="0 0 205.28246 127.36383"
   version="1.1"
   id="svg8"
   xmlns="http://www.w3.org/2000/svg"
   xmlns:svg="http://www.w3.org/2000/svg"
   xmlns:rdf="http://www.w3.org/1999/02/22-rdf-syntax-ns#"
   xmlns:cc="http://creativecommons.org/ns#"
   xmlns:dc="http://purl.org/dc/elements/1.1/">
  <defs
     id="defs2" />
  <metadata
     id="metadata5">
    <rdf:RDF>
      <cc:Work
         rdf:about="">
        <dc:format>image/svg+xml</dc:format>
        <dc:type
           rdf:resource="http://purl.org/dc/dcmitype/StillImage" />
      </cc:Work>
    </rdf:RDF>
  </metadata>
  <g
     id="layer1"
     transform="translate(-2.4166672,0.0042723)">
    <g
       aria-label="log
process
errors"
       transform="matrix(0.26458333,0,0,0.26458333,35.814117,6.1471991)"
       id="flowRoot4518"
       style="font-size:40px;letter-spacing:0px;word-spacing:0px;fill:#e5e5e5">
      <path
         d="M 81.102125,42.753138 63.654253,41.385954 v -7.942688 h 29.361904 v 91.991954 l 22.916613,1.30208 v 8.00779 H 58.706349 v -8.00779 l 22.395776,-1.30208 z"
         style="-inkscape-font-specification:'Droid Sans Mono'"
         id="path4692" />
      <path
         d="m 166.19305,136.04717 q -14.06246,0 -23.17702,-10.09112 -9.04946,-10.15622 -9.04946,-27.083263 0,-17.122352 8.78904,-27.01816 8.85415,-9.895808 23.82807,-9.895808 14.19267,0 23.24213,10.09112 9.04945,10.09112 9.04945,26.822848 0,17.252563 -8.91925,27.213473 -8.91924,9.96091 -23.76296,9.96091 z m 0.26042,-9.8307 q 20.18224,0 20.18224,-27.343683 0,-27.083264 -20.31245,-27.083264 -20.11713,0 -20.11713,27.083264 0,27.343683 20.24734,27.343683 z"
         style="-inkscape-font-specification:'Droid Sans Mono'"
         id="path4694" />
      <path
         d="m 279.79954,63.260899 v 7.356752 l -12.76039,1.757808 q 4.23176,5.53384 4.23176,13.867152 0,10.481744 -6.96613,16.731729 -6.90102,6.18488 -19.27078,6.18488 -3.58072,0 -5.59894,-0.39063 -6.5104,3.64583 -6.5104,8.65884 0,5.46873 10.48174,5.46873 h 12.17445 q 11.32809,0 17.31766,5.01301 5.98957,5.01301 5.98957,14.32288 0,24.54421 -36.78376,24.54421 -14.19267,0 -21.61453,-5.27343 -7.35675,-5.20832 -7.35675,-14.6484 0,-13.80204 15.62496,-17.57808 -6.24998,-3.05988 -6.24998,-10.02601 0,-7.29165 8.65883,-12.49997 -5.79426,-2.40885 -9.11456,-7.942687 -3.32031,-5.598944 -3.32031,-12.174448 0,-11.848928 6.90103,-18.22912 6.96613,-6.445296 19.79161,-6.445296 5.59895,0 9.7656,1.30208 z m -34.63533,37.760321 q 14.51819,0 14.51819,-14.973921 0,-15.559856 -14.6484,-15.559856 -14.6484,0 -14.6484,15.755168 0,14.778609 14.77861,14.778609 z m 6.38019,32.552 h -12.23955 q -14.97392,0 -14.97392,12.89059 0,11.3281 17.64318,11.3281 25.71608,0 25.71608,-14.5182 0,-5.72915 -3.2552,-7.74737 -3.2552,-1.95312 -12.89059,-1.95312 z"
         style="-inkscape-font-specification:'Droid Sans Mono'"
         id="path4696" />
      <path
         d="m 68.602157,252.36199 h -0.781248 q 0.781248,8.39841 0.781248,10.54684 v 30.53378 H 56.753229 V 189.92725 h 9.570288 l 1.757808,9.63539 h 0.520832 q 7.16144,-10.93747 20.963488,-10.93747 13.085905,0 20.507765,9.7656 7.48696,9.7005 7.48696,27.14837 0,17.57808 -7.48696,27.40878 -7.48696,9.7656 -20.507765,9.7656 -13.476528,0 -20.963488,-10.35153 z m 0,-29.49212 v 2.66927 q 0,14.77861 4.492176,21.09369 4.55728,6.24999 14.453088,6.24999 17.708289,0 17.708289,-27.47389 0,-26.95306 -17.838497,-26.95306 -9.895808,0 -14.257776,5.72916 -4.296864,5.72915 -4.55728,18.68484 z"
         style="-inkscape-font-specification:'Droid Sans Mono'"
         id="path4698" />
      <path
         d="m 195.42475,191.55485 -3.1901,10.80726 q -8.00779,-2.92968 -14.58329,-2.92968 -10.61195,0 -16.40621,6.05468 -5.72915,5.98956 -5.72915,17.38276 v 38.54157 h -11.84893 v -71.48419 h 9.63539 l 1.43229,13.0859 h 0.52083 q 4.94791,-7.74737 10.61195,-11.06768 5.66405,-3.3203 13.93226,-3.3203 7.68227,0 15.62496,2.92968 z"
         style="-inkscape-font-specification:'Droid Sans Mono'"
         id="path4700" />
      <path
         d="m 246.20587,262.71352 q -14.06246,0 -23.17702,-10.09112 -9.04946,-10.15622 -9.04946,-27.08326 0,-17.12235 8.78904,-27.01816 8.85415,-9.89581 23.82807,-9.89581 14.19267,0 23.24212,10.09112 9.04946,10.09112 9.04946,26.82285 0,17.25256 -8.91925,27.21347 -8.91925,9.96091 -23.76296,9.96091 z m 0.26042,-9.8307 q 20.18224,0 20.18224,-27.34368 0,-27.08327 -20.31245,-27.08327 -20.11714,0 -20.11714,27.08327 0,27.34368 20.24735,27.34368 z"
         style="-inkscape-font-specification:'Droid Sans Mono'"
         id="path4702" />
      <path
         d="m 355.58059,192.46631 -4.03644,10.28643 q -9.7656,-3.71093 -17.44788,-3.71093 -24.15358,0 -24.15358,26.88795 0,26.43223 23.50254,26.43223 10.22133,0 20.89839,-4.03645 v 10.41664 q -8.72394,3.97134 -21.41922,3.97134 -16.73173,0 -25.97649,-9.44008 -9.24477,-9.50518 -9.24477,-27.21347 0,-18.29422 9.44008,-27.86451 9.44008,-9.57029 26.56243,-9.57029 11.58851,0 21.87494,3.84114 z"
         style="-inkscape-font-specification:'Droid Sans Mono'"
         id="path4704" />
      <path
         d="m 437.87205,227.94799 h -50.3905 q 0.52084,24.414 22.39578,24.414 12.69528,0 24.08848,-4.94791 v 10.41664 q -10.80726,4.8828 -23.69786,4.8828 -15.95048,0 -25.52076,-9.70049 -9.57029,-9.7656 -9.57029,-26.82285 0,-17.31767 8.78904,-27.40879 8.85414,-10.15622 23.63275,-10.15622 13.80205,0 22.00515,8.72394 8.26821,8.72393 8.26821,23.24212 z m -50.13008,-9.6354 h 37.30459 q 0,-19.85672 -17.70829,-19.85672 -17.9036,0 -19.5963,19.85672 z"
         style="-inkscape-font-specification:'Droid Sans Mono'"
         id="path4706" />
      <path
         d="m 459.747,258.22135 v -10.80727 q 12.56507,5.59895 24.08848,5.59895 17.9036,0 17.9036,-10.54685 0,-3.71093 -3.1901,-6.4453 -3.1901,-2.73437 -14.7135,-6.90102 -15.16924,-5.66405 -19.14058,-10.35154 -3.90624,-4.75259 -3.90624,-11.19789 0,-8.85414 7.22654,-13.86715 7.29165,-5.07811 20.11714,-5.07811 12.89059,0 24.02338,4.8177 l -3.90624,9.70049 q -11.84893,-4.68749 -20.76818,-4.68749 -15.36454,0 -15.36454,8.65884 0,3.97134 3.2552,6.38019 3.3203,2.34374 15.16923,6.5755 13.73694,5.01301 18.22912,9.89581 4.55728,4.8177 4.55728,11.84893 0,9.7656 -7.61717,15.36454 -7.61717,5.53384 -21.54942,5.53384 -16.1458,0 -24.414,-4.49217 z"
         style="-inkscape-font-specification:'Droid Sans Mono'"
         id="path4708" />
      <path
         d="m 539.75981,258.22135 v -10.80727 q 12.56508,5.59895 24.08848,5.59895 17.9036,0 17.9036,-10.54685 0,-3.71093 -3.19009,-6.4453 -3.1901,-2.73437 -14.71351,-6.90102 -15.16923,-5.66405 -19.14057,-10.35154 -3.90624,-4.75259 -3.90624,-11.19789 0,-8.85414 7.22654,-13.86715 7.29165,-5.07811 20.11714,-5.07811 12.89059,0 24.02337,4.8177 l -3.90624,9.70049 q -11.84892,-4.68749 -20.76817,-4.68749 -15.36455,0 -15.36455,8.65884 0,3.97134 3.2552,6.38019 3.32031,2.34374 15.16924,6.5755 13.73694,5.01301 18.22912,9.89581 4.55728,4.8177 4.55728,11.84893 0,9.7656 -7.61717,15.36454 -7.61717,5.53384 -21.54943,5.53384 -16.14579,0 -24.414,-4.49217 z"
         style="-inkscape-font-specification:'Droid Sans Mono'"
         id="path4710" />
      <path
         d="M 117.82078,354.61434 H 67.430285 q 0.520832,24.414 22.395776,24.414 12.695279,0 24.088479,-4.94791 v 10.41664 q -10.80726,4.8828 -23.697855,4.8828 -15.95048,0 -25.520768,-9.70049 -9.570288,-9.7656 -9.570288,-26.82285 0,-17.31766 8.78904,-27.40878 8.854144,-10.15623 23.632752,-10.15623 13.802049,0 22.005149,8.72394 8.26821,8.72393 8.26821,23.24213 z m -50.130079,-9.63539 h 37.304589 q 0,-19.85672 -17.708285,-19.85672 -17.9036,0 -19.596304,19.85672 z"
         style="-inkscape-font-specification:'Droid Sans Mono'"
         id="path4712" />
      <path
         d="m 195.42475,318.2212 -3.1901,10.80727 q -8.00779,-2.92968 -14.58329,-2.92968 -10.61195,0 -16.40621,6.05467 -5.72915,5.98957 -5.72915,17.38277 v 38.54156 H 143.66707 V 316.5936 h 9.63539 l 1.43229,13.08591 h 0.52083 q 4.94791,-7.74738 10.61195,-11.06768 5.66405,-3.32031 13.93226,-3.32031 7.68227,0 15.62496,2.92968 z"
         style="-inkscape-font-specification:'Droid Sans Mono'"
         id="path4714" />
      <path
         d="m 275.43757,318.2212 -3.1901,10.80727 q -8.00779,-2.92968 -14.58329,-2.92968 -10.61196,0 -16.40621,6.05467 -5.72915,5.98957 -5.72915,17.38277 v 38.54156 H 223.67989 V 316.5936 h 9.63539 l 1.43229,13.08591 h 0.52083 q 4.9479,-7.74738 10.61195,-11.06768 5.66405,-3.32031 13.93226,-3.32031 7.68227,0 15.62496,2.92968 z"
         style="-inkscape-font-specification:'Droid Sans Mono'"
         id="path4716" />
      <path
         d="m 326.21869,389.37987 q -14.06246,0 -23.17702,-10.09112 -9.04946,-10.15622 -9.04946,-27.08326 0,-17.12235 8.78904,-27.01816 8.85414,-9.89581 23.82806,-9.89581 14.19268,0 23.24213,10.09112 9.04946,10.09112 9.04946,26.82285 0,17.25256 -8.91925,27.21347 -8.91925,9.96091 -23.76296,9.96091 z m 0.26042,-9.8307 q 20.18224,0 20.18224,-27.34368 0,-27.08326 -20.31245,-27.08326 -20.11714,0 -20.11714,27.08326 0,27.34368 20.24735,27.34368 z"
         style="-inkscape-font-specification:'Droid Sans Mono'"
         id="path4718" />
      <path
         d="m 435.4632,318.2212 -3.19009,10.80727 q -8.0078,-2.92968 -14.5833,-2.92968 -10.61195,0 -16.40621,6.05467 -5.72915,5.98957 -5.72915,17.38277 v 38.54156 H 383.70552 V 316.5936 h 9.63539 l 1.43229,13.08591 h 0.52083 q 4.94791,-7.74738 10.61196,-11.06768 5.66404,-3.32031 13.93225,-3.32031 7.68227,0 15.62496,2.92968 z"
         style="-inkscape-font-specification:'Droid Sans Mono'"
         id="path4720" />
      <path
         d="m 459.747,384.8877 v -10.80727 q 12.56507,5.59895 24.08848,5.59895 17.9036,0 17.9036,-10.54685 0,-3.71093 -3.1901,-6.4453 -3.1901,-2.73436 -14.7135,-6.90102 -15.16924,-5.66405 -19.14058,-10.35154 -3.90624,-4.75259 -3.90624,-11.19788 0,-8.85415 7.22654,-13.86716 7.29165,-5.07811 20.11714,-5.07811 12.89059,0 24.02338,4.8177 l -3.90624,9.70049 q -11.84893,-4.68748 -20.76818,-4.68748 -15.36454,0 -15.36454,8.65883 0,3.97134 3.2552,6.38019 3.3203,2.34374 15.16923,6.5755 13.73694,5.01301 18.22912,9.89581 4.55728,4.8177 4.55728,11.84893 0,9.7656 -7.61717,15.36454 -7.61717,5.53384 -21.54942,5.53384 -16.1458,0 -24.414,-4.49217 z"
         style="-inkscape-font-specification:'Droid Sans Mono'"
         id="path4722" />
    </g>
    <text
       xml:space="preserve"
       style="font-style:normal;font-weight:normal;font-size:10.5833px;line-height:1.25;font-family:sans-serif;letter-spacing:0px;word-spacing:0px;fill:#000000;fill-opacity:1;stroke:none;stroke-width:0.264583"
       x="10.80639"
       y="82.120674"
       id="text4605"><tspan
         id="tspan4603"
         x="10.80639"
         y="82.120674"
         style="font-size:44.0972px;fill:#00a500;fill-opacity:1;stroke-width:0.264583">✓</tspan></text>
    <text
       xml:space="preserve"
       style="font-style:normal;font-weight:normal;font-size:10.5833px;line-height:1.25;font-family:sans-serif;letter-spacing:0px;word-spacing:0px;fill:#000000;fill-opacity:1;stroke:none;stroke-width:0.264583"
       x="10.80639"
       y="47.624344"
       id="text4605-0"><tspan
         id="tspan4603-2"
         x="10.80639"
         y="47.624344"
         style="font-size:44.0972px;fill:#00a500;fill-opacity:1;stroke-width:0.264583">✓</tspan></text>
    <text
       xml:space="preserve"
       style="font-style:normal;font-weight:normal;font-size:10.5833px;line-height:1.25;font-family:sans-serif;letter-spacing:0px;word-spacing:0px;fill:#000000;fill-opacity:1;stroke:none;stroke-width:0.264583"
       x="14.415318"
       y="112.0495"
       id="text4627"><tspan
         id="tspan4625"
         x="14.415318"
         y="112.0495"
         style="font-size:35.2778px;fill:#a50000;fill-opacity:1;stroke-width:0.264583">✗</tspan></text>
  </g>
</svg>
