<?xml version="1.0" encoding="UTF-8" standalone="no"?>
<svg
   xmlns:dc="http://purl.org/dc/elements/1.1/"
   xmlns:cc="http://creativecommons.org/ns#"
   xmlns:rdf="http://www.w3.org/1999/02/22-rdf-syntax-ns#"
   xmlns:svg="http://www.w3.org/2000/svg"
   xmlns="http://www.w3.org/2000/svg"
   id="svg8"
   version="1.1"
   viewBox="0 0 205.28246 127.36383"
   height="127.36383mm"
   width="205.28246mm">
  <defs
     id="defs2" />
  <metadata
     id="metadata5">
    <rdf:RDF>
      <cc:Work
         rdf:about="">
        <dc:format>image/svg+xml</dc:format>
        <dc:type
           rdf:resource="http://purl.org/dc/dcmitype/StillImage" />
        <dc:title></dc:title>
      </cc:Work>
    </rdf:RDF>
  </metadata>
  <g
     transform="translate(-2.4166672,0.0042723)"
     id="layer1">
    <g
       id="flowRoot4518"
       style="font-style:normal;font-weight:normal;font-size:40px;line-height:1.25;font-family:sans-serif;letter-spacing:0px;word-spacing:0px;fill:#000000;fill-opacity:1;stroke:none"
       transform="matrix(0.26458333,0,0,0.26458333,35.814117,6.1471991)"
       aria-label="log
process
errors">
      <path
         d="M 459.42257,384.88859 V 374.0813 q 12.5651,5.59895 24.08854,5.59895 17.90365,0 17.90365,-10.54687 0,-3.71094 -3.19011,-6.44531 -3.1901,-2.73438 -14.71354,-6.90105 -15.16927,-5.66406 -19.14063,-10.35156 -3.90625,-4.7526 -3.90625,-11.19792 0,-8.85416 7.22657,-13.86719 7.29166,-5.07812 20.11719,-5.07812 12.89062,0 24.02344,4.81771 l -3.90625,9.70052 q -11.84896,-4.6875 -20.76824,-4.6875 -15.36458,0 -15.36458,8.65885 0,3.97136 3.25521,6.38021 3.32031,2.34375 15.16927,6.57552 13.73698,5.01302 18.22917,9.89584 4.55729,4.81771 4.55729,11.84896 0,9.76562 -7.61719,15.36458 -7.61719,5.53386 -21.54948,5.53386 -16.14583,0 -24.41406,-4.49219 z m -24.21877,-66.66667 -3.1901,10.80729 q -8.00782,-2.92969 -14.58334,-2.92969 -10.61198,0 -16.40625,6.05469 -5.72917,5.98958 -5.72917,17.38281 v 38.54167 h -11.84895 v -71.48438 h 9.63541 l 1.43229,13.08594 h 0.52084 q 4.94791,-7.7474 10.61198,-11.06771 5.66406,-3.32031 13.93229,-3.32031 7.68229,0 15.625,2.92969 z m -109.17969,71.15886 q -14.0625,0 -23.17709,-10.09115 -9.04948,-10.15625 -9.04948,-27.08334 0,-17.12239 8.78907,-27.01823 8.85416,-9.89583 23.82812,-9.89583 14.19271,0 23.24219,10.09115 9.04948,10.09114 9.04948,26.82291 0,17.25261 -8.91927,27.21355 -8.91927,9.96094 -23.76302,9.96094 z m 0.26041,-9.83073 q 20.1823,0 20.1823,-27.34376 0,-27.08333 -20.3125,-27.08333 -20.11719,0 -20.11719,27.08333 0,27.34376 20.24739,27.34376 z m -50.97656,-61.32813 -3.19011,10.80729 q -8.00781,-2.92969 -14.58333,-2.92969 -10.61198,0 -16.40625,6.05469 -5.72917,5.98958 -5.72917,17.38281 v 38.54167 h -11.84896 v -71.48438 h 9.63542 l 1.43229,13.08594 h 0.52083 q 4.94792,-7.7474 10.61198,-11.06771 5.66407,-3.32031 13.9323,-3.32031 7.68229,0 15.625,2.92969 z m -79.94792,0 -3.19011,10.80729 q -8.00781,-2.92969 -14.58333,-2.92969 -10.61198,0 -16.40625,6.05469 -5.72917,5.98958 -5.72917,17.38281 v 38.54167 h -11.84896 v -71.48438 h 9.63542 l 1.43229,13.08594 h 0.52083 q 4.94792,-7.7474 10.61198,-11.06771 5.66407,-3.32031 13.9323,-3.32031 7.68229,0 15.625,2.92969 z m -77.53907,36.39323 H 67.43034 q 0.520834,24.41406 22.395835,24.41406 12.695315,0 24.088545,-4.94791 v 10.41666 q -10.80729,4.88282 -23.69792,4.88282 -15.950522,0 -25.520835,-9.70053 -9.570313,-9.76562 -9.570313,-26.82291 0,-17.31771 8.789063,-27.40886 8.854167,-10.15625 23.632814,-10.15625 13.802081,0 22.005211,8.72396 8.26823,8.72396 8.26823,23.24219 z m -50.130213,-9.63542 h 37.304693 q 0,-19.85677 -17.708338,-19.85677 -17.903647,0 -19.596355,19.85677 z M 539.37047,258.22192 v -10.8073 q 12.56511,5.59896 24.08855,5.59896 17.90364,0 17.90364,-10.54687 0,-3.71094 -3.1901,-6.44532 -3.1901,-2.73437 -14.71354,-6.90104 -15.16927,-5.66406 -19.14063,-10.35156 -3.90625,-4.75261 -3.90625,-11.19792 0,-8.85417 7.22656,-13.86719 7.29167,-5.07812 20.11719,-5.07812 12.89063,0 24.02344,4.81771 l -3.90625,9.70052 q -11.84896,-4.6875 -20.76823,-4.6875 -15.36458,0 -15.36458,8.65885 0,3.97136 3.25521,6.38021 3.32031,2.34375 15.16927,6.57552 13.73698,5.01302 18.22917,9.89584 4.55729,4.8177 4.55729,11.84896 0,9.76562 -7.61719,15.36458 -7.61719,5.53385 -21.54948,5.53385 -16.14584,0 -24.41407,-4.49218 z m -79.9479,0 v -10.8073 q 12.5651,5.59896 24.08854,5.59896 17.90365,0 17.90365,-10.54687 0,-3.71094 -3.19011,-6.44532 -3.1901,-2.73437 -14.71354,-6.90104 -15.16927,-5.66406 -19.14063,-10.35156 -3.90625,-4.75261 -3.90625,-11.19792 0,-8.85417 7.22657,-13.86719 7.29166,-5.07812 20.11719,-5.07812 12.89062,0 24.02344,4.81771 l -3.90625,9.70052 q -11.84896,-4.6875 -20.76824,-4.6875 -15.36458,0 -15.36458,8.65885 0,3.97136 3.25521,6.38021 3.32031,2.34375 15.16927,6.57552 13.73698,5.01302 18.22917,9.89584 4.55729,4.8177 4.55729,11.84896 0,9.76562 -7.61719,15.36458 -7.61719,5.53385 -21.54948,5.53385 -16.14583,0 -24.41406,-4.49218 z m -21.80991,-30.27344 h -50.39063 q 0.52083,24.41406 22.39583,24.41406 12.69532,0 24.08855,-4.94792 v 10.41667 q -10.8073,4.88281 -23.69792,4.88281 -15.95052,0 -25.52084,-9.70052 -9.57031,-9.76562 -9.57031,-26.82292 0,-17.31771 8.78906,-27.40885 8.85417,-10.15625 23.63282,-10.15625 13.80208,0 22.00521,8.72396 8.26823,8.72396 8.26823,23.24219 z m -50.13022,-9.63542 h 37.30469 q 0,-19.85677 -17.70833,-19.85677 -17.90365,0 -19.59636,19.85677 z m -32.09635,-25.84636 -4.03646,10.28646 q -9.76563,-3.71094 -17.44792,-3.71094 -24.15365,0 -24.15365,26.88803 0,26.43229 23.50261,26.43229 10.22135,0 20.89844,-4.03646 v 10.41667 q -8.72396,3.97135 -21.41927,3.97135 -16.73178,0 -25.97657,-9.4401 -9.24479,-9.50521 -9.24479,-27.21354 0,-18.29428 9.4401,-27.86459 9.44011,-9.57031 26.56251,-9.57031 11.58854,0 21.875,3.84114 z m -109.3099,70.2474 q -14.06251,0 -23.17709,-10.09114 -9.04948,-10.15625 -9.04948,-27.08334 0,-17.12239 8.78906,-27.01823 8.85417,-9.89583 23.82813,-9.89583 14.19271,0 23.24219,10.09114 9.04948,10.09115 9.04948,26.82292 0,17.25261 -8.91927,27.21355 -8.91927,9.96093 -23.76302,9.96093 z m 0.26041,-9.83073 q 20.18229,0 20.18229,-27.34375 0,-27.08333 -20.3125,-27.08333 -20.11719,0 -20.11719,27.08333 0,27.34375 20.2474,27.34375 z m -50.97656,-61.32813 -3.19011,10.8073 q -8.00781,-2.92969 -14.58333,-2.92969 -10.61198,0 -16.40625,6.05469 -5.72917,5.98958 -5.72917,17.38281 v 38.54167 h -11.84896 v -71.48438 h 9.63542 l 1.43229,13.08594 h 0.52083 q 4.94792,-7.7474 10.61198,-11.06771 5.66407,-3.32031 13.9323,-3.32031 7.68229,0 15.625,2.92968 z m -126.757825,60.8073 h -0.78125 q 0.78125,8.39844 0.78125,10.54688 v 30.53385 H 56.753256 V 189.92764 h 9.570313 l 1.757813,9.63542 h 0.520833 q 7.161459,-10.9375 20.963543,-10.9375 13.085942,0 20.507812,9.76562 7.48698,9.70052 7.48698,27.14844 0,17.57813 -7.48698,27.40886 -7.48698,9.76562 -20.507812,9.76562 -13.476563,0 -20.963543,-10.35156 z m 0,-29.49219 v 2.66927 q 0,14.77865 4.492188,21.09375 4.557292,6.25 14.453126,6.25 17.708331,0 17.708331,-27.47396 0,-26.95312 -17.838539,-26.95312 -9.895834,0 -14.257814,5.72916 -4.296875,5.72917 -4.557292,18.6849 z M 279.66994,63.260969 v 7.356771 l -12.76042,1.757813 q 4.23177,5.533854 4.23177,13.867188 0,10.481772 -6.96615,16.731769 -6.90104,6.1849 -19.27083,6.1849 -3.58073,0 -5.59896,-0.39063 -6.51042,3.64584 -6.51042,8.65886 0,5.46875 10.48178,5.46875 h 12.17448 q 11.32812,0 17.31771,5.01302 5.98958,5.01302 5.98958,14.32292 0,24.54427 -36.78386,24.54427 -14.19271,0 -21.61458,-5.27344 -7.35677,-5.20833 -7.35677,-14.64843 0,-13.80209 15.625,-17.57813 -6.25,-3.0599 -6.25,-10.02604 0,-7.29167 8.65885,-12.5 -5.79427,-2.40886 -9.11458,-7.942714 -3.32032,-5.598958 -3.32032,-12.17448 0,-11.848959 6.90105,-18.229168 6.96614,-6.445313 19.79167,-6.445313 5.59895,0 9.76562,1.302084 z m -34.63542,37.760421 q 14.51823,0 14.51823,-14.973961 0,-15.559897 -14.64844,-15.559897 -14.64844,0 -14.64844,15.755209 0,14.778649 14.77865,14.778649 z m 6.38021,32.55208 h -12.23959 q -14.97396,0 -14.97396,12.89063 0,11.32813 17.64323,11.32813 25.71615,0 25.71615,-14.51823 0,-5.72917 -3.25521,-7.7474 -3.25521,-1.95313 -12.89062,-1.95313 z m -85.28647,2.47396 q -14.0625,0 -23.17708,-10.09114 -9.04948,-10.15625 -9.04948,-27.083339 0,-17.122398 8.78906,-27.018232 8.85417,-9.895834 23.82813,-9.895834 14.19271,0 23.24219,10.091147 9.04948,10.091146 9.04948,26.822919 0,17.252609 -8.91927,27.213539 -8.91928,9.96094 -23.76303,9.96094 z m 0.26042,-9.83073 q 20.18229,0 20.18229,-27.343749 0,-27.083336 -20.3125,-27.083336 -20.11719,0 -20.11719,27.083336 0,27.343749 20.2474,27.343749 z M 81.102216,42.753155 63.654298,41.385967 V 33.443258 H 93.01628 v 91.992192 l 22.91667,1.30209 v 8.00781 H 58.706381 v -8.00781 l 22.395835,-1.30209 z"
         style="font-style:normal;font-variant:normal;font-weight:normal;font-stretch:normal;font-size:133.33334351px;line-height:0.94999999;font-family:'Droid Sans Mono';-inkscape-font-specification:'Droid Sans Mono';fill:#0f0f0f;fill-opacity:1"
         id="path982" />
    </g>
    <g
       id="text4605"
       style="font-style:normal;font-weight:normal;font-size:10.58333302px;line-height:1.25;font-family:sans-serif;letter-spacing:0px;word-spacing:0px;fill:#000000;fill-opacity:1;stroke:none;stroke-width:0.26458332"
       aria-label="✓">
      <path
         d="m 20.560317,68.038845 q 0.839742,0 1.270379,1.378039 0.861274,2.583821 1.227315,2.583821 0.279914,0 0.58136,-0.430637 6.05045,-9.689331 11.196561,-15.675185 1.334975,-1.550293 4.241775,-1.550293 0.689019,0 0.925869,0.129191 0.23685,0.129191 0.23685,0.322978 0,0.301446 -0.710551,1.184251 -8.311293,9.990778 -15.416803,21.101212 -0.495232,0.775146 -2.023994,0.775146 -1.550293,0 -1.830207,-0.129191 -0.732083,-0.322978 -1.722548,-3.294373 -1.119656,-3.294372 -1.119656,-4.134115 0,-0.904337 1.50723,-1.744079 0.925869,-0.516765 1.63642,-0.516765 z"
         style="font-size:44.09722519px;fill:#00a500;fill-opacity:1;stroke-width:0.26458332"
         id="path946" />
    </g>
    <g
       id="text4605-0"
       style="font-style:normal;font-weight:normal;font-size:10.58333302px;line-height:1.25;font-family:sans-serif;letter-spacing:0px;word-spacing:0px;fill:#000000;fill-opacity:1;stroke:none;stroke-width:0.26458332"
       aria-label="✓">
      <path
         d="m 20.560317,33.542515 q 0.839742,0 1.270379,1.378038 0.861274,2.583822 1.227315,2.583822 0.279914,0 0.58136,-0.430637 6.05045,-9.689331 11.196561,-15.675185 1.334975,-1.550293 4.241775,-1.550293 0.689019,0 0.925869,0.129191 0.23685,0.129191 0.23685,0.322977 0,0.301446 -0.710551,1.184252 -8.311293,9.990778 -15.416803,21.101211 -0.495232,0.775147 -2.023994,0.775147 -1.550293,0 -1.830207,-0.129191 -0.732083,-0.322978 -1.722548,-3.294373 -1.119656,-3.294373 -1.119656,-4.134115 0,-0.904337 1.50723,-1.74408 0.925869,-0.516764 1.63642,-0.516764 z"
         style="font-size:44.09722519px;fill:#00a500;fill-opacity:1;stroke-width:0.26458332"
         id="path949" />
    </g>
    <g
       id="text4627"
       style="font-style:normal;font-weight:normal;font-size:10.58333302px;line-height:1.25;font-family:sans-serif;letter-spacing:0px;word-spacing:0px;fill:#000000;fill-opacity:1;stroke:none;stroke-width:0.26458332"
       aria-label="✗">
      <path
         d="m 36.326172,86.210938 c -0.160772,-10e-7 -0.378689,0.138455 -0.654297,0.414062 -2.342665,2.342665 -4.330259,4.570601 -5.960937,6.683594 -1.010562,-1.745516 -1.825196,-3.582465 -2.445313,-5.511719 -0.114836,-0.344509 -0.355179,-0.517578 -0.722656,-0.517578 -0.321542,0 -0.586263,0.09165 -0.792969,0.275391 -0.149287,0.137803 -0.275554,0.304777 -0.378906,0.5 -0.264124,-0.333026 -0.482042,-0.5 -0.654297,-0.5 -0.183738,0 -0.385326,0.14869 -0.603516,0.447265 -0.206706,0.298575 -0.310547,0.528682 -0.310547,0.689453 0,0.114837 0.0529,0.373463 0.15625,0.775391 0.459346,1.802933 1.388057,4.368959 2.789063,7.699219 -2.618273,3.054654 -5.098741,6.408744 -7.441406,10.060544 -0.310058,0.48232 -0.493362,0.80408 -0.550782,0.96485 -0.12632,0.35599 -0.189453,0.99341 -0.189453,1.91211 0,0.7005 0.29324,1.21165 0.878906,1.5332 0.04594,0.48231 0.276042,0.72266 0.689454,0.72266 0.872757,0 1.491897,-0.30957 1.859375,-0.92969 2.54937,-4.29489 4.81192,-7.72845 6.787109,-10.30078 1.469907,2.3886 2.893446,4.46589 4.271484,6.23437 0.229673,0.29857 0.494394,0.44922 0.792969,0.44922 0.137803,0 0.355722,-0.10384 0.654297,-0.31055 0.25264,-0.18373 0.378906,-0.44845 0.378906,-0.79297 0,-0.22967 -0.02243,-0.41298 -0.06836,-0.55078 l 0.550781,-0.3789 c 0.344509,-0.28709 0.517578,-0.56205 0.517578,-0.82618 0,-0.13779 -0.06923,-0.3211 -0.207031,-0.55078 -1.642162,-2.74459 -2.929199,-5.255528 -3.859375,-7.529293 2.250796,-3.11207 4.570384,-5.965241 6.958984,-8.560547 0.25264,-0.264124 0.378907,-0.551269 0.378907,-0.861328 0,-0.241157 -0.09165,-0.459075 -0.275391,-0.654297 -0.298575,-0.310059 -0.532823,-0.464844 -0.705078,-0.464844 -0.195222,0 -0.459943,0.29324 -0.792969,0.878907 -0.206706,-0.298576 -0.408293,-0.540872 -0.603515,-0.72461 -0.183738,-0.183739 -0.332429,-0.275391 -0.447266,-0.27539 z"
         id="path943"
         style="font-size:35.27778244px;fill:#a50000;fill-opacity:1;stroke-width:0.26458332" />
    </g>
  </g>
</svg>
