<?xml version="1.0" encoding="UTF-8" standalone="no"?>
<svg
   xmlns:dc="http://purl.org/dc/elements/1.1/"
   xmlns:cc="http://creativecommons.org/ns#"
   xmlns:rdf="http://www.w3.org/1999/02/22-rdf-syntax-ns#"
   xmlns:svg="http://www.w3.org/2000/svg"
   xmlns="http://www.w3.org/2000/svg"
   id="svg8"
   version="1.1"
   viewBox="0 0 128.27229 29.745994"
   height="29.745995mm"
   width="128.27229mm">
  <defs
     id="defs2" />
  <metadata
     id="metadata5">
    <rdf:RDF>
      <cc:Work
         rdf:about="">
        <dc:format>image/svg+xml</dc:format>
        <dc:type
           rdf:resource="http://purl.org/dc/dcmitype/StillImage" />
        <dc:title></dc:title>
      </cc:Work>
    </rdf:RDF>
  </metadata>
  <g
     transform="translate(3.4070092,-39.665795)"
     id="layer1">
    <g
       id="flowRoot815"
       style="font-style:normal;font-weight:normal;font-size:40px;line-height:1.25;font-family:sans-serif;letter-spacing:0px;word-spacing:0px;fill:#000000;fill-opacity:1;stroke:none"
       transform="matrix(0.37218136,0,0,0.37218136,-37.959987,-22.064625)"
       aria-label="(mimic)=&gt;{fn}">
      <path
         id="path820"
         style="fill:#8c8c8c;fill-opacity:1"
         d="m 123.00586,189.40681 h 3.76953 q -8.76953,7.34375 -8.76953,17.4414 0,10.17578 8.73047,17.44141 h -3.73047 q -8.67188,-6.89453 -8.67188,-17.40235 0,-10.39062 8.67188,-17.48046 z" />
      <path
         id="path822"
         style="font-style:normal;font-variant:normal;font-weight:normal;font-stretch:normal;font-family:'Droid Sans Mono';-inkscape-font-specification:'Droid Sans Mono';fill:#141414;fill-opacity:1"
         d="M 151.63867,217.96149 V 204.1529 q 0,-2.85156 -0.52734,-3.96484 -0.50781,-1.11329 -1.71875,-1.11329 -1.69922,0 -2.48047,1.6211 -0.76172,1.62109 -0.76172,5.42969 v 11.83593 h -3.14453 V 204.1529 q 0,-5.07813 -2.44141,-5.07813 -1.64062,0 -2.34375,1.5625 -0.70312,1.54297 -0.70312,6.21094 v 11.11328 h -3.16406 v -21.44531 h 2.48046 l 0.52735,2.89063 h 0.19531 q 1.30859,-3.28125 3.92578,-3.28125 3.1836,0 4.16016,3.55468 h 0.11719 q 1.48437,-3.55468 4.27734,-3.55468 2.5,0 3.63281,1.8164 1.13281,1.79688 1.13281,6.01563 v 14.0039 z" />
      <path
         id="path824"
         style="font-style:normal;font-variant:normal;font-weight:normal;font-stretch:normal;font-family:'Droid Sans Mono';-inkscape-font-specification:'Droid Sans Mono';fill:#141414;fill-opacity:1"
         d="m 168.9043,187.68806 q 2.07031,0 2.07031,2.22656 0,1.13281 -0.625,1.69922 -0.60547,0.54687 -1.44531,0.54687 -2.08985,0 -2.08985,-2.24609 0,-2.22656 2.08985,-2.22656 z m -1.79688,11.64062 -5.2539,-0.41016 v -2.40234 h 8.80859 v 18.65234 l 6.875,0.39063 v 2.40234 h -17.14844 v -2.40234 l 6.71875,-0.39063 z" />
      <path
         id="path826"
         style="font-style:normal;font-variant:normal;font-weight:normal;font-stretch:normal;font-family:'Droid Sans Mono';-inkscape-font-specification:'Droid Sans Mono';fill:#141414;fill-opacity:1"
         d="M 199.60742,217.96149 V 204.1529 q 0,-2.85156 -0.52734,-3.96484 -0.50781,-1.11329 -1.71875,-1.11329 -1.69922,0 -2.48047,1.6211 -0.76172,1.62109 -0.76172,5.42969 v 11.83593 h -3.14453 V 204.1529 q 0,-5.07813 -2.44141,-5.07813 -1.64062,0 -2.34375,1.5625 -0.70312,1.54297 -0.70312,6.21094 v 11.11328 h -3.16406 v -21.44531 h 2.48046 l 0.52735,2.89063 h 0.19531 q 1.30859,-3.28125 3.92578,-3.28125 3.1836,0 4.16016,3.55468 h 0.11719 q 1.48437,-3.55468 4.27734,-3.55468 2.5,0 3.63281,1.8164 1.13281,1.79688 1.13281,6.01563 v 14.0039 z" />
      <path
         id="path828"
         style="font-style:normal;font-variant:normal;font-weight:normal;font-stretch:normal;font-family:'Droid Sans Mono';-inkscape-font-specification:'Droid Sans Mono';fill:#141414;fill-opacity:1"
         d="m 216.87305,187.68806 q 2.07031,0 2.07031,2.22656 0,1.13281 -0.625,1.69922 -0.60547,0.54687 -1.44531,0.54687 -2.08985,0 -2.08985,-2.24609 0,-2.22656 2.08985,-2.22656 z m -1.79688,11.64062 -5.2539,-0.41016 v -2.40234 h 8.80859 v 18.65234 l 6.875,0.39063 v 2.40234 h -17.14844 v -2.40234 l 6.71875,-0.39063 z" />
      <path
         id="path830"
         style="font-style:normal;font-variant:normal;font-weight:normal;font-stretch:normal;font-family:'Droid Sans Mono';-inkscape-font-specification:'Droid Sans Mono';fill:#141414;fill-opacity:1"
         d="m 249.2168,197.2779 -1.21094,3.08594 q -2.92969,-1.11328 -5.23438,-1.11328 -7.24609,0 -7.24609,8.0664 0,7.92969 7.05078,7.92969 3.06641,0 6.26953,-1.21094 v 3.125 q -2.61718,1.19141 -6.42578,1.19141 -5.01953,0 -7.79297,-2.83203 -2.77343,-2.85157 -2.77343,-8.16407 0,-5.48828 2.83203,-8.35937 2.83203,-2.87109 7.96875,-2.87109 3.47656,0 6.5625,1.15234 z" />
      <path
         id="path832"
         style="fill:#8c8c8c;fill-opacity:1"
         d="m 262.0293,224.28962 h -3.71094 q 8.71094,-7.2461 8.71094,-17.44141 0,-10.11719 -8.75,-17.4414 h 3.75 q 8.6914,7.05078 8.6914,17.48046 0,10.54688 -8.6914,17.40235 z" />
      <path
         id="path834"
         style="fill:#8c8c8c;fill-opacity:1"
         d="m 279.43164,201.32087 v -2.91016 h 18.02734 v 2.91016 z m 0,8.00781 v -2.92969 h 18.02734 v 2.92969 z" />
      <path
         id="path836"
         style="fill:#8c8c8c;fill-opacity:1"
         d="m 303.41602,210.52009 13.94531,-6.67969 -13.94531,-6.67969 v -3.125 l 18.02734,8.8086 v 1.99218 l -18.02734,8.8086 z" />
      <path
         id="path838"
         style="fill:#8c8c8c;fill-opacity:1"
         d="m 338.98242,218.27399 q 0,1.58203 1.09375,2.30469 1.09375,0.74219 3.90625,0.78125 v 2.92969 q -8.55469,-0.11719 -8.55469,-5.72266 v -6.52344 q 0,-3.6914 -6.60156,-3.6914 v -3.02735 q 6.60156,0 6.60156,-3.6914 v -6.50391 q 0,-5.60547 8.55469,-5.72265 v 2.91015 q -2.8125,0.0391 -3.90625,0.78125 -1.09375,0.72266 -1.09375,2.30469 v 6.48437 q 0,4.04297 -4.55078,4.84375 v 0.23438 q 4.55078,0.80078 4.55078,4.84375 z" />
      <path
         id="path840"
         style="font-style:normal;font-variant:normal;font-weight:normal;font-stretch:normal;font-family:'Droid Sans Mono';-inkscape-font-specification:'Droid Sans Mono';fill:#141414;fill-opacity:1"
         d="m 368.80664,199.19196 h -7.59766 v 18.76953 h -3.55468 v -18.76953 h -6.19141 v -2.14844 l 6.19141,-0.64453 v -1.875 q 0,-3.76953 1.75781,-5.46875 1.75781,-1.69922 5.83984,-1.69922 2.51953,0 4.92188,0.6836 l -0.80078,2.79297 q -2.03125,-0.54688 -4.04297,-0.54688 -2.40235,0 -3.26172,0.97656 -0.85938,0.97657 -0.85938,3.22266 v 2.03125 h 7.59766 z" />
      <path
         id="path842"
         style="font-style:normal;font-variant:normal;font-weight:normal;font-stretch:normal;font-family:'Droid Sans Mono';-inkscape-font-specification:'Droid Sans Mono';fill:#141414;fill-opacity:1"
         d="M 389.72461,217.96149 V 204.1529 q 0,-5.07813 -4.64844,-5.07813 -5.99609,0 -5.99609,7.77344 v 11.11328 h -3.55469 v -21.44531 h 2.87109 l 0.52735,2.89063 h 0.19531 q 2.01172,-3.28125 6.5625,-3.28125 7.59766,0 7.59766,7.83203 v 14.0039 z" />
      <path
         id="path844"
         style="fill:#8c8c8c;fill-opacity:1"
         d="m 405.81836,211.80915 q 0,-4.04297 4.57031,-4.84375 v -0.23438 q -4.57031,-0.80078 -4.57031,-4.84375 v -6.48437 q 0,-1.58203 -1.11328,-2.32422 -1.09375,-0.74219 -3.88672,-0.76172 v -2.91015 q 8.57422,0.11718 8.57422,5.72265 v 6.50391 q 0,3.6914 6.60156,3.6914 v 3.02735 q -6.60156,0 -6.60156,3.6914 v 6.52344 q 0,5.60547 -8.57422,5.72266 v -2.92969 q 2.79297,-0.0195 3.88672,-0.76172 1.11328,-0.74219 1.11328,-2.32422 z" />
    </g>
  </g>
</svg>
