<?xml version="1.0" encoding="UTF-8" standalone="no"?>
<!-- Created with Inkscape (http://www.inkscape.org/) -->

<svg
   width="128.27229mm"
   height="29.745995mm"
   viewBox="0 0 128.27229 29.745994"
   version="1.1"
   id="svg8"
   xmlns="http://www.w3.org/2000/svg"
   xmlns:svg="http://www.w3.org/2000/svg"
   xmlns:rdf="http://www.w3.org/1999/02/22-rdf-syntax-ns#"
   xmlns:cc="http://creativecommons.org/ns#"
   xmlns:dc="http://purl.org/dc/elements/1.1/">
  <defs
     id="defs2" />
  <metadata
     id="metadata5">
    <rdf:RDF>
      <cc:Work
         rdf:about="">
        <dc:format>image/svg+xml</dc:format>
        <dc:type
           rdf:resource="http://purl.org/dc/dcmitype/StillImage" />
      </cc:Work>
    </rdf:RDF>
  </metadata>
  <g
     id="layer1"
     transform="translate(3.4070092,-39.665795)">
    <g
       aria-label="(mimic)=&gt;{fn}"
       transform="matrix(0.37218136,0,0,0.37218136,-37.959987,-22.064625)"
       id="flowRoot815"
       style="font-size:40px;letter-spacing:0px;word-spacing:0px">
      <path
         d="m 123.00586,189.40681 h 3.76953 q -8.76953,7.34375 -8.76953,17.4414 0,10.17578 8.73047,17.44141 h -3.73047 q -8.67188,-6.89453 -8.67188,-17.40235 0,-10.39062 8.67188,-17.48046 z"
         style="fill:#737373"
         id="path4986" />
      <path
         d="M 151.6582,217.96149 V 204.1529 q 0,-2.85156 -0.52734,-3.96484 -0.50781,-1.11329 -1.71875,-1.11329 -1.69922,0 -2.48047,1.6211 -0.76172,1.62109 -0.76172,5.42969 v 11.83593 h -3.14453 V 204.1529 q 0,-5.07813 -2.44141,-5.07813 -1.64062,0 -2.34375,1.5625 -0.70312,1.54297 -0.70312,6.21094 v 11.11328 h -3.16406 v -21.44531 h 2.48047 l 0.52734,2.89063 h 0.19531 q 1.3086,-3.28125 3.92578,-3.28125 3.1836,0 4.16016,3.55468 h 0.11719 q 1.48437,-3.55468 4.27734,-3.55468 2.5,0 3.63281,1.8164 1.13282,1.79688 1.13282,6.01563 v 14.0039 z"
         style="fill:#ebebeb"
         id="path4988" />
      <path
         d="m 168.94336,187.68806 q 2.07031,0 2.07031,2.22656 0,1.13281 -0.625,1.69922 -0.60547,0.54687 -1.44531,0.54687 -2.08984,0 -2.08984,-2.24609 0,-2.22656 2.08984,-2.22656 z m -1.79688,11.64062 -5.2539,-0.41016 v -2.40234 h 8.80859 v 18.65234 l 6.875,0.39063 v 2.40234 h -17.14844 v -2.40234 l 6.71875,-0.39063 z"
         style="fill:#ebebeb"
         id="path4990" />
      <path
         d="M 199.66602,217.96149 V 204.1529 q 0,-2.85156 -0.52735,-3.96484 -0.50781,-1.11329 -1.71875,-1.11329 -1.69922,0 -2.48047,1.6211 -0.76172,1.62109 -0.76172,5.42969 v 11.83593 H 191.0332 V 204.1529 q 0,-5.07813 -2.4414,-5.07813 -1.64063,0 -2.34375,1.5625 -0.70313,1.54297 -0.70313,6.21094 v 11.11328 h -3.16406 v -21.44531 h 2.48047 l 0.52734,2.89063 h 0.19531 q 1.3086,-3.28125 3.92579,-3.28125 3.18359,0 4.16015,3.55468 h 0.11719 q 1.48437,-3.55468 4.27734,-3.55468 2.5,0 3.63282,1.8164 1.13281,1.79688 1.13281,6.01563 v 14.0039 z"
         style="fill:#ebebeb"
         id="path4992" />
      <path
         d="m 216.95117,187.68806 q 2.07031,0 2.07031,2.22656 0,1.13281 -0.625,1.69922 -0.60546,0.54687 -1.44531,0.54687 -2.08984,0 -2.08984,-2.24609 0,-2.22656 2.08984,-2.22656 z m -1.79687,11.64062 -5.25391,-0.41016 v -2.40234 h 8.80859 v 18.65234 l 6.875,0.39063 v 2.40234 h -17.14843 v -2.40234 l 6.71875,-0.39063 z"
         style="fill:#ebebeb"
         id="path4994" />
      <path
         d="m 249.31445,197.2779 -1.21093,3.08594 q -2.92969,-1.11328 -5.23438,-1.11328 -7.24609,0 -7.24609,8.0664 0,7.92969 7.05078,7.92969 3.0664,0 6.26953,-1.21094 v 3.125 q -2.61719,1.19141 -6.42578,1.19141 -5.01953,0 -7.79297,-2.83203 -2.77344,-2.85157 -2.77344,-8.16407 0,-5.48828 2.83203,-8.35937 2.83203,-2.87109 7.96875,-2.87109 3.47657,0 6.5625,1.15234 z"
         style="fill:#ebebeb"
         id="path4996" />
      <path
         d="m 262.14648,224.28962 h -3.71093 q 8.71093,-7.2461 8.71093,-17.44141 0,-10.11719 -8.75,-17.4414 h 3.75 q 8.69141,7.05078 8.69141,17.48046 0,10.54688 -8.69141,17.40235 z"
         style="fill:#737373"
         id="path4998" />
      <path
         d="m 279.56836,201.32087 v -2.91016 h 18.02734 v 2.91016 z m 0,8.00781 v -2.92969 h 18.02734 v 2.92969 z"
         style="fill:#737373"
         id="path5000" />
      <path
         d="m 303.57227,210.52009 13.94531,-6.67969 -13.94531,-6.67969 v -3.125 l 18.02734,8.8086 v 1.99218 l -18.02734,8.8086 z"
         style="fill:#737373"
         id="path5002" />
      <path
         d="m 339.1582,218.27399 q 0,1.58203 1.09375,2.30469 1.09375,0.74219 3.90625,0.78125 v 2.92969 q -8.55468,-0.11719 -8.55468,-5.72266 v -6.52344 q 0,-3.6914 -6.60157,-3.6914 v -3.02735 q 6.60157,0 6.60157,-3.6914 v -6.50391 q 0,-5.60547 8.55468,-5.72265 v 2.91015 q -2.8125,0.0391 -3.90625,0.78125 -1.09375,0.72266 -1.09375,2.30469 v 6.48437 q 0,4.04297 -4.55078,4.84375 v 0.23438 q 4.55078,0.80078 4.55078,4.84375 z"
         style="fill:#737373"
         id="path5004" />
      <path
         d="m 369.00195,199.19196 h -7.59765 v 18.76953 h -3.55469 v -18.76953 h -6.19141 v -2.14844 l 6.19141,-0.64453 v -1.875 q 0,-3.76953 1.75781,-5.46875 1.75781,-1.69922 5.83985,-1.69922 2.51953,0 4.92187,0.6836 l -0.80078,2.79297 q -2.03125,-0.54688 -4.04297,-0.54688 -2.40234,0 -3.26172,0.97656 -0.85937,0.97657 -0.85937,3.22266 v 2.03125 h 7.59765 z"
         style="fill:#ebebeb"
         id="path5006" />
      <path
         d="M 389.93945,217.96149 V 204.1529 q 0,-5.07813 -4.64843,-5.07813 -5.9961,0 -5.9961,7.77344 v 11.11328 h -3.55469 v -21.44531 h 2.8711 l 0.52734,2.89063 h 0.19531 q 2.01172,-3.28125 6.5625,-3.28125 7.59766,0 7.59766,7.83203 v 14.0039 z"
         style="fill:#ebebeb"
         id="path5008" />
      <path
         d="m 406.05273,211.80915 q 0,-4.04297 4.57032,-4.84375 v -0.23438 q -4.57032,-0.80078 -4.57032,-4.84375 v -6.48437 q 0,-1.58203 -1.11328,-2.32422 -1.09375,-0.74219 -3.88672,-0.76172 v -2.91015 q 8.57422,0.11718 8.57422,5.72265 v 6.50391 q 0,3.6914 6.60157,3.6914 v 3.02735 q -6.60157,0 -6.60157,3.6914 v 6.52344 q 0,5.60547 -8.57422,5.72266 v -2.92969 q 2.79297,-0.0195 3.88672,-0.76172 1.11328,-0.74219 1.11328,-2.32422 z"
         style="fill:#737373"
         id="path5010" />
    </g>
  </g>
</svg>
