<?xml version="1.0" encoding="UTF-8" standalone="no"?>
<!-- Created with Inkscape (http://www.inkscape.org/) -->

<svg
   width="133.52078mm"
   height="58.999718mm"
   viewBox="0 0 133.52078 58.999718"
   version="1.1"
   id="svg5"
   sodipodi:docname="declarative-merge_inkscape.svg"
   inkscape:version="1.1.2 (0a00cf5339, 2022-02-04)"
   xmlns:inkscape="http://www.inkscape.org/namespaces/inkscape"
   xmlns:sodipodi="http://sodipodi.sourceforge.net/DTD/sodipodi-0.dtd"
   xmlns="http://www.w3.org/2000/svg"
   xmlns:svg="http://www.w3.org/2000/svg">
  <sodipodi:namedview
     id="namedview7"
     pagecolor="#ffffff"
     bordercolor="#666666"
     borderopacity="1.0"
     inkscape:pageshadow="2"
     inkscape:pageopacity="0.0"
     inkscape:pagecheckerboard="0"
     inkscape:document-units="mm"
     showgrid="false"
     inkscape:zoom="1.5076352"
     inkscape:cx="306.77182"
     inkscape:cy="165.49096"
     inkscape:window-width="1846"
     inkscape:window-height="1016"
     inkscape:window-x="74"
     inkscape:window-y="27"
     inkscape:window-maximized="1"
     inkscape:current-layer="layer1"
     showguides="true"
     fit-margin-top="7"
     fit-margin-left="7"
     fit-margin-right="7"
     fit-margin-bottom="7" />
  <defs
     id="defs2">
    <rect
       x="77.980888"
       y="166.68376"
       width="871.45978"
       height="236.11699"
       id="rect9867" />
  </defs>
  <g
     inkscape:label="Layer 1"
     inkscape:groupmode="layer"
     id="layer1"
     transform="translate(-7.310551,-39.986012)">
    <path
       d="m 19.901376,63.679466 q 0.829734,-0.256823 1.402645,-0.809979 0.592667,-0.5334 0.948267,-1.2446 h -1.027289 v -5.74887 q -0.454378,-0.335846 -1.007534,-0.5334 -0.553156,-0.217313 -1.224845,-0.256823 -0.217311,-0.01976 -0.434622,-0.01976 -0.237067,0 -0.454378,0 h -1.264356 v 8.751715 h 2.173112 q 0.217311,0 0.454378,-0.05927 0.217311,-0.03951 0.434622,-0.09878 z m 9.779005,-9.028295 q 0,-0.889 -0.256823,-1.63971 -0.256823,-0.770467 -0.75071,-1.34338 -0.474133,-0.592666 -1.185336,-0.92851 -0.691444,-0.3556 -1.580444,-0.395113 -0.217311,-0.01976 -0.454378,-0.01976 -0.217311,0 -0.434622,0 h -1.264357 v 4.405492 q 0.730956,0.829734 1.145823,1.936046 0.414867,1.086557 0.454378,2.410177 h 0.572911 q 0.217312,0 0.434623,-0.03951 0.237066,-0.05927 0.454379,-0.118533 v 0.01976 q 0.691443,-0.197556 1.224843,-0.632179 0.5334,-0.434621 0.889,-1.007534 0.375357,-0.592666 0.553157,-1.264356 0.197556,-0.67169 0.197556,-1.38289 z m 2.607733,0.05927 q 0,1.639713 -0.513643,2.923823 -0.513646,1.284113 -1.442157,2.173113 -0.928512,0.889 -2.232379,1.363133 -1.303867,0.474136 -2.904067,0.474136 h -0.09878 q -0.612423,2.27189 -2.410179,3.496733 -1.778001,1.2446 -4.405491,1.2446 h -2.331157 q -0.158044,0 -0.296333,-0.01976 -0.138289,0 -0.296334,0 H 14.310551 V 52.517561 h 3.47698 q 0.118533,0 0.256822,0 0.118534,-0.01976 0.237067,-0.01976 1.619956,0 2.943579,0.513646 V 47.77624 h 3.476979 q 0.118534,0 0.237067,0 0.138289,-0.01976 0.256823,-0.01976 1.580444,0 2.884313,0.49389 1.303867,0.474133 2.232377,1.382889 0.948267,0.908757 1.461913,2.192867 0.513643,1.284113 0.513643,2.884313 z m -0.237066,0 q 0,-1.540934 -0.493887,-2.785534 -0.49389,-1.244599 -1.402647,-2.113846 -0.908756,-0.889 -2.173112,-1.343379 -1.2446,-0.474134 -2.785534,-0.474134 -0.237067,0 -0.49389,0.01976 -0.237066,0 -0.454378,0 h -2.785534 v 13.374518 h 0.809978 q 0.296334,0 0.572911,0 0.276578,0.01976 0.5334,0.01976 h 1.817513 q 1.540934,0 2.80529,-0.454377 1.264357,-0.454377 2.153356,-1.303866 0.908757,-0.869247 1.402647,-2.113847 0.493887,-1.2446 0.493887,-2.825046 z m -2.1336,-0.05927 q 0,0.730957 -0.197557,1.442157 -0.197556,0.7112 -0.592666,1.323623 -0.375357,0.612423 -0.948267,1.0668 -0.572913,0.454379 -1.303867,0.671689 -0.217312,0.05927 -0.474134,0.118534 -0.237067,0.03951 -0.474134,0.03951 h -2.410179 v -9.225849 h 1.501424 q 0.217311,0 0.454378,0 0.237066,0 0.454377,0.01976 h -0.01976 q 0.948268,0.03951 1.679224,0.414866 0.750711,0.3556 1.264357,0.968023 0.5334,0.592667 0.79022,1.4224 0.27658,0.80998 0.27658,1.73849 z"
       id="path67338"
       style="font-size:74.6667px;font-family:Break;-inkscape-font-specification:Break;white-space:pre;fill:#bd0058;stroke-width:0.264583" />
    <path
       d="m 30.01618,57.73304 h 4.365979 V 54.888238 H 30.01618 Z m 0,6.10447 h 5.827889 v 2.528712 H 27.46771 V 52.359528 h 6.914449 v -4.741336 h 8.376359 v 2.52871 h -5.827892 v 2.844802 h 4.543779 v 2.568224 h -4.543779 v 3.536246 h 5.827892 v 2.528713 H 34.382159 V 60.301263 H 30.01618 Z m 6.677379,-8.514649 h 4.54378 v -2.09409 h -4.54378 v -3.318936 h 5.827893 V 47.855258 H 34.619226 V 61.38782 h 7.902226 v -2.05458 h -5.827893 z"
       id="path67340"
       style="font-size:74.6667px;font-family:Break;-inkscape-font-specification:Break;white-space:pre;fill:#bd0058;stroke-width:0.264583" />
    <path
       d="m 48.487612,64.19311 q -2.390423,2.173112 -5.037669,2.173112 -1.46191,0 -2.746023,-0.553156 -1.284113,-0.5334 -2.232379,-1.481667 -0.948267,-0.948266 -1.501423,-2.232379 -0.553154,-1.264357 -0.553154,-2.746023 0,-1.461913 0.553154,-2.726269 0.553156,-1.284111 1.521179,-2.232377 0.948267,-0.94827 2.23238,-1.48167 1.28411,-0.553153 2.746023,-0.553153 h 0.21731 q 0.3556,-1.02729 1.007533,-1.896536 0.651936,-0.889 1.52118,-1.501423 0.869243,-0.632177 1.936046,-0.987777 1.0668,-0.3556 2.232377,-0.3556 2.647246,0 4.998159,2.113843 l -0.829733,0.84949 -0.98778,0.948267 q -0.79022,-0.651934 -1.619956,-1.007534 -0.809977,-0.375356 -1.56069,-0.375356 -0.7112,0 -1.363134,0.217313 -0.651933,0.197556 -1.205089,0.57291 -0.553154,0.375356 -0.968023,0.889 -0.414867,0.513646 -0.671687,1.126069 1.185333,0.5334 2.291643,1.521177 l -0.829733,0.84949 -0.987777,0.948267 q -0.335846,-0.256821 -0.651933,-0.474134 0.197553,0.730957 0.592666,1.34338 0.414867,0.592666 0.987777,1.027289 0.572913,0.434621 1.264356,0.691444 0.7112,0.237067 1.52118,0.237067 0.75071,0 1.580444,-0.375357 0.849489,-0.375354 1.639712,-1.027289 l 1.817513,1.758246 q -2.390423,2.173113 -5.037669,2.173113 -1.442156,0 -2.706513,-0.513647 -1.2446,-0.513643 -2.192866,-1.4224 -0.94827,-0.908756 -1.52118,-2.1336 -0.553156,-1.2446 -0.612423,-2.667002 -0.889,0.03951 -1.679223,0.395113 -0.809977,0.3556 -1.402644,0.968023 -0.612423,0.592666 -0.948269,1.402643 -0.3556,0.790223 -0.3556,1.69898 0,0.948266 0.3556,1.778 0.335846,0.809979 0.948269,1.402646 0.612421,0.61242 1.442157,0.948267 0.809977,0.3556 1.758243,0.3556 0.750713,0 1.580446,-0.375357 0.84949,-0.375356 1.639711,-1.02729 z m 5.07718,-6.183493 q -0.75071,0.63218 -1.580444,0.98778 -0.809979,0.335843 -1.619956,0.335843 -1.007533,0 -1.87678,-0.3556 -0.849489,-0.375356 -1.501423,-1.007533 -0.632176,-0.632179 -1.007533,-1.481667 -0.3556,-0.869246 -0.3556,-1.876779 0,-0.968023 0.375357,-1.817513 0.375353,-0.869244 1.027287,-1.501423 0.651936,-0.651933 1.501423,-1.007533 0.869246,-0.375357 1.857023,-0.375357 0.809979,0 1.619956,0.3556 0.80998,0.335846 1.56069,0.94827 0.395113,-0.375357 0.730956,-0.7112 0.335847,-0.355603 0.750713,-0.750713 -2.113846,-1.896534 -4.662315,-1.896534 -1.4224,0 -2.667,0.5334 -1.224846,0.513644 -2.153357,1.442157 -0.928512,0.908756 -1.461912,2.153356 -0.5334,1.224844 -0.5334,2.62749 0,1.4224 0.5334,2.667 0.5334,1.224846 1.442156,2.153356 0.928513,0.908757 2.153356,1.442157 1.2446,0.513646 2.667003,0.513646 2.568223,0 4.682069,-1.936046 z"
       id="path67342"
       style="font-size:74.6667px;font-family:Break;-inkscape-font-specification:Break;white-space:pre;fill:#bd0058;stroke-width:0.264583" />
    <path
       d="m 52.458439,63.83751 h 4.840116 v 2.528712 H 49.890216 V 52.359528 h 2.568223 z m 6.914449,-4.741336 h 4.840113 v 2.528713 H 56.804665 V 47.618192 h 2.568223 z M 59.135822,47.855258 h -2.09409 V 61.38782 h 6.934202 v -2.05458 h -4.840112 z"
       id="path67344"
       style="font-size:74.6667px;font-family:Break;-inkscape-font-specification:Break;white-space:pre;fill:#bd0058;stroke-width:0.264583" />
    <path
       d="m 63.146159,60.89393 h 2.133602 q -0.276579,-0.691443 -0.513646,-1.224843 -0.237067,-0.553157 -0.553156,-1.30387 z m 6.914448,-4.741336 h 2.1336 q -0.276576,-0.691443 -0.513643,-1.224843 -0.237067,-0.553157 -0.553157,-1.30387 z m -11.952118,10.213628 2.568224,-6.124225 q 0.414866,-0.968023 0.869246,-2.05458 0.434623,-1.086556 0.908756,-2.192866 0.454377,-1.106313 0.908757,-2.19287 0.43462,-1.086553 0.849487,-2.074333 l 2.469446,5.926669 0.908756,-2.153356 q 0.414867,-0.968023 0.84949,-2.05458 0.454377,-1.086553 0.908756,-2.192866 0.474134,-1.106313 0.908754,-2.192867 0.45438,-1.086556 0.869246,-2.074336 0.395111,0.948267 0.809977,1.955803 0.434623,1.007533 0.84949,2.034823 0.434623,1.007533 0.84949,1.99531 0.414867,0.98778 0.809977,1.896536 l 2.844802,6.756403 h -2.825046 l -1.224843,-2.98309 h -4.247447 l -0.928512,2.27189 2.3114,5.452535 h -2.825044 l -1.224846,-2.983089 h -4.247446 q -0.276577,0.691443 -0.592667,1.481666 -0.335846,0.809977 -0.612423,1.501423 z m 9.522183,-4.978402 1.205089,-2.98309 h 4.563536 l 1.224846,2.98309 h 2.3114 q -0.750713,-1.778 -1.481666,-3.47698 -0.7112,-1.698979 -1.422403,-3.397956 -0.7112,-1.69898 -1.442156,-3.397959 -0.730954,-1.718733 -1.461911,-3.496733 -1.442156,3.516489 -2.864556,6.894692 -1.422403,3.358446 -2.884313,6.874936 z m 3.496735,-8.415872 1.402644,3.417713 h -2.80529 z"
       id="path67346"
       style="font-size:74.6667px;font-family:Break;-inkscape-font-specification:Break;white-space:pre;fill:#bd0058;stroke-width:0.264583" />
    <path
       d="m 80.787863,54.098017 h 0.395113 q 0.3556,0.01976 0.7112,0.03951 0.3556,0 0.730957,0 0.987777,0 1.540933,-0.45438 0.57291,-0.474133 0.57291,-1.501423 0,-0.96802 -0.57291,-1.50142 -0.553156,-0.553157 -1.540933,-0.553157 h -1.83727 z m -6.914446,4.741334 h 0.395111 q 0.355599,0.01976 0.711199,0.03951 0.3556,0 0.730957,0 0.987779,0 1.56069,-0.454379 0.553156,-0.474133 0.553156,-1.501423 0,-0.968021 -0.553156,-1.501423 -0.572911,-0.553154 -1.56069,-0.553154 h -1.837267 z m 1.837267,-6.479823 q 1.481667,0 2.568223,0.632176 v -5.373512 h 4.346226 q 1.007533,0 1.857023,0.316087 0.869243,0.296333 1.481666,0.869246 0.632177,0.57291 0.987777,1.402644 0.355603,0.829736 0.355603,1.896535 0,1.857024 -0.829736,2.94358 -0.829733,1.086556 -2.587977,1.481667 l 3.87209,5.096936 H 84.758733 L 80.94591,56.646484 h -0.158047 v 4.978403 h -2.508956 v -0.80998 q -0.296333,0.158046 -0.612423,0.27658 -0.316087,0.09878 -0.691444,0.1778 l 3.87209,5.096935 H 77.844284 L 74.031461,61.38782 h -0.158044 v 4.978402 H 71.364461 V 52.359528 Z m 2.80529,-4.50427 V 61.38782 h 2.034823 v -4.978403 h 0.513646 l 3.812823,4.978403 h 2.41018 l -3.83258,-5.017913 q 3.615267,-0.612423 3.615267,-4.267203 0,-1.007533 -0.335844,-1.778002 -0.335843,-0.790221 -0.92851,-1.343377 -0.592669,-0.553156 -1.402646,-0.829733 -0.809977,-0.296334 -1.778,-0.296334 z m 2.034823,2.034823 h 2.074336 q 1.086556,0 1.718733,0.612424 0.632177,0.592666 0.632177,1.67922 0,1.145823 -0.632177,1.679223 -0.632177,0.513646 -1.718733,0.513646 -0.375357,0 -0.730957,0 -0.3556,-0.01976 -0.7112,-0.03951 h -0.217313 q -0.03951,0 -0.197553,0 -0.158047,-0.01976 -0.217313,-0.01976 z"
       id="path67348"
       style="font-size:74.6667px;font-family:Break;-inkscape-font-specification:Break;white-space:pre;fill:#bd0058;stroke-width:0.264583" />
    <path
       d="m 86.398422,60.89393 h 2.1336 q -0.276577,-0.691443 -0.513644,-1.224843 -0.237067,-0.553157 -0.553156,-1.30387 z m 6.914448,-4.741336 h 2.1336 q -0.276576,-0.691443 -0.513643,-1.224843 -0.237069,-0.553157 -0.553157,-1.30387 z m -11.952118,10.213628 2.568224,-6.124225 q 0.414866,-0.968023 0.869246,-2.05458 0.43462,-1.086556 0.908756,-2.192866 0.454377,-1.106313 0.908754,-2.19287 0.434623,-1.086553 0.84949,-2.074333 l 2.469446,5.926669 0.908756,-2.153356 q 0.414867,-0.968023 0.84949,-2.05458 0.454377,-1.086553 0.908754,-2.192866 0.474136,-1.106313 0.908756,-2.192867 0.45438,-1.086556 0.869246,-2.074336 0.395111,0.948267 0.809977,1.955803 0.434623,1.007533 0.84949,2.034823 0.434623,1.007533 0.84949,1.99531 0.414867,0.98778 0.809977,1.896536 l 2.844806,6.756403 h -2.82505 l -1.224846,-2.98309 h -4.247446 l -0.92851,2.27189 2.3114,5.452535 h -2.825047 l -1.224843,-2.983089 h -4.247446 q -0.27658,0.691443 -0.592667,1.481666 -0.335846,0.809977 -0.612423,1.501423 z m 9.522183,-4.978402 1.205089,-2.98309 h 4.563536 l 1.224844,2.98309 h 2.311406 q -0.750717,-1.778 -1.48167,-3.47698 -0.711203,-1.698979 -1.422403,-3.397956 -0.7112,-1.69898 -1.442156,-3.397959 -0.730954,-1.718733 -1.461911,-3.496733 -1.442156,3.516489 -2.864556,6.894692 -1.422403,3.358446 -2.884313,6.874936 z m 3.496735,-8.415872 1.402644,3.417713 h -2.80529 z"
       id="path67350"
       style="font-size:74.6667px;font-family:Break;-inkscape-font-specification:Break;white-space:pre;fill:#bd0058;stroke-width:0.264583" />
    <path
       d="m 92.127492,52.339771 h 8.771468 v 2.528713 H 97.797338 V 66.366222 H 95.268625 V 54.868484 h -3.141133 z m 6.914446,-4.741336 h 8.771472 v 2.528713 h -3.10163 v 11.497739 h -2.52871 V 50.127148 h -3.141132 z m 0.237067,2.291646 h 3.141135 V 61.38782 h 2.05458 V 49.890081 h 3.10162 v -2.054579 h -8.297335 z"
       id="path67352"
       style="font-size:74.6667px;font-family:Break;-inkscape-font-specification:Break;white-space:pre;fill:#bd0058;stroke-width:0.264583" />
    <path
       d="m 102.22254,52.399038 h 2.52871 v 13.967184 h -2.52871 z m 6.91445,-4.741336 h 2.52871 v 13.967185 h -2.52871 z m 0.23707,13.730118 h 2.05458 V 47.894769 h -2.05458 z"
       id="path67354"
       style="font-size:74.6667px;font-family:Break;-inkscape-font-specification:Break;white-space:pre;fill:#bd0058;stroke-width:0.264583" />
    <path
       d="m 114.68824,52.339771 h 0.25683 l -1.83727,-4.721579 q 0.33584,0 0.79022,0 0.45438,0 0.73096,-0.01976 0.27658,0 0.63218,0 0.37535,-0.01976 0.7112,-0.01976 l 2.8448,7.507115 2.78553,-7.487359 h 2.76578 l -5.57107,14.638875 -2.58798,-6.637872 -4.32647,11.379205 -3.67453,-9.443159 -2.01507,-5.175956 q 0.33585,0 0.79022,0 0.45438,0 0.73096,-0.01976 0.27658,0 0.65193,0 0.3556,-0.01976 0.69145,-0.01976 l 2.8448,7.507115 z m 4.14867,3.397957 -3.0226,-7.921983 q -0.65193,0 -1.18533,0.01976 -0.51365,0.01976 -1.18534,0.01976 1.36314,3.496733 2.66701,6.85518 1.32362,3.358446 2.68675,6.874938 l 5.23522,-13.749874 h -2.27188 z"
       id="path67356"
       style="font-size:74.6667px;font-family:Break;-inkscape-font-specification:Break;white-space:pre;fill:#bd0058;stroke-width:0.264583" />
    <path
       d="m 121.08901,57.73304 h 4.36598 v -2.844802 h -4.36598 z m 0,6.10447 h 5.82789 v 2.528712 h -8.37636 V 52.359528 h 6.91445 v -4.741336 h 8.37635 v 2.52871 h -5.82789 v 2.844802 h 4.54378 v 2.568224 h -4.54378 v 3.536246 h 5.82789 v 2.528713 h -8.37635 v -1.323624 h -4.36598 z m 6.67738,-8.514649 h 4.54378 v -2.09409 h -4.54378 v -3.318936 h 5.82789 v -2.054577 h -7.90223 V 61.38782 h 7.90223 v -2.05458 h -5.82789 z"
       id="path67358"
       style="font-size:74.6667px;font-family:Break;-inkscape-font-specification:Break;white-space:pre;fill:#bd0058;stroke-width:0.264583" />
    <path
       style="fill:#f6c4dc;fill-opacity:1;stroke-width:0.00621916"
       d="m 95.21356,54.994492 c -0.02638,-0.06414 -0.04797,-0.118708 -0.04796,-0.121275 6e-6,-0.0026 0.02241,-0.0047 0.04977,-0.0047 h 0.04975 v 0.121274 c 0,0.0667 -7.94e-4,0.121275 -0.0019,0.121275 -0.0011,0 -0.02339,-0.05247 -0.04977,-0.11661 z"
       id="path53921" />
    <path
       d="m 76.231423,79.717525 h 0.39511 q 0.3556,0.01976 0.7112,0.03951 0.3556,0 0.73096,0 0.98778,0 1.54093,-0.45438 0.57291,-0.474133 0.57291,-1.501423 0,-0.96802 -0.57291,-1.50142 -0.55315,-0.553157 -1.54093,-0.553157 h -1.83727 z m -6.91445,4.741334 h 0.39511 q 0.3556,0.01976 0.7112,0.03951 0.3556,0 0.73096,0 0.98778,0 1.56069,-0.454379 0.55316,-0.474133 0.55316,-1.501423 0,-0.968021 -0.55316,-1.501423 -0.57291,-0.553154 -1.56069,-0.553154 h -1.83727 z m 1.83727,-6.479823 q 1.48167,0 2.56822,0.632176 V 73.2377 h 4.34623 q 1.00753,0 1.85702,0.316087 0.86925,0.296333 1.48167,0.869246 0.63218,0.57291 0.98778,1.402644 0.3556,0.829736 0.3556,1.896535 0,1.857024 -0.82974,2.94358 -0.82973,1.086556 -2.58798,1.481667 l 3.8721,5.096936 h -3.00285 l -3.81282,-4.978403 h -0.15805 v 4.978403 h -2.50896 v -0.80998 q -0.29633,0.158046 -0.61242,0.27658 -0.31609,0.09878 -0.69144,0.1778 l 3.87209,5.096935 h -3.00285 l -3.81282,-4.978402 h -0.15805 v 4.978402 h -2.50895 V 77.979036 Z m 2.80529,-4.50427 v 13.532562 h 2.03482 v -4.978403 h 0.51365 l 3.81282,4.978403 h 2.41018 l -3.83258,-5.017913 q 3.61527,-0.612423 3.61527,-4.267203 0,-1.007533 -0.33584,-1.778002 -0.33585,-0.790221 -0.92851,-1.343377 -0.59267,-0.553156 -1.40265,-0.829733 -0.80998,-0.296334 -1.778,-0.296334 z m 2.03482,2.034823 h 2.07434 q 1.08655,0 1.71873,0.612424 0.63218,0.592666 0.63218,1.67922 0,1.145823 -0.63218,1.679223 -0.63218,0.513646 -1.71873,0.513646 -0.37536,0 -0.73096,0 -0.3556,-0.01976 -0.7112,-0.03951 h -0.21731 q -0.0395,0 -0.19755,0 -0.15805,-0.01976 -0.21732,-0.01976 z"
       id="path67364"
       style="font-size:74.6667px;font-family:Break;-inkscape-font-specification:Break;white-space:pre;fill:#bd0058;fill-opacity:1;stroke-width:0.264583" />
    <path
       d="m 84.252123,89.457018 q 0.65194,0 1.26436,-0.197557 0.63218,-0.197554 1.14582,-0.57291 0.5334,-0.375356 0.90876,-0.908756 0.37536,-0.5334 0.5334,-1.224847 l -0.0988,-0.05927 h -4.0894 v -2.44969 h 1.34338 q -0.49389,-0.770467 -0.79022,-1.659467 -0.27658,-0.889 -0.31609,-1.876779 -0.889,0.03951 -1.67923,0.395113 -0.80998,0.3556 -1.40264,0.968023 -0.59267,0.592666 -0.94827,1.402643 -0.3556,0.790223 -0.3556,1.69898 0,0.948266 0.3556,1.778 0.3556,0.809979 0.96802,1.402646 0.61243,0.61242 1.44216,0.948267 0.80998,0.3556 1.71873,0.3556 z m 6.91445,-4.741336 q 0.67169,0 1.30387,-0.197557 0.63218,-0.197554 1.14582,-0.57291 0.51365,-0.39511 0.889,-0.948267 0.37536,-0.553156 0.5334,-1.2446 h -4.20793 v -2.449692 h 6.67738 q 0.0988,0.49389 0.11853,0.84949 0.0395,0.335846 0.0395,0.612423 0,1.402646 -0.49389,2.607736 -0.47413,1.185333 -1.34337,2.054577 -0.86925,0.849489 -2.05458,1.343379 -1.18534,0.474134 -2.58798,0.474134 -0.15805,0 -0.33585,-0.01976 -0.15804,0 -0.31609,-0.01976 -0.25682,1.0668 -0.82973,1.936043 -0.57291,0.889 -1.38289,1.52118 -0.80998,0.632177 -1.83727,0.968023 -1.02729,0.3556 -2.21262,0.3556 -1.46191,0 -2.74602,-0.553156 -1.28412,-0.5334 -2.23238,-1.481667 -0.94827,-0.948267 -1.50143,-2.23238 -0.55315,-1.284112 -0.55315,-2.746023 0,-1.461913 0.55315,-2.726269 0.55316,-1.28411 1.52118,-2.232377 0.94827,-0.948269 2.23238,-1.481669 1.28411,-0.553154 2.74603,-0.553154 h 0.21731 q 0.3556,-1.02729 1.00753,-1.896536 0.65193,-0.889 1.52118,-1.501423 0.889,-0.632177 1.93604,-0.987777 1.06681,-0.3556 2.23238,-0.3556 2.68676,0 4.99816,2.153357 l -0.84949,0.809976 q -0.19755,0.197557 -0.47413,0.474134 -0.25682,0.256823 -0.49389,0.474133 -0.79022,-0.651933 -1.6002,-1.007533 -0.79022,-0.375357 -1.58045,-0.375357 -0.7112,0 -1.36313,0.217313 -0.63218,0.197557 -1.18533,0.57291 -0.55316,0.375357 -0.98778,0.889 -0.41487,0.513647 -0.67169,1.12607 1.16558,0.513643 2.29164,1.560689 l -0.84949,0.809977 q -0.19755,0.197557 -0.47413,0.474134 -0.25682,0.256823 -0.49389,0.474133 -0.33584,-0.25682 -0.65193,-0.474133 0.21731,0.829733 0.73095,1.521179 0.5334,0.67169 1.2446,1.10631 h 1.79776 q 0.0395,0.197557 0.0593,0.3556 0.0198,0.13829 0.0395,0.296334 0.11853,0.01976 0.23707,0.01976 0.11853,0 0.23706,0 z m 0,0.237066 q -0.96802,0 -1.83727,-0.3556 -0.84948,-0.375356 -1.50142,-1.007533 -0.63218,-0.632179 -1.00753,-1.481667 -0.37536,-0.869246 -0.37536,-1.876779 0,-0.968023 0.37536,-1.817513 0.37535,-0.869244 1.02729,-1.501423 0.65193,-0.651933 1.52118,-1.007533 0.86924,-0.375357 1.83726,-0.375357 0.82974,0 1.61996,0.3556 0.80998,0.335846 1.56069,0.94827 0.41487,-0.375357 0.73096,-0.691447 0.33584,-0.335843 0.75071,-0.730956 -2.09409,-1.936044 -4.66232,-1.936044 -1.40264,0 -2.64724,0.5334 -1.2446,0.513644 -2.17311,1.442157 -0.92852,0.908756 -1.46192,2.153356 -0.5334,1.224844 -0.5334,2.62749 0,1.4224 0.5334,2.667 0.5334,1.224846 1.44216,2.153356 0.92851,0.908757 2.17311,1.442157 1.2446,0.513646 2.64725,0.513646 1.34338,0 2.4892,-0.45438 1.14582,-0.474133 1.97556,-1.303866 0.82973,-0.829734 1.30386,-1.975557 0.47414,-1.145823 0.47414,-2.508956 0,-0.256823 -0.0198,-0.553157 -0.0198,-0.296333 -0.0988,-0.671689 h -6.24276 v 1.975559 h 4.2672 q -0.13828,0.79022 -0.5334,1.4224 -0.39511,0.632177 -0.96802,1.086556 -0.55315,0.434621 -1.2446,0.691444 -0.69144,0.237066 -1.4224,0.237066 z"
       id="path67366"
       style="font-size:74.6667px;font-family:Break;-inkscape-font-specification:Break;white-space:pre;fill:#bd0058;fill-opacity:1;stroke-width:0.264583" />
    <path
       d="m 94.821303,83.352548 h 4.36598 v -2.844802 h -4.36598 z m 0,6.10447 h 5.827887 V 91.98573 H 92.272833 V 77.979036 h 6.91445 V 73.2377 h 8.376347 v 2.52871 h -5.82789 v 2.844802 h 4.54378 v 2.568224 h -4.54378 v 3.536246 h 5.82789 v 2.528713 h -8.376347 v -1.323624 h -4.36598 z m 6.677377,-8.514649 h 4.54378 v -2.09409 h -4.54378 v -3.318936 h 5.82789 v -2.054577 h -7.902227 v 13.532562 h 7.902227 v -2.05458 h -5.82789 z"
       id="path67368"
       style="font-size:74.6667px;font-family:Break;-inkscape-font-specification:Break;white-space:pre;fill:#bd0058;fill-opacity:1;stroke-width:0.264583" />
    <path
       d="m 50.094883,83.016702 0.61242,-0.849487 -0.61242,-0.889003 z m -2.86456,3.83258 0.33585,-0.454377 V 73.13892 l 4.89938,6.697139 1.44215,-1.936047 v 3.891847 l 0.23707,0.316089 6.67738,-8.949271 v 14.085718 h -2.54847 v -5.985936 l -4.22769,5.610579 -0.13829,-0.197556 v 5.314248 h -2.54846 v -5.985935 l -4.22769,5.610579 -3.95112,-5.590826 v 5.966182 h -2.52871 V 77.880256 Z m 0.57291,-12.979405 v 13.137451 h 2.05458 v -6.479826 l 4.18818,5.926669 4.46476,-5.906912 v 6.460069 h 2.07433 V 73.889633 l -6.44031,8.633182 z"
       id="path67360"
       style="font-size:74.6667px;font-family:Break;-inkscape-font-specification:Break;white-space:pre;fill:#bd0058;fill-opacity:1;stroke-width:0.264583" />
    <path
       d="m 58.984873,83.352548 h 4.36598 v -2.844802 h -4.36598 z m 0,6.10447 h 5.82789 v 2.528712 h -8.37636 V 77.979036 h 6.91445 V 73.2377 h 8.37636 v 2.52871 h -5.82789 v 2.844802 h 4.54378 v 2.568224 h -4.54378 v 3.536246 h 5.82789 v 2.528713 h -8.37636 v -1.323624 h -4.36598 z m 6.67738,-8.514649 h 4.54378 v -2.09409 h -4.54378 v -3.318936 h 5.82789 v -2.054577 h -7.90223 v 13.532562 h 7.90223 v -2.05458 h -5.82789 z"
       id="path67362"
       style="font-size:74.6667px;font-family:Break;-inkscape-font-specification:Break;white-space:pre;fill:#bd0058;fill-opacity:1;stroke-width:0.264583" />
    <g
       id="g68983"
       style="fill:#d4d4d4;fill-opacity:1">
      <path
         style="fill:#d4d4d4;fill-opacity:1;stroke-width:0.0325027"
         d="m 121.10734,55.181632 -0.002,-0.268148 h 0.0975 c 0.0536,0 0.0975,0.01122 0.0975,0.0249 0,0.01371 -0.043,0.134366 -0.0956,0.26815 l -0.0956,0.243242 z"
         id="path54155" />
      <path
         style="fill:#d4d4d4;fill-opacity:1;stroke-width:0.0418169"
         d="m 86.504453,60.707452 c 0.03574,-0.08625 0.07015,-0.162386 0.07646,-0.169196 0.0063,-0.0068 0.07178,0.06376 0.145478,0.156813 l 0.134006,0.169196 h -0.210465 -0.210463 z"
         id="path53726" />
      <path
         style="fill:#d4d4d4;fill-opacity:1;stroke-width:0.0325027"
         d="m 109.40638,61.032135 0.002,-0.349403 0.12806,0.323363 c 0.0704,0.177848 0.12807,0.335081 0.12807,0.349403 0,0.01431 -0.0585,0.02604 -0.13001,0.02604 h -0.13001 z"
         id="path54038" />
      <path
         style="fill:#d4d4d4;fill-opacity:1;stroke-width:0.0418169"
         d="M 39.345028,61.167435 C 39.12843,60.662383 38.973201,59.992349 38.973201,59.562467 v -0.203604 h 1.756304 1.756302 v 1.003601 1.003602 H 40.95801 39.430213 Z"
         id="path53414" />
      <path
         style="fill:#d4d4d4;fill-opacity:1;stroke-width:0.0418169"
         d="M 52.480008,59.889154 V 58.78296 l 0.282263,-0.167751 c 0.155244,-0.09226 0.394179,-0.254685 0.530963,-0.360942 0.136785,-0.106254 0.261102,-0.188156 0.276257,-0.182004 0.01516,0.0062 0.345453,0.318399 0.733994,0.693877 l 0.706437,0.682689 -0.224062,0.195463 c -0.436608,0.380879 -0.954146,0.721845 -1.532242,1.009476 -0.32199,0.160205 -0.627774,0.302599 -0.679521,0.316434 l -0.09409,0.02516 z"
         id="path53492" />
      <path
         style="fill:#d4d4d4;fill-opacity:1;stroke-width:0.0418169"
         d="m 63.241292,60.728359 c 0.50224,-1.19077 0.585454,-1.369496 0.637625,-1.369496 0.04845,0 0.05888,0.133373 0.05888,0.7527 v 0.752702 H 63.560882 63.18397 Z"
         id="path53570" />
      <path
         style="fill:#d4d4d4;fill-opacity:1;stroke-width:0.0418169"
         d="m 22.424227,61.379771 -0.930423,-0.01532 v -6.668968 -6.668971 l 2.184925,7.93e-4 c 2.365346,7.94e-4 2.703869,0.0231 3.538823,0.232156 1.963137,0.491546 3.46133,1.717964 4.21998,3.454466 0.09364,0.214334 0.182975,0.441444 0.19853,0.50469 l 0.02828,0.114996 h -1.107165 -1.107165 l -0.162324,-0.278426 c -0.374126,-0.64172 -0.981615,-1.20228 -1.667727,-1.538899 -0.75129,-0.368591 -1.228777,-0.440777 -2.915621,-0.440777 h -1.203328 v 4.620749 4.62075 l 1.411315,-1.25e-4 c 1.368366,-8.4e-5 1.423036,-0.0033 1.796478,-0.103295 0.211841,-0.05676 0.454064,-0.131977 0.538271,-0.167162 0.08421,-0.03517 0.160216,-0.06395 0.168907,-0.06395 0.0087,0 0.0158,0.478338 0.0158,1.062974 v 1.062977 l -0.298768,0.06795 c -0.829956,0.188769 -2.144555,0.245544 -4.708786,0.203356 z"
         id="path53297" />
      <path
         style="fill:#d4d4d4;fill-opacity:1;stroke-width:0.0418169"
         d="m 30.024419,56.328135 v -1.401847 h 1.008547 1.008549 l -0.02846,0.365897 c -0.06116,0.786236 -0.229074,1.587918 -0.453255,2.164017 l -0.09764,0.250899 -0.71887,0.01143 -0.71887,0.01146 z"
         id="path53336" />
      <path
         style="fill:#d4d4d4;fill-opacity:1;stroke-width:0.0418169"
         d="m 34.624261,54.612661 v -6.753402 h 3.930774 3.930772 v 1.024509 1.024511 h -2.906263 -2.906262 v 1.67267 1.672669 h 1.633087 1.633088 l -0.430856,0.288235 c -0.648165,0.433609 -1.485481,1.226243 -1.738563,1.64579 l -0.06937,0.114996 H 37.188924 36.67718 l -0.01482,1.09769 c -0.01273,0.943914 -0.0276,1.15334 -0.106063,1.494946 -0.12908,0.561951 -0.182372,1.351515 -0.134001,1.985237 0.03501,0.458727 0.163023,1.23302 0.234749,1.419935 0.02246,0.05852 -0.08617,0.06562 -1.003806,0.06562 h -1.028983 z"
         id="path53375" />
      <path
         style="fill:#d4d4d4;fill-opacity:1;stroke-width:0.0418169"
         d="m 49.538043,61.321788 c -2.306826,-0.267912 -4.285771,-1.690254 -5.291032,-3.802862 -0.729401,-1.532871 -0.853474,-3.240989 -0.355383,-4.892558 0.138885,-0.460513 0.539483,-1.298512 0.828101,-1.732278 1.667772,-2.506509 4.869897,-3.620224 7.703346,-2.679266 0.499168,0.16577 1.162622,0.490533 1.603269,0.784808 0.330047,0.220411 0.958094,0.705238 0.960983,0.741841 0.0011,0.01175 -0.316889,0.339529 -0.706255,0.728393 -0.658426,0.657568 -0.713613,0.702873 -0.789011,0.6477 -0.89112,-0.652111 -1.707597,-1.040432 -2.464869,-1.172306 -0.451641,-0.07865 -1.414373,-0.02418 -1.892522,0.107072 -1.652469,0.453607 -2.93913,1.749674 -3.396094,3.420917 -0.08367,0.306001 -0.09407,0.439208 -0.09224,1.181229 0.0019,0.771398 0.01074,0.868572 0.113832,1.251519 0.289272,1.074582 0.981337,2.021454 1.943735,2.659391 0.626859,0.41552 1.266521,0.65872 1.930001,0.733785 l 0.253462,0.02867 v 1.019109 c 0,0.560509 -0.0141,1.016635 -0.03136,1.013613 -0.01725,-0.003 -0.160334,-0.02048 -0.317965,-0.03878 z"
         id="path53453" />
      <path
         style="fill:#d4d4d4;fill-opacity:1;stroke-width:0.0418169"
         d="m 57.07985,54.613172 v -6.753913 h 1.024509 1.024512 v 5.7498 5.749804 h 0.940877 c 0.51748,0 0.940877,0.0069 0.940877,0.01524 0,0.0084 -0.18509,0.4553 -0.411306,0.993148 l -0.411305,0.977902 -1.554083,0.01095 -1.554081,0.01095 z"
         id="path53531" />
      <path
         style="fill:#d4d4d4;fill-opacity:1;stroke-width:0.0418169"
         d="m 65.870695,60.269048 c 0.252259,-0.6041 1.04794,-2.500268 1.768179,-4.213709 1.380627,-3.284495 2.154383,-5.138939 2.97049,-7.1193 0.272489,-0.661226 0.505873,-1.202026 0.518628,-1.201775 0.01275,2.52e-4 0.200329,0.42835 0.416835,0.951331 0.216506,0.522981 0.65173,1.55774 0.967169,2.299465 l 0.573524,1.348589 h -0.87308 -0.873083 l -0.0021,0.533164 -0.0021,0.533165 -0.09188,-0.219499 c -0.05053,-0.120724 -0.102113,-0.219516 -0.114615,-0.219538 -0.01635,-2.9e-5 -1.157576,2.736043 -1.408427,3.37666 -0.01596,0.04074 0.160475,0.05227 0.799433,0.05227 h 0.819899 v 1.003601 1.003602 l -1.264955,5.29e-4 -1.264957,5.29e-4 -0.592796,1.473486 -0.592794,1.473488 -1.105908,0.01114 -1.105908,0.01114 0.458656,-1.098362 z"
         id="path53609" />
      <path
         style="fill:#d4d4d4;fill-opacity:1;stroke-width:0.0418169"
         d="m 74.235166,58.825949 -0.344987,-0.01407 v -1.963698 -1.963695 h 0.136109 0.13611 l 0.414422,0.993148 c 0.227933,0.546232 0.599488,1.430287 0.825677,1.964568 0.22619,0.534281 0.411253,0.981197 0.411253,0.993148 0,0.02204 -0.947296,0.0164 -1.578584,-0.0094 z"
         id="path53648" />
      <g
         id="g69734"
         style="fill:#d4d4d4;fill-opacity:1">
        <path
           style="fill:#d4d4d4;fill-opacity:1;stroke-width:0.0325027"
           d="m 80.226583,86.853825 c -0.13071,-0.177684 -0.30903,-0.704485 -0.37844,-1.117987 -0.1037,-0.617815 -0.0551,-1.430057 0.11867,-1.98438 l 0.0737,-0.234982 1.29716,1.701657 c 0.71343,0.935914 1.31124,1.719943 1.32847,1.742287 0.0249,0.03234 -0.20996,0.04037 -1.1509,0.03936 l -1.18221,-0.0013 z"
           id="path54506" />
        <g
           id="g69856"
           style="fill:#d4d4d4;fill-opacity:1">
          <path
             style="fill:#d4d4d4;fill-opacity:1;stroke-width:0.0325027"
             d="m 90.555143,86.965106 c -1.59278,-0.146868 -3.12204,-0.866656 -4.21483,-1.983833 -1.99953,-2.044142 -2.50056,-5.128077 -1.24812,-7.682309 0.79087,-1.612913 2.15573,-2.824369 3.84726,-3.414853 1.71738,-0.599506 3.5005,-0.505571 5.08749,0.268007 0.53393,0.260268 1.21624,0.723599 1.67223,1.135557 l 0.12955,0.117044 -0.40222,0.404971 c -0.22122,0.222735 -0.54557,0.537885 -0.72078,0.700331 l -0.31857,0.295363 -0.0877,-0.06975 c -0.48484,-0.385474 -1.28586,-0.824122 -1.84287,-1.009174 -0.50976,-0.169352 -0.8063,-0.208529 -1.43013,-0.188947 -0.79578,0.02498 -1.19398,0.125855 -1.95549,0.495369 -1.30757,0.634481 -2.24413,1.836277 -2.55118,3.273658 -0.0945,0.442163 -0.10291,1.35188 -0.0167,1.795248 0.1924,0.989478 0.60704,1.775965 1.30344,2.472362 0.72198,0.721982 1.62199,1.185518 2.58612,1.331941 0.39495,0.05998 1.17412,0.05897 1.51138,-0.0019 0.14302,-0.02585 0.27851,-0.04727 0.30111,-0.04762 0.0324,-5.3e-4 0.0393,0.216513 0.0325,1.031324 l -0.009,1.031963 -0.17876,0.02069 c -0.36284,0.04198 -1.16384,0.05518 -1.49513,0.02463 z"
             id="path54545" />
          <g
             id="g69978"
             style="fill:#d4d4d4;fill-opacity:1">
            <path
               style="fill:#d4d4d4;fill-opacity:1;stroke-width:0.0325027"
               d="m 94.845513,83.124478 c 0,-0.172787 0.0197,-0.242946 0.12952,-0.461563 0.13937,-0.27744 0.2634,-0.626536 0.33809,-0.951696 l 0.0467,-0.203142 h -0.25714 -0.25714 v -0.487542 -0.487543 h 1.28895 1.28895 l -0.0205,0.495668 c -0.0308,0.745636 -0.15167,1.380768 -0.38658,2.031426 l -0.0968,0.268147 h -1.03702 -1.03702 z"
               id="path54623" />
            <g
               id="g70100"
               style="fill:#d4d4d4;fill-opacity:1">
              <path
                 style="fill:#d4d4d4;fill-opacity:1;stroke-width:0.0325027"
                 d="m 91.075193,80.532992 v -0.975084 h 0.58505 0.58505 v 0.975084 0.975085 h -0.58505 -0.58505 z"
                 id="path54584" />
              <path
                 style="fill:#d4d4d4;fill-opacity:1;stroke-width:0.0418169"
                 d="m 78.531838,54.609362 v -6.756707 l 2.373098,0.01871 c 1.957816,0.01543 2.432442,0.03048 2.712194,0.08603 1.957522,0.388729 3.206011,1.7286 3.405327,3.654576 0.08263,0.798462 0.04223,1.0219 -0.36391,2.012445 -0.194569,0.474548 -0.401468,0.985128 -0.459769,1.134623 -0.186704,0.478726 -0.767609,0.942962 -1.584116,1.26596 -0.206161,0.08156 -0.515972,0.180088 -0.688465,0.218966 -0.172495,0.03887 -0.356449,0.08307 -0.408789,0.09821 -0.08836,0.02556 -0.04724,0.09017 0.574979,0.903552 0.368581,0.481817 0.670145,0.896546 0.670145,0.921623 0,0.04566 -0.776888,1.898724 -0.80985,1.931683 -0.0096,0.0096 -0.656159,-0.81629 -1.436743,-1.835367 L 81.096693,56.4108 80.817867,56.39844 80.539041,56.38608 v 2.490007 2.490007 H 79.53544 78.531838 Z m 4.863394,-0.29382 c 0.43149,-0.09624 0.806754,-0.286732 1.054592,-0.535337 0.381524,-0.382706 0.526838,-0.822068 0.526838,-1.592913 0,-0.550058 -0.05867,-0.843735 -0.240096,-1.201759 -0.146246,-0.288599 -0.564904,-0.69969 -0.857663,-0.842158 -0.478068,-0.232648 -0.58135,-0.246295 -2.01218,-0.265853 l -1.327682,-0.01815 v 2.239172 2.239168 l 0.386805,0.01381 c 1.215636,0.04337 2.17642,0.02937 2.469386,-0.03597 z"
                 id="path53687" />
            </g>
          </g>
        </g>
      </g>
      <path
         style="fill:#d4d4d4;fill-opacity:1;stroke-width:0.0418169"
         d="m 88.693304,61.33081 c 0,-0.02016 0.227531,-0.580287 0.505626,-1.24474 0.571178,-1.364731 2.757009,-6.566434 2.853521,-6.790634 0.05893,-0.136883 0.06322,-0.09018 0.06642,0.721338 l 0.0034,0.867696 h 0.710885 c 0.390985,0 0.710885,0.01564 0.710885,0.03477 0,0.01913 -0.131723,0.351602 -0.292719,0.738836 -0.160994,0.387236 -0.292716,0.710303 -0.292716,0.717928 0,0.0076 0.517482,0.01387 1.149961,0.01387 h 1.149961 v 1.003601 1.003602 l -1.599491,7.94e-4 -1.599491,7.93e-4 -0.592471,1.473224 -0.592468,1.473226 -1.090655,0.01114 c -0.605044,0.0062 -1.090655,-0.0052 -1.090655,-0.0255 z"
         id="path53765" />
      <path
         style="fill:#d4d4d4;fill-opacity:1;stroke-width:0.0418169"
         d="m 97.849826,61.257984 c -0.02577,-0.06775 -0.03708,-1.091129 -0.03033,-2.742647 l 0.01077,-2.634568 0.267975,0.641356 c 0.147389,0.352747 0.652574,1.5446 1.122635,2.648561 0.470059,1.103963 0.871194,2.049544 0.891404,2.101291 l 0.0367,0.09409 h -1.129047 -1.129052 z"
         id="path53804" />
      <path
         style="fill:#d4d4d4;fill-opacity:1;stroke-width:0.0418169"
         d="m 92.530691,52.153655 c 0.43303,-1.075362 1.832483,-4.419846 1.849424,-4.419846 0.01217,0 0.22697,0.493959 0.477306,1.097688 0.250335,0.603731 0.685366,1.638694 0.966737,2.299922 l 0.511582,1.20223 h -1.938766 -1.938766 z"
         id="path53843" />
      <path
         style="fill:#d4d4d4;fill-opacity:1;stroke-width:0.0325027"
         d="M 102.44883,51.126908 V 49.87555 h -1.57638 -1.57639 v -1.007588 -1.007587 h 4.12786 4.12785 v 1.007587 1.007588 h -1.54388 -1.54389 v 1.251358 1.251357 h -1.00758 -1.00759 z"
         id="path53960" />
      <path
         style="fill:#d4d4d4;fill-opacity:1;stroke-width:0.0325027"
         d="m 110.40296,55.815436 -0.99997,-2.640852 7.9e-4,-2.6246 8e-4,-2.624603 h 1.00758 1.00759 v 5.265454 c 0,2.896 -0.004,5.265455 -0.008,5.265455 -0.005,0 -0.45833,-1.188384 -1.00831,-2.640854 z"
         id="path53999" />
      <path
         style="fill:#d4d4d4;fill-opacity:1;stroke-width:0.0325027"
         d="m 118.06994,59.664546 c -0.24833,-0.637725 -0.7442,-1.905441 -1.10191,-2.817145 -0.35772,-0.911704 -1.29084,-3.303098 -2.0736,-5.314209 l -1.42321,-3.656563 1.15565,-0.02604 c 0.63561,-0.01431 1.16151,-0.02016 1.16868,-0.01299 0.007,0.0072 0.62716,1.622978 1.37777,3.5907 l 1.36475,3.577674 -0.008,2.909036 -0.008,2.909033 z"
         id="path54077" />
      <path
         style="fill:#d4d4d4;fill-opacity:1;stroke-width:0.0325027"
         d="m 120.1302,52.321385 c -9e-5,-0.01341 0.3691,-1.02262 0.82041,-2.242693 l 0.82057,-2.218317 h 1.11698 c 1.05052,0 1.11567,0.0034 1.09495,0.05688 -0.0121,0.03128 -0.39665,1.040495 -0.85453,2.242692 l -0.83251,2.185816 h -1.08286 c -0.59557,0 -1.08292,-0.01098 -1.08301,-0.02437 z"
         id="path54116" />
      <path
         style="fill:#d4d4d4;fill-opacity:1;stroke-width:0.0325027"
         d="m 125.72084,54.620958 v -6.760583 h 3.93284 3.93284 v 1.02384 1.023837 h -2.92525 -2.92526 v 1.673894 1.673895 h 2.2752 2.2752 v 1.023839 1.023837 h -2.2752 -2.2752 v 2.015175 2.015173 h 2.92526 2.92525 v 1.023839 1.023837 h -3.93284 -3.93284 z"
         id="path54194" />
      <g
         id="g69531"
         style="fill:#d4d4d4;fill-opacity:1">
        <path
           style="fill:#d4d4d4;fill-opacity:1;stroke-width:0.0325027"
           d="m 58.994923,81.930611 v -1.397619 h 0.78007 0.78007 v 1.397619 1.397622 h -0.78007 -0.78007 z"
           id="path54272" />
        <path
           style="fill:#d4d4d4;fill-opacity:1;stroke-width:0.0325027"
           d="m 57.597303,77.945785 c 0,-0.02463 2.92581,-3.945855 2.94419,-3.945855 0.007,0 0.0136,0.892201 0.0136,1.982671 v 1.982671 h -1.47888 c -0.81338,0 -1.47888,-0.0088 -1.47888,-0.0195 z"
           id="path54311" />
        <path
           style="fill:#d4d4d4;fill-opacity:1;stroke-width:0.0325027"
           d="m 58.994923,86.464752 v -0.536294 h 0.78007 0.78007 v 0.536294 0.536297 h -0.78007 -0.78007 z"
           id="path54350" />
        <path
           style="fill:#d4d4d4;fill-opacity:1;stroke-width:0.0325027"
           d="m 47.813963,80.462568 c 0,-3.596164 0.006,-6.532385 0.013,-6.524937 0.007,0.0075 0.6666,0.905746 1.46546,1.996215 5.24329,7.157276 4.83887,6.615724 4.89568,6.555774 0.0288,-0.03037 0.52461,-0.691456 1.10185,-1.469085 0.57723,-0.777629 1.06926,-1.435291 1.09339,-1.461466 0.0369,-0.04 0.0437,0.253048 0.0426,1.836407 l -10e-4,1.884002 -1.15478,1.527633 c -0.63513,0.840198 -1.17206,1.545024 -1.19318,1.566281 -0.0296,0.02978 -0.51456,-0.635609 -2.1143,-2.900876 -1.14174,-1.616739 -2.08879,-2.939524 -2.10456,-2.939524 -0.0164,0 -0.0287,1.388597 -0.0287,3.234029 v 3.234028 h -1.00758 -1.00759 z"
           id="path54233" />
      </g>
      <g
         id="g69612"
         style="fill:#d4d4d4;fill-opacity:1">
        <path
           style="fill:#d4d4d4;fill-opacity:1;stroke-width:0.0325027"
           d="m 69.330813,80.711758 v -0.21127 h 0.42254 0.42254 v 0.21127 0.211267 h -0.42254 -0.42254 z"
           id="path54428" />
        <path
           style="fill:#d4d4d4;fill-opacity:1;stroke-width:0.0325027"
           d="m 63.610323,80.240466 v -6.760583 h 3.93284 3.93284 v 1.02384 1.023837 h -2.909 -2.909 v 1.673894 1.673895 h 0.56879 0.56881 v 1.023839 1.023837 h -0.56881 -0.56879 v 2.015175 2.015173 h 0.56879 0.56881 v 1.023839 1.023837 h -1.59264 -1.59264 z"
           id="path54389" />
      </g>
      <path
         style="fill:#d4d4d4;fill-opacity:1;stroke-width:0.0325027"
         d="m 73.978713,80.240466 v -6.760583 l 2.10456,2.9e-5 c 1.20402,1.4e-5 2.25754,0.01447 2.46209,0.03379 1.16403,0.109924 2.09027,0.509608 2.78047,1.199806 0.77402,0.774015 1.16862,1.802836 1.16862,3.046867 v 0.420563 l -0.41441,0.137732 c -2.19153,0.728363 -3.80686,2.340901 -4.52506,4.517213 l -0.12177,0.368969 -0.44993,-0.588364 -0.44994,-0.588365 h -0.26973 -0.26972 v 2.486464 2.486464 h -1.00759 -1.00759 z m 4.6479,-0.274912 c 0.54894,-0.08358 0.97233,-0.273736 1.26818,-0.56959 0.37146,-0.371459 0.53109,-0.857896 0.52817,-1.609458 -10e-4,-0.353499 -0.0169,-0.511617 -0.0693,-0.708578 -0.17983,-0.674933 -0.65492,-1.19934 -1.29043,-1.424387 -0.38628,-0.136789 -0.61703,-0.156154 -1.87483,-0.15735 l -1.19448,-0.0011 v 2.226442 c 0,1.224542 0.011,2.228464 0.0244,2.230937 0.0759,0.014 1.18436,0.0495 1.69827,0.0544 0.38905,0.0037 0.71029,-0.01087 0.91008,-0.04128 z"
         id="path54467" />
      <path
         style="fill:#d4d4d4;fill-opacity:1;stroke-width:0.0325027"
         d="m 99.428413,80.240466 v -6.760583 h 3.949087 3.94909 v 1.02384 1.023837 h -2.92525 -2.92526 v 1.673894 1.673895 h 2.2752 2.2752 v 1.023839 1.023837 h -2.2752 -2.2752 v 2.015175 2.015173 h 2.92526 2.92525 v 1.023839 1.023837 h -3.94909 -3.949087 z"
         id="path54662" />
    </g>
  </g>
</svg>
