<?xml version="1.0" encoding="UTF-8" standalone="no"?>
<svg
   xmlns:dc="http://purl.org/dc/elements/1.1/"
   xmlns:cc="http://creativecommons.org/ns#"
   xmlns:rdf="http://www.w3.org/1999/02/22-rdf-syntax-ns#"
   xmlns:svg="http://www.w3.org/2000/svg"
   xmlns="http://www.w3.org/2000/svg"
   xml:space="preserve"
   enable-background="new 0 0 459 459"
   viewBox="0 0 405.22699 405.228"
   height="405.228"
   width="405.22699"
   y="0px"
   x="0px"
   id="Layer_1"
   version="1.1"><metadata
   id="metadata1085"><rdf:RDF><cc:Work
       rdf:about=""><dc:format>image/svg+xml</dc:format><dc:type
         rdf:resource="http://purl.org/dc/dcmitype/StillImage" /><dc:title></dc:title></cc:Work></rdf:RDF></metadata><defs
   id="defs1083" />
<g
   transform="translate(-26.887,-26.887)"
   id="g1078">
	<path
   style="fill:#12a5ea"
   id="path1074"
   d="m 432.113,203.89 -43.348,-14.631 c -3.944,-15.646 -10.134,-30.397 -18.206,-43.9 L 390.882,104.347 373.267,86.73 372.278,85.737 354.654,68.12 313.642,88.44 C 300.143,80.367 285.392,74.178 269.749,70.237 L 255.11,26.887 h -24.911 -1.395 -24.914 l -14.627,43.351 c -15.65,3.941 -30.397,10.13 -43.904,18.203 l -41.012,-20.32 -17.618,17.616 -0.992,0.989 -17.62,17.62 20.323,41.012 c -8.069,13.503 -14.254,28.254 -18.195,43.896 L 26.887,203.89 v 24.915 1.392 24.915 l 43.358,14.635 c 3.941,15.646 10.126,30.397 18.195,43.893 l -20.323,41.016 17.62,17.616 0.985,0.993 17.624,17.62 41.012,-20.324 c 13.507,8.073 28.254,14.259 43.896,18.199 l 14.635,43.355 h 24.915 1.395 24.911 l 14.639,-43.355 c 15.643,-3.94 30.394,-10.126 43.893,-18.199 l 41.012,20.324 17.62,-17.62 0.993,-0.985 17.616,-17.624 -20.323,-41.016 c 8.072,-13.495 14.262,-28.247 18.206,-43.893 l 43.348,-14.635 V 230.197 228.805 203.89 Z M 229.504,354.906 c -69.259,0 -125.405,-56.147 -125.405,-125.406 0,-69.255 56.146,-125.409 125.405,-125.409 69.255,0 125.409,56.154 125.409,125.409 0,69.259 -56.154,125.406 -125.409,125.406 z" />
	<path
   style="clip-rule:evenodd;fill:#12a5ea;fill-rule:evenodd"
   id="path1076"
   d="m 314.252,219.533 c -7.834,-4.937 -15.866,-9.591 -23.833,-14.317 -26.924,-15.962 -53.858,-31.912 -80.782,-47.86 -4.561,-2.705 -9.082,-5.464 -13.688,-8.075 -10.194,-5.756 -18.371,-1.27 -19.002,10.369 -0.073,1.319 -0.072,2.648 -0.082,3.976 -0.004,0.582 -0.009,1.222 -0.013,1.897 v 136.685 c 1.398,8.52 8.835,12.122 17.319,7.75 10.153,-5.229 20.018,-11.042 29.979,-16.663 17.078,-9.649 34.142,-19.335 51.198,-29.029 12.974,-7.38 26.019,-14.633 38.852,-22.256 10.793,-6.426 10.764,-15.74 0.052,-22.477 z" />
</g>
</svg>