<?xml version="1.0" encoding="utf-8"?>
<!-- Generator: Adobe Illustrator 16.0.0, SVG Export Plug-In . SVG Version: 6.00 Build 0)  -->
<!DOCTYPE svg PUBLIC "-//W3C//DTD SVG 1.1//EN" "http://www.w3.org/Graphics/SVG/1.1/DTD/svg11.dtd">
<svg version="1.1" id="Layer_1" xmlns="http://www.w3.org/2000/svg" xmlns:xlink="http://www.w3.org/1999/xlink" x="0px" y="0px"
	 width="459px" height="459px" viewBox="0 0 459 459" enable-background="new 0 0 459 459" xml:space="preserve">
<g>
	<path fill="#12A5EA" d="M432.113,203.89l-43.348-14.631c-3.944-15.646-10.134-30.397-18.206-43.9l20.323-41.012L373.267,86.73
		l-0.989-0.993l-17.624-17.617l-41.012,20.32c-13.499-8.073-28.25-14.262-43.893-18.203L255.11,26.887h-24.911h-1.395H203.89
		l-14.627,43.351c-15.65,3.941-30.397,10.13-43.904,18.203l-41.012-20.32L86.729,85.737l-0.992,0.989l-17.62,17.62l20.323,41.012
		c-8.069,13.503-14.254,28.254-18.195,43.896L26.887,203.89v24.915v1.392v24.915l43.358,14.635
		c3.941,15.646,10.126,30.397,18.195,43.893l-20.323,41.016l17.62,17.616l0.985,0.993l17.624,17.62l41.012-20.324
		c13.507,8.073,28.254,14.259,43.896,18.199l14.635,43.355h24.915h1.395h24.911l14.639-43.355
		c15.643-3.94,30.394-10.126,43.893-18.199l41.012,20.324l17.62-17.62l0.993-0.985l17.616-17.624l-20.323-41.016
		c8.072-13.495,14.262-28.247,18.206-43.893l43.348-14.635v-24.915v-1.392V203.89z M229.504,354.906
		c-69.259,0-125.405-56.147-125.405-125.406c0-69.255,56.146-125.409,125.405-125.409c69.255,0,125.409,56.154,125.409,125.409
		C354.913,298.759,298.759,354.906,229.504,354.906z"/>
	<path fill-rule="evenodd" clip-rule="evenodd" fill="#12A5EA" d="M314.252,219.533c-7.834-4.937-15.866-9.591-23.833-14.317
		c-26.924-15.962-53.858-31.912-80.782-47.86c-4.561-2.705-9.082-5.464-13.688-8.075c-10.194-5.756-18.371-1.27-19.002,10.369
		c-0.073,1.319-0.072,2.648-0.082,3.976c-0.004,0.582-0.009,1.222-0.013,1.897v136.685c1.398,8.52,8.835,12.122,17.319,7.75
		c10.153-5.229,20.018-11.042,29.979-16.663c17.078-9.649,34.142-19.335,51.198-29.029c12.974-7.38,26.019-14.633,38.852-22.256
		C324.993,235.584,324.964,226.27,314.252,219.533z"/>
</g>
</svg>
