<?xml version="1.0" encoding="UTF-8" standalone="no"?>
<svg
   xmlns:dc="http://purl.org/dc/elements/1.1/"
   xmlns:cc="http://creativecommons.org/ns#"
   xmlns:rdf="http://www.w3.org/1999/02/22-rdf-syntax-ns#"
   xmlns:svg="http://www.w3.org/2000/svg"
   xmlns="http://www.w3.org/2000/svg"
   id="svg8"
   version="1.1"
   viewBox="0 0 107.21631 107.21658"
   height="107.21658mm"
   width="107.21631mm">
  <defs
     id="defs2" />
  <metadata
     id="metadata5">
    <rdf:RDF>
      <cc:Work
         rdf:about="">
        <dc:format>image/svg+xml</dc:format>
        <dc:type
           rdf:resource="http://purl.org/dc/dcmitype/StillImage" />
        <dc:title></dc:title>
      </cc:Work>
    </rdf:RDF>
  </metadata>
  <g
     transform="translate(-1.5763733,-1.4869504)"
     id="layer1">
    <g
       transform="matrix(0.26458333,0,0,0.26458333,60.230378,61.652861)"
       id="g14">
	<path
   style="fill:#71bf8e;fill-opacity:1"
   d="m 183.54157,-50.395717 -43.348,-14.631 c -3.944,-15.646 -10.134,-30.397 -18.206,-43.900003 l 20.323,-41.012 -17.615,-17.617 -0.989,-0.993 -17.624,-17.617 -41.012002,20.32 c -13.499,-8.073 -28.25,-14.262 -43.893,-18.203 l -14.6389997,-43.35 h -24.9110003 -1.395 -24.914 l -14.627,43.351 c -15.65,3.941 -30.397,10.13 -43.903998,18.203 l -41.012,-20.32 -17.618,17.616 -0.992,0.989 -17.62,17.62 20.323,41.012 c -8.069,13.503003 -14.254,28.254003 -18.195,43.896003 l -43.358,14.636 v 24.915 1.392 24.91499951 l 43.358,14.63500049 c 3.941,15.646 10.126,30.397 18.195,43.893 l -20.323,41.015997 17.62,17.616 0.985,0.993 17.624,17.62 41.012,-20.324 c 13.506998,8.073 28.253998,14.259 43.895998,18.199 l 14.635,43.355 h 24.915 1.395 24.9110003 l 14.6389997,-43.355 c 15.643,-3.94 30.394,-10.126 43.893,-18.199 l 41.012002,20.324 17.62,-17.62 0.993,-0.985 17.616,-17.624 -20.323,-41.015997 c 8.072,-13.495 14.262,-28.247 18.206,-43.893 l 43.348,-14.63500049 v -24.91499951 -1.392 -24.915 z M -19.067432,100.62028 c -69.259,0 -125.404998,-56.146997 -125.404998,-125.405997 0,-69.255 56.145998,-125.409003 125.404998,-125.409003 69.255,0 125.409002,56.154003 125.409002,125.409003 0,69.259 -56.154002,125.405997 -125.409002,125.405997 z"
   id="path10" />

	<path
   style="clip-rule:evenodd;fill:#71bf8e;fill-opacity:1;fill-rule:evenodd"
   d="m 65.680568,-34.752717 c -7.834,-4.937 -15.866,-9.591 -23.833,-14.317 -26.924,-15.962 -53.858,-31.912 -80.782,-47.86 -4.561,-2.705 -9.082,-5.464003 -13.688,-8.075003 -10.194,-5.756 -18.371,-1.27 -19.002,10.369003 -0.073,1.319 -0.072,2.648 -0.082,3.976 -0.004,0.582 -0.009,1.222 -0.013,1.897 v 136.685 c 1.398,8.52 8.835,12.122 17.319,7.75 10.153,-5.229 20.018,-11.042 29.979,-16.663 17.0780003,-9.649 34.1420003,-19.335 51.198,-29.0290005 12.974,-7.38 26.019,-14.633 38.852,-22.2559995 10.793,-6.426 10.764,-15.74 0.052,-22.477 z"
   id="path12" />

</g>
  </g>
</svg>
