<?xml version="1.0" encoding="UTF-8" standalone="no"?>
<svg
   xmlns:dc="http://purl.org/dc/elements/1.1/"
   xmlns:cc="http://creativecommons.org/ns#"
   xmlns:rdf="http://www.w3.org/1999/02/22-rdf-syntax-ns#"
   xmlns:svg="http://www.w3.org/2000/svg"
   xmlns="http://www.w3.org/2000/svg"
   xmlns:sodipodi="http://sodipodi.sourceforge.net/DTD/sodipodi-0.dtd"
   xmlns:inkscape="http://www.inkscape.org/namespaces/inkscape"
   version="1.1"
   id="svg62"
   width="851.38416"
   height="204.84198"
   viewBox="0 0 851.38411 204.84198"
   sodipodi:docname="terminal-theme.inkscape.svg"
   inkscape:version="1.0.1 (3bc2e813f5, 2020-09-07)"
   inkscape:export-filename="/home/ether/code/design/terminal-theme/terminal-theme.png"
   inkscape:export-xdpi="96"
   inkscape:export-ydpi="96">
  <metadata
     id="metadata68">
    <rdf:RDF>
      <cc:Work
         rdf:about="">
        <dc:format>image/svg+xml</dc:format>
        <dc:type
           rdf:resource="http://purl.org/dc/dcmitype/StillImage" />
        <dc:title></dc:title>
      </cc:Work>
    </rdf:RDF>
  </metadata>
  <defs
     id="defs66">
    <rect
       x="13.748508"
       y="-67.901062"
       width="684.992"
       height="57.162315"
       id="rect76" />
  </defs>
  <sodipodi:namedview
     pagecolor="#ffffff"
     bordercolor="#666666"
     borderopacity="1"
     objecttolerance="10"
     gridtolerance="10"
     guidetolerance="10"
     inkscape:pageopacity="0"
     inkscape:pageshadow="2"
     inkscape:window-width="1848"
     inkscape:window-height="1016"
     id="namedview64"
     showgrid="false"
     inkscape:zoom="1"
     inkscape:cx="561.28517"
     inkscape:cy="192.27248"
     inkscape:window-x="72"
     inkscape:window-y="27"
     inkscape:window-maximized="1"
     inkscape:current-layer="g70"
     inkscape:document-rotation="0"
     fit-margin-top="70"
     fit-margin-left="70"
     fit-margin-bottom="70"
     fit-margin-right="70"
     inkscape:pagecheckerboard="false"
     inkscape:showpageshadow="false"
     lock-margins="false" />
  <g
     inkscape:groupmode="layer"
     inkscape:label="Image"
     id="g70"
     transform="translate(59.098474,55.127348)">
    <rect
       style="fill:#262626;fill-opacity:1;stroke-width:1.46851"
       id="rect941"
       width="877.80365"
       height="241.29793"
       x="-79.328003"
       y="-56.139015"
       inkscape:export-xdpi="96"
       inkscape:export-ydpi="96" />
    <g
       aria-label="Terminal Theme"
       transform="matrix(2.0945801,0,0,2.0945801,-22.067655,146.51503)"
       id="text74"
       style="font-style:normal;font-weight:normal;font-size:40px;line-height:0;font-family:sans-serif;white-space:pre;shape-inside:url(#rect76);fill:#000000;fill-opacity:1;stroke:none">
      <path
         d="m 27.556641,-32.458429 h -3.652344 v -25.351562 h -8.164063 v -3.203125 h 19.960938 v 3.203125 h -8.144531 z"
         style="fill:#e5e5e5;fill-opacity:1"
         id="path2252" />
      <path
         d="M 59.158203,-42.497491 H 44.041016 q 0.15625,7.324219 6.71875,7.324219 3.808593,0 7.226562,-1.484375 v 3.125 q -3.242187,1.464843 -7.109375,1.464843 -4.785156,0 -7.65625,-2.910156 -2.871094,-2.929687 -2.871094,-8.046875 0,-5.195312 2.636719,-8.222656 2.65625,-3.046875 7.089844,-3.046875 4.140625,0 6.601562,2.617187 2.480469,2.617188 2.480469,6.972657 z m -15.039062,-2.890625 h 11.191406 q 0,-5.957031 -5.3125,-5.957031 -5.371094,0 -5.878906,5.957031 z"
         style="fill:#e5e5e5;fill-opacity:1"
         id="path2254" />
      <path
         d="m 82.439453,-53.41546 -0.957031,3.242188 q -2.402344,-0.878907 -4.375,-0.878907 -3.183594,0 -4.921875,1.816407 -1.71875,1.796875 -1.71875,5.214843 v 11.5625 h -3.554688 v -21.445312 h 2.890625 l 0.429688,3.925781 h 0.15625 q 1.484375,-2.324219 3.183594,-3.320312 1.699218,-0.996094 4.179687,-0.996094 2.304688,0 4.6875,0.878906 z"
         style="fill:#e5e5e5;fill-opacity:1"
         id="path2256" />
      <path
         d="m 104.8418,-32.458429 v -13.808593 q 0,-2.851563 -0.52735,-3.964844 -0.50781,-1.113281 -1.71875,-1.113281 -1.69922,0 -2.48047,1.621093 -0.761714,1.621094 -0.761714,5.429688 v 11.835937 h -3.144532 v -13.808593 q 0,-5.078125 -2.441406,-5.078125 -1.640625,0 -2.34375,1.5625 -0.703125,1.542968 -0.703125,6.210937 v 11.113281 h -3.164062 v -21.445312 h 2.480468 l 0.527344,2.890625 h 0.195313 q 1.308593,-3.28125 3.925781,-3.28125 3.183594,0 4.160156,3.554687 h 0.117188 q 1.484379,-3.554687 4.277339,-3.554687 2.5,0 3.63282,1.816406 1.13281,1.796875 1.13281,6.015625 v 14.003906 z"
         style="fill:#e5e5e5;fill-opacity:1"
         id="path2258" />
      <path
         d="m 122.12695,-62.731866 q 2.07032,0 2.07032,2.226562 0,1.132813 -0.625,1.699219 -0.60547,0.546875 -1.44532,0.546875 -2.08984,0 -2.08984,-2.246094 0,-2.226562 2.08984,-2.226562 z m -1.79687,11.640625 -5.25391,-0.410156 v -2.402344 h 8.8086 v 18.652344 l 6.875,0.390625 v 2.402343 h -17.14844 v -2.402343 l 6.71875,-0.390625 z"
         style="fill:#e5e5e5;fill-opacity:1"
         id="path2260" />
      <path
         d="m 151.0918,-32.458429 v -13.808593 q 0,-5.078125 -4.64844,-5.078125 -5.99609,0 -5.99609,7.773437 v 11.113281 h -3.55469 v -21.445312 h 2.87109 l 0.52735,2.890625 h 0.19531 q 2.01172,-3.28125 6.5625,-3.28125 7.59765,0 7.59765,7.832031 v 14.003906 z"
         style="fill:#e5e5e5;fill-opacity:1"
         id="path2262" />
      <path
         d="m 175.25195,-32.458429 -0.72265,-2.96875 h -0.15625 q -1.50391,1.894532 -3.08594,2.636719 -1.58203,0.722656 -4.08203,0.722656 -3.1836,0 -5,-1.679687 -1.79688,-1.679688 -1.79688,-4.707031 0,-6.484375 9.96094,-6.796875 l 3.96484,-0.136719 v -1.347656 q 0,-4.609375 -4.76562,-4.609375 -2.87109,0 -6.40625,1.601562 l -1.23047,-2.675781 q 3.82813,-1.875 7.48047,-1.875 4.43359,0 6.40625,1.699219 1.99219,1.699218 1.99219,5.449218 v 14.6875 z m -0.95703,-10.488281 -3.16406,0.136719 q -3.82813,0.15625 -5.42969,1.210937 -1.60156,1.035157 -1.60156,3.183594 0,3.476563 3.90625,3.476563 2.87109,0 4.57031,-1.582032 1.71875,-1.601562 1.71875,-4.492187 z"
         style="fill:#e5e5e5;fill-opacity:1"
         id="path2264" />
      <path
         d="m 192.16602,-60.056085 -5.23438,-0.410156 v -2.382813 h 8.80859 v 27.597657 l 6.875,0.390625 v 2.402343 h -17.16796 v -2.402343 l 6.71875,-0.390625 z"
         style="fill:#e5e5e5;fill-opacity:1"
         id="path2266" />
      <path
         d="m 219.41412,-61.618585 h 24.66797 v 3.320313 h -10.35156 v 25.839843 h -3.96484 v -25.839843 h -10.35157 z"
         style="line-height:1.25;fill:#c463c8;fill-opacity:1"
         id="path2268" />
      <path
         d="m 265.91803,-45.661554 v 13.203125 h -3.59375 v -13.085937 q 0,-3.105469 -1.21094,-4.648438 -1.21094,-1.542968 -3.63281,-1.542968 -2.91016,0 -4.58984,1.855468 -1.67969,1.855469 -1.67969,5.058594 v 12.363281 h -3.61328 v -30.390625 h 3.61328 v 11.914063 q 1.28906,-1.972656 3.02734,-2.949219 1.75781,-0.976562 4.04297,-0.976562 3.76953,0 5.70313,2.34375 1.93359,2.324218 1.93359,6.855468 z"
         style="line-height:1.25;fill:#4568c9;fill-opacity:1"
         id="path2270" />
      <path
         d="m 291.79694,-44.294366 v 1.757812 H 275.2735 q 0.23437,3.710938 2.22656,5.664063 2.01172,1.933594 5.58594,1.933594 2.07031,0 4.0039,-0.507813 1.95313,-0.507812 3.86719,-1.523437 v 3.398437 q -1.93359,0.820313 -3.96484,1.25 -2.03125,0.429688 -4.1211,0.429688 -5.23437,0 -8.30078,-3.046875 -3.04687,-3.046875 -3.04687,-8.242188 0,-5.371094 2.89062,-8.515625 2.91016,-3.164062 7.83203,-3.164062 4.41407,0 6.97266,2.851562 2.57813,2.832031 2.57813,7.714844 z m -3.59375,-1.054688 q -0.0391,-2.949218 -1.66016,-4.707031 -1.60156,-1.757812 -4.25781,-1.757812 -3.00782,0 -4.82422,1.699218 -1.79688,1.699219 -2.07031,4.785157 z"
         style="line-height:1.25;fill:#37c8b2;fill-opacity:1"
         id="path2272" />
      <path
         d="m 314.72662,-50.13421 q 1.34766,-2.421875 3.22266,-3.574219 1.875,-1.152343 4.41406,-1.152343 3.41797,0 5.27344,2.402343 1.85547,2.382813 1.85547,6.796875 v 13.203125 h -3.61328 v -13.085937 q 0,-3.144531 -1.11328,-4.667969 -1.11329,-1.523437 -3.39844,-1.523437 -2.79297,0 -4.41406,1.855468 -1.6211,1.855469 -1.6211,5.058594 v 12.363281 h -3.61328 v -13.085937 q 0,-3.164063 -1.11328,-4.667969 -1.11328,-1.523437 -3.4375,-1.523437 -2.75391,0 -4.375,1.875 -1.62109,1.855468 -1.62109,5.039062 v 12.363281 h -3.61329 v -21.875 h 3.61329 v 3.398438 q 1.23046,-2.011719 2.94921,-2.96875 1.71875,-0.957031 4.08204,-0.957031 2.38281,0 4.04296,1.210937 1.67969,1.210938 2.48047,3.515625 z"
         style="line-height:1.25;fill:#b8c459;fill-opacity:1"
         id="path2274" />
      <path
         d="m 355.37115,-44.294366 v 1.757812 h -16.52343 q 0.23437,3.710938 2.22656,5.664063 2.01172,1.933594 5.58594,1.933594 2.07031,0 4.0039,-0.507813 1.95313,-0.507812 3.86719,-1.523437 v 3.398437 q -1.93359,0.820313 -3.96484,1.25 -2.03125,0.429688 -4.1211,0.429688 -5.23437,0 -8.30078,-3.046875 -3.04687,-3.046875 -3.04687,-8.242188 0,-5.371094 2.89062,-8.515625 2.91016,-3.164062 7.83203,-3.164062 4.41407,0 6.97266,2.851562 2.57812,2.832031 2.57812,7.714844 z m -3.59375,-1.054688 q -0.0391,-2.949218 -1.66015,-4.707031 -1.60156,-1.757812 -4.25781,-1.757812 -3.00782,0 -4.82422,1.699218 -1.79688,1.699219 -2.07032,4.785157 z"
         style="line-height:1.25;fill:#ca4c4c;fill-opacity:1"
         id="path2276" />
    </g>
  </g>
</svg>
