<?xml version="1.0" encoding="UTF-8" standalone="no"?>
<!-- Created with Inkscape (http://www.inkscape.org/) -->

<svg
   width="210mm"
   height="297mm"
   viewBox="0 0 210 297"
   version="1.1"
   id="svg5"
   inkscape:version="1.1.1 (3bf5ae0d25, 2021-09-20)"
   sodipodi:docname="wild-wild-parser_inkscape.svg"
   xmlns:inkscape="http://www.inkscape.org/namespaces/inkscape"
   xmlns:sodipodi="http://sodipodi.sourceforge.net/DTD/sodipodi-0.dtd"
   xmlns="http://www.w3.org/2000/svg"
   xmlns:svg="http://www.w3.org/2000/svg">
  <sodipodi:namedview
     id="namedview7"
     pagecolor="#ffffff"
     bordercolor="#666666"
     borderopacity="1.0"
     inkscape:pageshadow="2"
     inkscape:pageopacity="0.0"
     inkscape:pagecheckerboard="0"
     inkscape:document-units="mm"
     showgrid="false"
     inkscape:zoom="2.9648622"
     inkscape:cx="426.83265"
     inkscape:cy="229.18434"
     inkscape:window-width="1852"
     inkscape:window-height="1016"
     inkscape:window-x="0"
     inkscape:window-y="0"
     inkscape:window-maximized="1"
     inkscape:current-layer="layer1" />
  <defs
     id="defs2">
    <rect
       x="121.61411"
       y="-5.3926041"
       width="613.20577"
       height="155.60996"
       id="rect15874" />
    <rect
       x="53.313405"
       y="131.82003"
       width="721.87853"
       height="237.26932"
       id="rect2739" />
    <rect
       x="53.313404"
       y="131.82002"
       width="721.87854"
       height="237.26932"
       id="rect2739-8" />
  </defs>
  <g
     inkscape:label="Layer 1"
     inkscape:groupmode="layer"
     id="layer1">
    <g
       aria-label="Wild Wild Parser"
       transform="matrix(0.26458333,0,0,0.26458333,30.69168,0)"
       id="text2737"
       style="font-size:106.667px;line-height:1.25;white-space:pre;shape-inside:url(#rect2739);fill:#b4774f">
      <path
         d="m 127.9794,155.18039 c -2.02667,-2.66668 -3.41334,-6.72003 -4.16001,-12.58671 h -14.08005 c -0.53333,5.86668 -1.92,9.92003 -3.94668,12.58671 h 5.54669 l -6.61336,41.17346 -7.68002,-41.17346 h 5.22668 c -2.02667,-2.66668 -3.413341,-6.72003 -4.053343,-12.58671 H 83.925929 c -0.533335,5.86668 -1.920006,9.92003 -3.840012,12.58671 h 5.440017 l -6.40002,41.17346 -7.893358,-41.17346 h 5.33335 C 74.6459,152.51371 73.259229,148.46036 72.725894,142.59368 H 58.325849 c -0.533335,5.86668 -1.920006,9.92003 -3.840012,12.58671 h 4.480014 l 11.946704,60.90685 h -4.480014 c 2.026673,2.66668 3.413344,7.04002 4.053346,12.80004 H 88.51261 c 0.640002,-5.65335 1.813339,-9.92003 3.733345,-12.5867 2.026673,2.66667 3.306677,6.93335 3.946679,12.5867 h 18.026726 c 0.53333,-5.76002 1.92,-10.13336 4.05334,-12.80004 h -4.37334 l 9.49336,-60.90685 z m -39.680124,60.90685 4.160013,-25.28008 4.160013,25.28008 z"
         style="font-family:'Vanilla Whale';-inkscape-font-specification:'Vanilla Whale'"
         id="path58062" />
      <path
         d="m 143.65929,207.12721 v -43.09346 h 2.66668 c -1.28001,-1.81334 -2.24001,-4.69335 -2.66668,-8.85336 h -10.13336 c -0.42667,4.16001 -1.38667,7.04002 -2.77334,8.85336 h 2.77334 v 43.09346 h -2.77334 c 1.38667,1.81334 2.34667,4.80002 2.77334,8.96003 h 10.13336 c 0.42667,-4.16001 1.38667,-7.14669 2.66668,-8.96003 z m 4.80002,-64.53353 h -19.30673 v 6.82669 h 19.30673 z m 0,79.46691 h -28.99479 v 6.82669 h 28.99479 z"
         style="font-family:'Vanilla Whale';-inkscape-font-specification:'Vanilla Whale'"
         id="path58064"
         sodipodi:nodetypes="ccccccccccccccccccccccc" />
      <path
         d="m 180.56594,207.12721 v -8.21335 c -1.81334,1.06667 -3.41335,1.6 -4.90669,1.6 -1.6,0 -3.30667,-0.53333 -5.22668,-1.6 v 8.21335 h -8.00002 v -43.09346 h 2.66667 c -1.28,-1.81334 -2.24001,-4.69335 -2.66667,-8.85336 h -10.13337 c -0.42667,4.16001 -1.38667,7.04002 -2.77334,8.85336 h 2.77334 v 43.09346 h -2.77334 c 1.38667,1.81334 2.34667,4.80002 2.77334,8.96003 h 28.26676 c 0.42666,-4.16001 1.28,-7.14669 2.77334,-8.96003 z m 4.05334,-64.53353 h -36.69345 v 6.82669 h 36.69345 z m 0,79.46691 h -36.69345 v 6.82669 h 36.69345 z"
         style="font-family:'Vanilla Whale';-inkscape-font-specification:'Vanilla Whale'"
         id="path58066" />
      <path
         d="m 216.83253,166.16709 c -4.69335,0 -8.10669,-5.76002 -8.10669,-10.9867 h -20.16006 c -0.42667,4.05334 -1.38668,6.93335 -2.77335,8.85336 h 2.77335 v 43.09346 h -2.77335 c 1.38667,1.81334 2.34668,4.80002 2.77335,8.96003 h 20.16006 c 0.10667,-4.05334 4.48001,-11.09337 8.10669,-11.41337 z m -10.13336,34.77344 c -2.24001,0 -4.16002,4.37335 -4.16002,6.18668 h -3.84001 v -43.09346 h 3.84001 c 0,1.92 1.92001,6.08002 4.16002,6.08002 z m 12.16003,-58.34685 h -34.66677 v 6.82669 h 34.66677 z m 0,79.46691 h -34.66677 v 6.82669 h 34.66677 z"
         style="font-family:'Vanilla Whale';-inkscape-font-specification:'Vanilla Whale'"
         id="path58068" />
      <path
         d="m 314.29076,155.18039 c -2.02668,-2.66668 -3.41335,-6.72003 -4.16002,-12.58671 H 296.0507 c -0.53334,5.86668 -1.92001,9.92003 -3.94668,12.58671 h 5.54668 l -6.61335,41.17346 -7.68002,-41.17346 h 5.22668 c -2.02667,-2.66668 -3.41335,-6.72003 -4.05335,-12.58671 h -14.29338 c -0.53333,5.86668 -1.92,9.92003 -3.84001,12.58671 h 5.44002 l -6.40002,41.17346 -7.89336,-41.17346 h 5.33335 c -1.92,-2.66668 -3.30668,-6.72003 -3.84001,-12.58671 H 244.6372 c -0.53333,5.86668 -1.92,9.92003 -3.84001,12.58671 h 4.48002 l 11.9467,60.90685 h -4.48001 c 2.02667,2.66668 3.41334,7.04002 4.05334,12.80004 h 18.02673 c 0.64,-5.65335 1.81333,-9.92003 3.73334,-12.5867 2.02667,2.66667 3.30668,6.93335 3.94668,12.5867 h 18.02672 c 0.53334,-5.76002 1.92001,-10.13336 4.05335,-12.80004 h -4.37335 l 9.49336,-60.90685 z m -39.68013,60.90685 4.16001,-25.28008 4.16002,25.28008 z"
         style="font-family:'Vanilla Whale';-inkscape-font-specification:'Vanilla Whale'"
         id="path58070" />
      <path
         d="m 329.97064,207.12721 v -43.09346 h 2.66668 c -1.28001,-1.81334 -2.24001,-4.69335 -2.66668,-8.85336 h -10.13336 c -0.42667,4.16001 -1.38668,7.04002 -2.77335,8.85336 h 2.77335 v 43.09346 h -2.77335 c 1.38667,1.81334 2.34668,4.80002 2.77335,8.96003 h 10.13336 c 0.42667,-4.16001 1.38667,-7.14669 2.66668,-8.96003 z m 4.80002,-64.53353 h -19.30673 v 6.82669 h 19.30673 z m 0,79.46691 h -28.97543 v 6.82669 h 28.97543 z"
         style="font-family:'Vanilla Whale';-inkscape-font-specification:'Vanilla Whale'"
         id="path58072"
         sodipodi:nodetypes="ccccccccccccccccccccccc" />
      <path
         d="m 366.87728,207.12721 v -8.21335 c -1.81333,1.06667 -3.41334,1.6 -4.90668,1.6 -1.6,0 -3.30667,-0.53333 -5.22668,-1.6 v 8.21335 h -8.00003 v -43.09346 h 2.66668 c -1.28,-1.81334 -2.24001,-4.69335 -2.66668,-8.85336 h -10.13336 c -0.42667,4.16001 -1.38667,7.04002 -2.77334,8.85336 h 2.77334 v 43.09346 h -2.77334 c 1.38667,1.81334 2.34667,4.80002 2.77334,8.96003 h 28.26675 c 0.42667,-4.16001 1.28001,-7.14669 2.77335,-8.96003 z m 4.05335,-64.53353 h -36.69345 v 6.82669 h 36.69345 z m 0,79.46691 h -36.69345 v 6.82669 h 36.69345 z"
         style="font-family:'Vanilla Whale';-inkscape-font-specification:'Vanilla Whale'"
         id="path58074" />
      <path
         d="m 403.14389,166.16709 c -4.69335,0 -8.1067,-5.76002 -8.1067,-10.9867 h -20.16006 c -0.42667,4.05334 -1.38667,6.93335 -2.77334,8.85336 h 2.77334 v 43.09346 h -2.77334 c 1.38667,1.81334 2.34667,4.80002 2.77334,8.96003 h 20.16006 c 0.10667,-4.05334 4.48002,-11.09337 8.1067,-11.41337 z m -10.13337,34.77344 c -2.24001,0 -4.16001,4.37335 -4.16001,6.18668 h -3.84001 v -43.09346 h 3.84001 c 0,1.92 1.92,6.08002 4.16001,6.08002 z m 12.16004,-58.34685 h -34.66678 v 6.82669 h 34.66678 z m 0,79.46691 h -34.66678 v 6.82669 h 34.66678 z"
         style="font-family:'Vanilla Whale';-inkscape-font-specification:'Vanilla Whale'"
         id="path58076" />
      <path
         d="m 476.0687,155.18039 c -2.02667,-2.66668 -3.41334,-6.72003 -4.05334,-12.58671 H 432.1219 c -0.64,5.86668 -1.92001,9.92003 -3.94668,12.58671 h 3.94668 v 60.90685 h -3.94668 c 2.02667,2.66668 3.30668,6.82669 3.94668,12.80004 h 14.29338 c 0.64,-5.97335 2.02667,-10.13336 3.94667,-12.80004 h -3.94667 v -24.85341 c 4.58668,-8.10669 15.68004,-13.86671 25.60008,-13.86671 v -22.18673 z m -18.34672,14.08004 c -4.05335,1.17334 -8.10669,3.73334 -11.3067,7.04002 v -21.12006 h 11.3067 z"
         style="font-family:'Vanilla Whale';-inkscape-font-specification:'Vanilla Whale'"
         id="path58078" />
      <path
         d="m 509.24209,207.12721 -8.4267,-43.09346 h 3.09335 c -1.38667,-1.92001 -2.45334,-4.80002 -2.77335,-8.85336 h -12.9067 c -0.32,4.16001 -1.38667,7.04002 -2.66668,8.85336 h 2.98668 l -6.72002,43.09346 h -3.20001 c 1.38667,1.81334 2.45334,4.80002 2.77334,8.96003 h 10.13336 c 0.53334,-4.16001 1.38668,-7.14669 2.77335,-8.96003 h -3.84002 l 0.85334,-6.29335 h 8.21336 l 1.06667,6.29335 h -3.84001 c 1.38667,1.81334 2.45334,4.80002 2.77334,8.96003 h 10.13336 c 0.42667,-4.16001 1.38668,-7.14669 2.88001,-8.96003 z m -16.74672,-13.76004 2.45334,-15.36005 2.98667,15.36005 z m 21.3334,-50.77349 h -35.94678 v 6.82669 h 35.94678 z m 0,79.46691 h -61.76582 v 6.82669 h 61.76582 z"
         style="font-family:'Vanilla Whale';-inkscape-font-specification:'Vanilla Whale'"
         id="path58080"
         sodipodi:nodetypes="ccccccccccccccccccccccccccccccccccc" />
      <path
         d="m 545.93542,207.12721 v -17.60005 c -5.33335,0 -9.49336,-1.81334 -12.58671,-5.44002 3.30668,-3.41334 7.46669,-5.12001 12.58671,-5.12001 v -14.93338 h 2.77334 c -1.49334,-1.92001 -2.34667,-4.80002 -2.77334,-8.85336 h -28.26675 c -0.42667,4.05334 -1.38668,6.93335 -2.77335,8.85336 h 2.77335 v 43.09346 h -2.77335 c 1.38667,1.81334 2.34668,4.80002 2.77335,8.96003 h 10.13336 c 0.42667,-4.16001 1.38667,-7.14669 2.66668,-8.96003 h -2.66668 v -17.60005 c 2.45334,2.98668 5.12002,4.58668 8.00003,5.22668 v 12.37337 h -2.77335 c 1.49334,1.81334 2.34668,4.80002 2.77335,8.96003 h 10.13336 c 0.42667,-4.16001 1.28,-7.14669 2.77334,-8.96003 z m -10.13336,-33.17343 c -2.88001,0.74667 -5.76002,2.77334 -8.00003,5.01335 v -14.93338 h 8.00003 z m 15.04004,-31.3601 h -37.54678 v 6.82669 h 37.54678 z m 0,79.46691 h -37.54678 v 6.82669 h 37.54678 z"
         style="font-family:'Vanilla Whale';-inkscape-font-specification:'Vanilla Whale'"
         id="path58082" />
      <path
         d="m 582.9487,207.12721 v -23.78674 c -7.89336,0 -12.16004,-3.73334 -18.13339,-3.73334 v -15.57338 h 8.00002 v 8.00002 c 1.70667,-1.17334 3.41334,-1.81334 5.22668,-1.81334 1.81334,0 3.52001,0.64 4.90669,1.81334 v -8.00002 h 2.77334 c -1.49334,-1.81334 -2.34668,-4.69335 -2.77334,-8.85336 h -28.26676 c -0.42667,4.16001 -1.38667,7.04002 -2.77334,8.85336 h 2.77334 v 22.40007 c 7.89336,0 11.6267,3.84001 18.13339,3.84001 v 16.85338 h -8.00002 v -8.21335 c -1.81334,1.06667 -3.41335,1.6 -5.01335,1.6 -1.60001,0 -3.30668,-0.53333 -5.12002,-1.6 v 8.21335 h -2.77334 c 1.38667,1.81334 2.34667,4.80002 2.77334,8.96003 h 28.26676 c 0.42666,-4.16001 1.28,-7.14669 2.77334,-8.96003 z m 4.90668,-64.53353 h -37.54679 v 6.82669 h 37.54679 z m 0,79.46691 h -37.54679 v 6.82669 h 37.54679 z"
         style="font-family:'Vanilla Whale';-inkscape-font-specification:'Vanilla Whale'"
         id="path58084" />
      <path
         d="m 619.96194,207.12721 v -8.21335 c -1.81334,1.06667 -3.41334,1.6 -4.90668,1.6 -1.60001,0 -3.30668,-0.53333 -5.22668,-1.6 v 8.21335 h -8.00003 v -19.20006 h 14.50671 c -0.85333,-1.06667 -1.28,-2.34667 -1.28,-3.62667 0,-1.28001 0.42667,-2.45334 1.28,-3.73335 h -14.50671 v -16.53338 h 8.00003 v 8.21336 c 1.92,-1.06667 3.62667,-1.60001 5.22668,-1.60001 1.49334,0 3.09334,0.53334 4.90668,1.60001 v -8.21336 h 2.77334 c -1.49334,-1.81334 -2.34667,-4.69335 -2.77334,-8.85336 h -28.26675 c -0.42667,4.16001 -1.38668,7.04002 -2.77335,8.85336 h 2.77335 v 43.09346 h -2.77335 c 1.38667,1.81334 2.34668,4.80002 2.77335,8.96003 h 28.26675 c 0.42667,-4.16001 1.28,-7.14669 2.77334,-8.96003 z m 4.48001,-64.53353 h -37.12011 v 6.82669 h 37.12011 z m 0,79.46691 h -37.12011 v 6.82669 h 37.12011 z"
         style="font-family:'Vanilla Whale';-inkscape-font-specification:'Vanilla Whale'"
         id="path58086" />
      <path
         d="m 656.65536,207.12721 v -17.60005 c -5.33335,0 -9.49336,-1.81334 -12.58671,-5.44002 3.30668,-3.41334 7.46669,-5.12001 12.58671,-5.12001 v -14.93338 h 2.77334 c -1.49334,-1.92001 -2.34667,-4.80002 -2.77334,-8.85336 h -28.26675 c -0.42667,4.05334 -1.38668,6.93335 -2.77335,8.85336 h 2.77335 v 43.09346 h -2.77335 c 1.38667,1.81334 2.34668,4.80002 2.77335,8.96003 h 10.13336 c 0.42667,-4.16001 1.38667,-7.14669 2.66668,-8.96003 h -2.66668 v -17.60005 c 2.45334,2.98668 5.12002,4.58668 8.00003,5.22668 v 12.37337 h -2.77335 c 1.49334,1.81334 2.34668,4.80002 2.77335,8.96003 h 10.13336 c 0.42667,-4.16001 1.28,-7.14669 2.77334,-8.96003 z M 646.522,173.95378 c -2.88001,0.74667 -5.76002,2.77334 -8.00003,5.01335 v -14.93338 h 8.00003 z m 15.04004,-31.3601 h -37.54678 v 6.82669 h 37.54678 z m 0,79.46691 h -37.54678 v 6.82669 h 37.54678 z"
         style="font-family:'Vanilla Whale';-inkscape-font-specification:'Vanilla Whale'"
         id="path58088" />
    </g>
    <g
       transform="matrix(0.00242794,0,0,-0.00242794,9.7763893,62.922891)"
       fill="#000000"
       stroke="none"
       id="g20365"
       style="fill:#ecc21d;fill-opacity:1">
      <path
         d="m 6240,12182 c -227,-59 -383,-291 -350,-521 18,-128 64,-216 156,-300 l 54,-49 -131,-379 c -137,-397 -250,-723 -398,-1150 -49,-142 -130,-375 -179,-518 -433,-1252 -545,-1571 -552,-1579 -8,-8 -464,-28 -2996,-133 l -900,-38 -32,66 c -63,133 -208,238 -361,262 -317,49 -597,-238 -543,-555 60,-351 463,-516 756,-310 34,23 54,32 63,26 95,-63 3072,-2323 3072,-2332 1,-8 -26,-109 -58,-225 -33,-117 -123,-439 -201,-717 -78,-278 -167,-599 -200,-715 -32,-115 -89,-318 -125,-450 -37,-132 -93,-332 -125,-445 -31,-113 -117,-419 -190,-681 l -133,-476 -60,-1 c -203,-6 -381,-147 -443,-351 -19,-62 -18,-195 2,-262 66,-226 297,-376 528,-342 196,28 361,179 406,372 12,50 9,175 -5,241 -5,23 95,95 1585,1133 L 6470,2861 8077,1794 C 8962,1207 9686,726 9687,725 c 1,0 -4,-25 -12,-55 -33,-123 -11,-280 53,-380 73,-115 206,-202 340,-222 287,-45 552,184 552,477 0,250 -200,463 -447,477 -29,2 -53,4 -53,5 0,1 -20,66 -44,145 -24,79 -135,442 -246,808 -111,366 -228,751 -260,855 -32,105 -149,489 -260,855 -111,366 -228,751 -260,855 -46,147 -56,193 -47,201 20,19 2991,2369 3005,2378 8,5 20,2 30,-7 10,-9 48,-30 86,-48 58,-27 83,-33 166,-37 153,-7 264,35 369,140 182,182 185,480 6,667 -234,245 -633,182 -781,-124 l -36,-77 -247,6 c -135,4 -493,11 -796,16 -302,6 -766,15 -1030,20 -264,5 -772,15 -1130,21 -357,6 -653,14 -657,18 -6,5 -142,368 -418,1111 -38,102 -110,295 -160,430 -50,135 -122,328 -160,430 -38,102 -110,295 -160,430 -50,135 -122,328 -160,430 -38,102 -110,295 -160,430 -51,135 -99,266 -108,292 l -16,48 57,56 c 109,109 164,271 139,416 -49,285 -324,463 -602,390 z"
         id="path20363"
         style="fill:#ecc21d;fill-opacity:1" />
    </g>
  </g>
</svg>
