<?xml version="1.0" encoding="UTF-8" standalone="no"?>
<!-- Created with Inkscape (http://www.inkscape.org/) -->

<svg
   width="207.33345mm"
   height="92.413322mm"
   viewBox="0 0 207.33345 92.413322"
   version="1.1"
   id="svg5"
   xmlns="http://www.w3.org/2000/svg"
   xmlns:svg="http://www.w3.org/2000/svg">
  <defs
     id="defs2">
    <rect
       x="79.917511"
       y="105.80896"
       width="588.11554"
       height="137.73727"
       id="rect6567" />
    <rect
       x="79.917511"
       y="105.80896"
       width="588.11554"
       height="137.73727"
       id="rect6567-9" />
  </defs>
  <g
     id="layer1"
     transform="translate(-2.5243781,-15.10268)">
    <g
       id="g7567">
      <path
         d="m 22.049166,52.229117 c 0,3.514751 2.811801,6.276341 6.22613,6.276341 3.46454,0 6.226131,-2.76159 6.226131,-6.276341 0,-3.46454 -2.761591,-6.276341 -6.226131,-6.276341 -3.414329,0 -6.22613,2.811801 -6.22613,6.276341 z M 47.204741,42.186971 H 47.15453 C 47.204741,32.144826 39.673132,32.144826 33.396791,32.144826 H 23.354645 c -5.021073,0 -13.8079509,0 -13.8079509,10.042145 -0.050211,1.154847 0,15.916801 0,17.573755 H 19.58884 v -13.80795 c 0,-3.765805 2.108851,-3.715594 3.765805,-3.765805 h 10.042146 c 1.255268,0 3.765804,0 3.765804,3.765805 v 13.80795 h 10.042146 z"
         id="path2112"
         style="font-size:96px;line-height:1.25;font-family:Atmos;-inkscape-font-specification:Atmos;white-space:pre;fill:#d9d9d9;fill-opacity:1;stroke-width:0.523028" />
      <path
         id="path2109"
         style="font-size:96px;line-height:1.25;font-family:Atmos;-inkscape-font-specification:Atmos;white-space:pre;fill:#cc0000;fill-opacity:1;stroke-width:0.523028"
         d="m 63.473131,32.144809 c -5.021075,0 -13.757818,1.35e-4 -13.757818,10.042282 -0.05021,0.753161 -0.05013,6.075212 -0.05013,7.531323 h 0.05013 c -0.05021,10.042147 7.481475,10.042282 13.757818,10.042282 h 2.51044 c 5.021072,0 13.807943,-1.35e-4 13.807943,-10.042282 v -7.531323 c 0,-10.042147 -7.531603,-10.042282 -13.807943,-10.042282 z m -6.342251,3.858679 c 0.283014,-0.0016 0.591995,0.156162 0.982887,0.507462 0.328097,0.294868 3.323937,3.047757 6.577376,6.041491 3.001237,-2.761073 6.267421,-5.764784 6.575311,-6.041491 0.78178,-0.702603 1.236173,-0.630443 1.810224,-0.05994 0.574053,0.570498 1.037307,1.095058 1.602486,1.73943 0.565179,0.644368 0.460967,1.094525 -0.207738,1.798854 -0.275992,0.290698 -3.11385,2.921513 -6.249231,5.81515 3.22403,2.970409 6.141053,5.662153 6.318994,5.842022 0.506034,0.511516 0.725768,1.236599 0.207737,1.798857 l -1.602486,1.739429 c -0.439417,0.476932 -0.940988,0.663826 -1.810223,-0.05995 -0.372804,-0.310412 -3.344461,-3.028479 -6.647141,-6.065261 -3.2625,2.999447 -6.27652,5.757956 -6.64559,6.065261 -0.869238,0.723773 -1.370288,0.536885 -1.809708,0.05995 l -1.602486,-1.739429 c -0.518025,-0.562258 -0.298812,-1.287341 0.207222,-1.798857 0.166029,-0.167831 3.376536,-3.126322 6.320028,-5.838921 -3.185528,-2.939613 -5.970288,-5.523899 -6.249747,-5.818251 -0.668708,-0.704329 -0.772919,-1.154486 -0.20774,-1.798854 0.565179,-0.644372 1.028436,-1.168932 1.602486,-1.73943 0.287025,-0.285247 0.544327,-0.445931 0.827339,-0.447518 z" />
      <path
         d="m 82.352193,49.718581 c 0,10.042145 8.736667,10.042145 13.75774,10.042145 h 2.510536 c 6.276341,0 13.807951,0 13.807951,-10.042145 v 0 -27.615901 h -10.04215 v 10.192778 c -1.30548,-0.150632 -2.610954,-0.150632 -3.765801,-0.150632 h -2.510536 c -6.276341,0 -13.807951,0 -13.75774,10.042145 h -0.05021 c 0.05021,1.506322 0.05021,6.828659 0.05021,7.53161 z m 9.991935,-3.765805 v 0 c 0,-3.765805 2.510536,-3.765805 3.765805,-3.765805 h 2.510536 c 1.656951,0.05021 3.765801,0 3.765801,3.765805 v 0 0.05021 c 0,3.715594 -2.510533,3.715594 -3.765801,3.715594 h -2.510536 c -1.606744,0 -3.765805,0 -3.765805,-3.715594 z"
         id="path2106"
         style="font-size:96px;line-height:1.25;font-family:Atmos;-inkscape-font-specification:Atmos;white-space:pre;fill:#d9d9d9;fill-opacity:1;stroke-width:0.523028" />
      <path
         d="m 128.89752,39.676435 c 0,3.514751 2.76159,6.276341 6.22613,6.276341 3.41433,0 6.22613,-2.76159 6.22613,-6.276341 0,-3.46454 -2.8118,-6.276341 -6.22613,-6.276341 -3.46454,0 -6.22613,2.811801 -6.22613,6.276341 z m -0.10042,10.042146 c -1.25527,0 -3.76581,0 -3.76581,-3.715594 V 32.295458 c -4.77002,0.351475 -10.04214,2.108851 -10.04214,9.891513 0,0.753161 0,6.075499 0,7.53161 v 0 c 0,10.042145 7.5316,10.042145 13.80795,10.042145 h 2.51053 c 5.02108,0 13.75774,0 13.75774,-10.042145 z"
         id="path2103"
         style="font-size:96px;line-height:1.25;font-family:Atmos;-inkscape-font-specification:Atmos;white-space:pre;fill:#d9d9d9;fill-opacity:1;stroke-width:0.523028" />
      <path
         d="m 170.22093,32.144826 h -8.78688 c -5.02107,0 -13.80795,0 -13.80795,10.042145 v 17.573755 h 10.04215 v -0.05021 -13.75774 0 c 0,-3.765805 2.10885,-3.715594 3.7658,-3.765805 h 8.78688 z"
         id="path2100"
         style="font-size:96px;line-height:1.25;font-family:Atmos;-inkscape-font-specification:Atmos;white-space:pre;fill:#d9d9d9;fill-opacity:1;stroke-width:0.523028" />
      <path
         d="m 202.85781,42.186971 h -0.0502 c 0.0502,-10.042145 -7.48139,-10.042145 -13.75774,-10.042145 h -2.51053 c -5.02107,0 -13.80795,0 -13.80795,10.042145 -0.0502,1.154847 0,15.916801 0,17.573755 h 10.04214 v -13.80795 c 0,-3.765805 2.10885,-3.715594 3.76581,-3.765805 h 2.51053 c 1.25527,0 3.76581,0 3.76581,3.765805 v 13.80795 h 10.04215 z"
         id="path2097"
         style="font-size:96px;line-height:1.25;font-family:Atmos;-inkscape-font-specification:Atmos;white-space:pre;fill:#d9d9d9;fill-opacity:1;stroke-width:0.523028" />
    </g>
    <g
       id="g7553">
      <path
         id="path2109-6"
         style="font-size:96px;line-height:1.25;font-family:Atmos;-inkscape-font-specification:Atmos;white-space:pre;shape-inside:url(#rect6567);fill:#cc0000;fill-opacity:1;stroke-width:0.999997"
         d="m 307.74705,219.73012 c -9.5999,0 -26.30387,2.6e-4 -26.30387,19.20034 -0.096,1.44 -0.0958,11.6155 -0.0958,14.39951 h 0.0958 c -0.096,19.20009 14.30399,19.20034 26.30387,19.20034 h 4.79977 c 9.59992,0 26.39973,-2.5e-4 26.39973,-19.20034 v -14.39951 c 0,-19.20008 -14.39985,-19.20034 -26.39973,-19.20034 z m -12.12589,7.3776 c 0.54111,-0.003 1.13186,0.29857 1.87921,0.97024 0.6273,0.56377 6.35511,5.82716 12.57544,11.55103 5.73812,-5.27903 11.98282,-11.02198 12.57149,-11.55103 1.4947,-1.34334 2.36346,-1.20537 3.461,-0.1146 1.09754,1.09076 1.98325,2.09369 3.06384,3.3257 1.08058,1.232 0.88132,2.09268 -0.39719,3.43932 -0.52767,0.5558 -5.95344,5.58579 -11.94804,11.11828 6.16409,5.67927 11.74121,10.82574 12.08142,11.16965 0.96751,0.978 1.38761,2.36431 0.39718,3.43933 l -3.06384,3.3257 c -0.84011,0.91187 -1.79908,1.26919 -3.461,-0.11472 -0.71276,-0.59348 -6.39435,-5.7903 -12.70882,-11.59647 -6.23765,5.73478 -12.00022,11.00891 -12.70585,11.59647 -1.66192,1.38382 -2.61989,1.02649 -3.46003,0.11472 l -3.06382,-3.3257 c -0.99043,-1.07502 -0.57132,-2.46133 0.39619,-3.43933 0.31744,-0.32089 6.45567,-5.97737 12.08341,-11.16373 -6.09049,-5.62039 -11.41473,-10.56141 -11.94904,-11.1242 -1.27852,-1.34664 -1.47776,-2.20732 -0.39718,-3.43932 1.08058,-1.23201 1.96628,-2.23494 3.06382,-3.3257 0.54878,-0.54538 1.04071,-0.8526 1.58181,-0.85564 z"
         transform="matrix(0.52302841,0,0,0.52302841,-32.252674,-42.025096)" />
      <g
         aria-label="Errors"
         transform="matrix(0.52302842,0,0,0.52302842,-9.6993691,-1.2754062)"
         id="text6565-3"
         style="font-size:96px;line-height:1.25;font-family:Atmos;-inkscape-font-specification:Atmos;white-space:pre;shape-inside:url(#rect6567-9);fill:#262626;fill-opacity:1">
        <path
           d="m 106.50997,156.20859 c 0,6.72 5.28,12 11.904,12 6.528,0 11.904,-5.28 11.904,-12 0,-6.624 -5.376,-12 -11.904,-12 -6.624,0 -11.904,5.376 -11.904,12 z m -0.192,19.2 c -2.4,0 -7.200001,0 -7.200001,-7.104 v -26.208 c -9.12,0.672 -19.2,4.032 -19.2,18.912 0,1.44 0,11.616 0,14.4 v 0 c 0,19.2 14.4,19.2 26.400001,19.2 h 4.8 c 9.6,0 26.304,0 26.304,-19.2 z"
           id="path2130"
           style="fill:#d9d9d9;fill-opacity:1" />
        <path
           d="m 185.51793,141.80859 h -16.8 c -9.6,0 -26.4,0 -26.4,19.2 v 33.6 h 19.2 v -0.096 -26.304 0 c 0,-7.2 4.032,-7.104 7.2,-7.2 h 16.8 z"
           id="path2127"
           style="fill:#d9d9d9;fill-opacity:1" />
        <path
           d="m 233.51775,141.80859 h -16.8 c -9.6,0 -26.4,0 -26.4,19.2 v 33.6 h 19.2 v -0.096 -26.304 0 c 0,-7.2 4.032,-7.104 7.2,-7.2 h 16.8 z"
           id="path2124"
           style="fill:#d9d9d9;fill-opacity:1" />
        <path
           d="m 343.91753,141.80859 h -16.8 c -9.6,0 -26.4,0 -26.4,19.2 v 33.6 h 19.2 v -0.096 -26.304 0 c 0,-7.2 4.032,-7.104 7.2,-7.2 h 16.8 z"
           id="path2118"
           style="fill:#d9d9d9;fill-opacity:1" />
        <path
           d="m 387.11735,165.80859 v 2.496 c 0,7.104 -4.128,7.104 -7.2,7.104 h -31.2 v 19.2 h 31.2 c 9.6,0 26.304,0 26.304,-19.2 0.096,-0.672 0.096,-4.608 0.096,-9.6 z m -19.2,4.8 v -2.4 c 0,-7.2 4.032,-7.104 7.2,-7.2 h 31.2 v -19.2 h -31.2 c -9.6,0 -26.4,0 -26.4,19.2 0,0.768 0,4.704 0,9.6 z"
           id="path2115"
           style="fill:#d9d9d9;fill-opacity:1" />
      </g>
    </g>
  </g>
</svg>
