<?xml version="1.0" encoding="UTF-8" standalone="no"?>
<!-- Created with Inkscape (http://www.inkscape.org/) -->

<svg
   width="154.57281mm"
   height="30.167805mm"
   viewBox="0 0 154.57281 30.167805"
   version="1.1"
   id="svg5"
   xmlns="http://www.w3.org/2000/svg"
   xmlns:svg="http://www.w3.org/2000/svg">
  <defs
     id="defs2">
    <rect
       x="104.99195"
       y="207.3347"
       width="665.96704"
       height="312.09982"
       id="rect3422" />
  </defs>
  <g
     id="layer1"
     transform="translate(-21.941902,-46.062562)">
    <g
       aria-label="{&quot;safe-json&quot;:&quot;   alue&quot;}"
       transform="scale(0.26458333)"
       id="text3420"
       style="font-size:40px;font-family:'BadaBoom BB';-inkscape-font-specification:'BadaBoom BB';white-space:pre">
      <path
         d="m 119.54297,245.85126 q 0,1.58203 1.09375,2.30469 1.09375,0.74218 3.90625,0.78125 v 2.92968 q -8.55469,-0.11718 -8.55469,-5.72265 v -6.52344 q 0,-3.69141 -6.60156,-3.69141 v -3.02734 q 6.60156,0 6.60156,-3.69141 v -6.5039 q 0,-5.60547 8.55469,-5.72266 v 2.91016 q -2.8125,0.0391 -3.90625,0.78125 -1.09375,0.72265 -1.09375,2.30469 v 6.48437 q 0,4.04297 -4.55078,4.84375 v 0.23438 q 4.55078,0.80078 4.55078,4.84375 z"
         style="fill:#666666"
         id="path76506" />
      <path
         d="m 139.19141,216.98407 -0.80079,10.3125 h -3.02734 l -0.80078,-10.3125 z m 8.24218,0 -0.80078,10.3125 h -3.02734 l -0.80078,-10.3125 z"
         style="fill:#666666"
         id="path76508" />
      <path
         d="m 156.96484,244.58173 v -3.24219 q 3.76953,1.67969 7.22657,1.67969 5.37109,0 5.37109,-3.16406 0,-1.11329 -0.95703,-1.9336 -0.95703,-0.82031 -4.41406,-2.07031 -4.55079,-1.69922 -5.74219,-3.10547 -1.17188,-1.42578 -1.17188,-3.35937 0,-2.65625 2.16797,-4.16016 2.1875,-1.52344 6.03516,-1.52344 3.86719,0 7.20703,1.44531 l -1.17188,2.91016 q -3.55468,-1.40625 -6.23046,-1.40625 -4.60938,0 -4.60938,2.59766 0,1.1914 0.97656,1.91406 0.9961,0.70312 4.55078,1.97266 4.1211,1.5039 5.46875,2.96875 1.36719,1.44531 1.36719,3.55468 0,2.92969 -2.28515,4.60938 -2.28516,1.66015 -6.46485,1.66015 -4.84375,0 -7.32422,-1.34765 z"
         style="fill:#1a1a1a"
         id="path76510" />
      <path
         d="m 194.48437,245.53876 -0.72265,-2.96875 h -0.15625 q -1.50391,1.89453 -3.08594,2.63672 -1.58203,0.72265 -4.08203,0.72265 -3.18359,0 -5,-1.67968 -1.79688,-1.67969 -1.79688,-4.70703 0,-6.48438 9.96094,-6.79688 l 3.96485,-0.13672 v -1.34765 q 0,-4.60938 -4.76563,-4.60938 -2.87109,0 -6.40625,1.60156 l -1.23047,-2.67578 q 3.82813,-1.875 7.48047,-1.875 4.43359,0 6.40625,1.69922 1.99219,1.69922 1.99219,5.44922 v 14.6875 z m -0.95703,-10.48828 -3.16406,0.13672 q -3.82812,0.15625 -5.42969,1.21093 -1.60156,1.03516 -1.60156,3.1836 0,3.47656 3.90625,3.47656 2.87109,0 4.57031,-1.58203 1.71875,-1.60156 1.71875,-4.49219 z"
         style="fill:#1a1a1a"
         id="path76512" />
      <path
         d="m 221.39844,226.76923 h -7.59766 v 18.76953 h -3.55469 v -18.76953 h -6.1914 v -2.14844 l 6.1914,-0.64453 v -1.875 q 0,-3.76953 1.75782,-5.46875 1.75781,-1.69922 5.83984,-1.69922 2.51953,0 4.92187,0.68359 l -0.80078,2.79297 q -2.03125,-0.54687 -4.04297,-0.54687 -2.40234,0 -3.26171,0.97656 -0.85938,0.97656 -0.85938,3.22266 v 2.03125 h 7.59766 z"
         style="fill:#1a1a1a"
         id="path76514" />
      <path
         d="m 246.41797,235.4997 h -15.11719 q 0.15625,7.32422 6.71875,7.32422 3.80859,0 7.22656,-1.48438 v 3.125 q -3.24218,1.46484 -7.10937,1.46484 -4.78516,0 -7.65625,-2.91015 -2.8711,-2.92969 -2.8711,-8.04688 0,-5.19531 2.63672,-8.22265 2.65625,-3.04688 7.08985,-3.04688 4.14062,0 6.60156,2.61719 2.48047,2.61719 2.48047,6.97266 z m -15.03906,-2.89063 h 11.1914 q 0,-5.95703 -5.3125,-5.95703 -5.37109,0 -5.8789,5.95703 z"
         style="fill:#1a1a1a"
         id="path76516" />
      <path
         d="m 254.58203,236.45673 v -3.28125 h 12.87109 v 3.28125 z"
         style="fill:#1a1a1a"
         id="path76518" />
      <path
         d="m 287.53125,215.26532 q 2.08984,0 2.08984,2.22656 0,2.2461 -2.08984,2.2461 -2.07031,0 -2.07031,-2.2461 0,-2.22656 2.07031,-2.22656 z m -11.875,39.19922 v -3.00781 q 2.61719,0.76172 5.64453,0.76172 2.28516,0 3.55469,-1.11328 1.28906,-1.11329 1.28906,-3.08594 v -21.11328 l -8.20312,-0.41016 v -2.40234 h 11.75781 v 23.73047 q 0,3.51562 -2.20703,5.41015 -2.20703,1.91406 -6.23047,1.91406 -3.20313,0 -5.60547,-0.68359 z"
         style="fill:#1a1a1a"
         id="path76520" />
      <path
         d="m 300.98828,244.58173 v -3.24219 q 3.76953,1.67969 7.22656,1.67969 5.3711,0 5.3711,-3.16406 0,-1.11329 -0.95703,-1.9336 -0.95704,-0.82031 -4.41407,-2.07031 -4.55078,-1.69922 -5.74218,-3.10547 -1.17188,-1.42578 -1.17188,-3.35937 0,-2.65625 2.16797,-4.16016 2.1875,-1.52344 6.03516,-1.52344 3.86718,0 7.20703,1.44531 l -1.17188,2.91016 q -3.55469,-1.40625 -6.23047,-1.40625 -4.60937,0 -4.60937,2.59766 0,1.1914 0.97656,1.91406 0.99609,0.70312 4.55078,1.97266 4.1211,1.5039 5.46875,2.96875 1.36719,1.44531 1.36719,3.55468 0,2.92969 -2.28516,4.60938 -2.28515,1.66015 -6.46484,1.66015 -4.84375,0 -7.32422,-1.34765 z"
         style="fill:#1a1a1a"
         id="path76522" />
      <path
         d="m 332.94141,245.92938 q -4.21875,0 -6.95313,-3.02734 -2.71484,-3.04687 -2.71484,-8.125 0,-5.13672 2.63672,-8.10547 2.65625,-2.96875 7.14843,-2.96875 4.25782,0 6.97266,3.02735 2.71484,3.02734 2.71484,8.04687 0,5.17578 -2.67578,8.16406 -2.67578,2.98828 -7.1289,2.98828 z m 0.0781,-2.94921 q 6.05469,0 6.05469,-8.20313 0,-8.125 -6.09375,-8.125 -6.03516,0 -6.03516,8.125 0,8.20313 6.07422,8.20313 z"
         style="fill:#1a1a1a"
         id="path76524" />
      <path
         d="m 362.35547,245.53876 v -13.80859 q 0,-5.07813 -4.64844,-5.07813 -5.99609,0 -5.99609,7.77344 v 11.11328 h -3.55469 v -21.44531 h 2.87109 l 0.52735,2.89062 H 351.75 q 2.01172,-3.28125 6.5625,-3.28125 7.59766,0 7.59766,7.83203 v 14.00391 z"
         style="fill:#1a1a1a"
         id="path76526" />
      <path
         d="m 379.23047,216.98407 -0.80078,10.3125 h -3.02735 l -0.80078,-10.3125 z m 8.24219,0 -0.80079,10.3125 h -3.02734 l -0.80078,-10.3125 z"
         style="fill:#666666"
         id="path76528" />
      <path
         d="m 405.03125,223.54657 q 2.48047,0 2.48047,2.71485 0,2.71484 -2.48047,2.71484 -2.48047,0 -2.48047,-2.71484 0,-2.71485 2.48047,-2.71485 z m 0,17.10938 q 2.48047,0 2.48047,2.71484 0,2.73438 -2.48047,2.73438 -2.48047,0 -2.48047,-2.73438 0,-2.71484 2.48047,-2.71484 z"
         style="fill:#666666"
         id="path76530" />
      <path
         d="m 427.23828,216.98407 -0.80078,10.3125 h -3.02734 l -0.80079,-10.3125 z m 8.24219,0 -0.80078,10.3125 h -3.02735 l -0.80078,-10.3125 z"
         style="fill:#666666"
         id="path76532" />
      <path
         d="m 518.53711,245.53876 -0.72266,-2.96875 h -0.15625 q -1.5039,1.89453 -3.08593,2.63672 -1.58204,0.72265 -4.08204,0.72265 -3.18359,0 -5,-1.67968 -1.79687,-1.67969 -1.79687,-4.70703 0,-6.48438 9.96094,-6.79688 l 3.96484,-0.13672 v -1.34765 q 0,-4.60938 -4.76562,-4.60938 -2.8711,0 -6.40625,1.60156 l -1.23047,-2.67578 q 3.82812,-1.875 7.48047,-1.875 4.43359,0 6.40625,1.69922 1.99218,1.69922 1.99218,5.44922 v 14.6875 z m -0.95703,-10.48828 -3.16406,0.13672 q -3.82813,0.15625 -5.42969,1.21093 -1.60156,1.03516 -1.60156,3.1836 0,3.47656 3.90625,3.47656 2.87109,0 4.57031,-1.58203 1.71875,-1.60156 1.71875,-4.49219 z"
         style="fill:#1a1a1a"
         id="path76534" />
      <path
         d="m 535.45117,217.9411 -5.23437,-0.41015 v -2.38282 h 8.80859 v 27.59766 l 6.875,0.39063 v 2.40234 h -17.16797 v -2.40234 l 6.71875,-0.39063 z"
         style="fill:#1a1a1a"
         id="path76536" />
      <path
         d="m 567.07227,245.53876 -0.52735,-2.87109 h -0.19531 q -2.05078,3.26171 -6.52344,3.26171 -7.63672,0 -7.63672,-7.83203 v -14.0039 h 3.55469 v 13.80859 q 0,5.07813 4.60938,5.07813 3.14453,0 4.58984,-1.79688 1.44531,-1.81641 1.44531,-5.95703 v -11.13281 h 3.55469 v 21.44531 z"
         style="fill:#1a1a1a"
         id="path76538" />
      <path
         d="m 594.47461,235.4997 h -15.11719 q 0.15625,7.32422 6.71875,7.32422 3.8086,0 7.22656,-1.48438 v 3.125 q -3.24218,1.46484 -7.10937,1.46484 -4.78516,0 -7.65625,-2.91015 -2.87109,-2.92969 -2.87109,-8.04688 0,-5.19531 2.63671,-8.22265 2.65625,-3.04688 7.08985,-3.04688 4.14062,0 6.60156,2.61719 2.48047,2.61719 2.48047,6.97266 z m -15.03906,-2.89063 h 11.1914 q 0,-5.95703 -5.3125,-5.95703 -5.37109,0 -5.8789,5.95703 z"
         style="fill:#1a1a1a"
         id="path76540" />
      <path
         d="m 607.26758,216.98407 -0.80078,10.3125 h -3.02735 l -0.80078,-10.3125 z m 8.24219,0 -0.80079,10.3125 h -3.02734 l -0.80078,-10.3125 z"
         style="fill:#666666"
         id="path76542" />
      <path
         d="m 630.50977,239.38642 q 0,-4.04297 4.57031,-4.84375 v -0.23438 q -4.57031,-0.80078 -4.57031,-4.84375 v -6.48437 q 0,-1.58204 -1.11329,-2.32422 -1.09375,-0.74219 -3.88671,-0.76172 v -2.91016 q 8.57421,0.11719 8.57421,5.72266 v 6.5039 q 0,3.69141 6.60157,3.69141 v 3.02734 q -6.60157,0 -6.60157,3.69141 v 6.52344 q 0,5.60547 -8.57421,5.72265 v -2.92968 q 2.79296,-0.0195 3.88671,-0.76172 1.11329,-0.74219 1.11329,-2.32422 z"
         style="fill:#666666"
         id="path76544" />
    </g>
    <g
       id="g29121"
       transform="matrix(0.04390396,0,0,0.04171993,115.71914,49.975341)"
       style="fill:#00d700;fill-opacity:1">
      <path
         d="M 17.47,250.9 C 88.82,328.1 158,397.6 224.5,485.5 296.8,341.7 370.8,197.4 492.9,41.13 L 460,26.06 C 356.9,135.4 276.8,238.9 207.2,361.9 158.8,318.3 80.58,256.6 32.82,224.9 Z"
         fill="#fff"
         fill-opacity="1"
         id="path29119"
         style="fill:#00d700;fill-opacity:1" />
    </g>
    <g
       id="text20076"
       style="font-size:10.5833px;font-family:'BadaBoom BB';-inkscape-font-specification:'BadaBoom BB';stroke-width:0.264583" />
  </g>
</svg>
