<?xml version="1.0" encoding="UTF-8" standalone="no"?>
<svg
   xmlns:dc="http://purl.org/dc/elements/1.1/"
   xmlns:cc="http://creativecommons.org/ns#"
   xmlns:rdf="http://www.w3.org/1999/02/22-rdf-syntax-ns#"
   xmlns:svg="http://www.w3.org/2000/svg"
   xmlns="http://www.w3.org/2000/svg"
   id="svg8"
   version="1.1"
   viewBox="0 0 216.55571 70.32795"
   height="70.32795mm"
   width="216.55571mm">
  <defs
     id="defs2" />
  <metadata
     id="metadata5">
    <rdf:RDF>
      <cc:Work
         rdf:about="">
        <dc:format>image/svg+xml</dc:format>
        <dc:type
           rdf:resource="http://purl.org/dc/dcmitype/StillImage" />
        <dc:title></dc:title>
      </cc:Work>
    </rdf:RDF>
  </metadata>
  <g
     transform="translate(-1.2449418,-0.9213372)"
     id="layer1">
    <path
       id="path841"
       transform="matrix(0.26458333,0,0,0.26458333,6.5365801,0.92130885)"
       d="M 10.236328,30.236328 51.009766,71.302734 H 276.06836 V 122.63672 L 389.00195,235.56836 501.93359,122.63672 V 71.302734 H 727.17578 L 768.24219,30.236328 H 450.60156 v 82.132812 l -61.59961,61.59961 -61.60156,-61.59961 V 30.236328 Z m 61.039063,61.59961 v 93.478512 l 51.333989,50.25391 v -92.39844 l 92.13281,92.13281 v 0.26563 h 51.33398 V 91.835938 H 214.74219 V 184.46484 L 122.60938,92.332031 v -0.496093 h -0.4961 z m 440.833989,0 -2.27344,143.734372 h 157.6582 l 40.37109,-41.06836 H 561.16992 l 2.27344,-61.59961 h 103.74219 l 41.0664,-41.066402 z"
       style="fill:#336633;fill-opacity:1;stroke:none;stroke-width:1.66698015;stroke-miterlimit:4;stroke-dasharray:none;stroke-opacity:1" />
    <g
       id="flowRoot815"
       style="font-style:normal;font-weight:normal;font-size:240px;line-height:1.25;font-family:sans-serif;letter-spacing:0px;word-spacing:0px;fill:#336633;fill-opacity:1;stroke:none"
       transform="matrix(0.26458333,0,0,0.26458333,19.276786,-36.091163)"
       aria-label="nve" />
  </g>
</svg>
