<?xml version="1.0" encoding="UTF-8" standalone="no"?>
<!-- Created with Inkscape (http://www.inkscape.org/) -->

<svg
   width="216.55571mm"
   height="70.32795mm"
   viewBox="0 0 216.55571 70.32795"
   version="1.1"
   id="svg8"
   xmlns="http://www.w3.org/2000/svg"
   xmlns:svg="http://www.w3.org/2000/svg"
   xmlns:rdf="http://www.w3.org/1999/02/22-rdf-syntax-ns#"
   xmlns:cc="http://creativecommons.org/ns#"
   xmlns:dc="http://purl.org/dc/elements/1.1/">
  <defs
     id="defs2" />
  <metadata
     id="metadata5">
    <rdf:RDF>
      <cc:Work
         rdf:about="">
        <dc:format>image/svg+xml</dc:format>
        <dc:type
           rdf:resource="http://purl.org/dc/dcmitype/StillImage" />
      </cc:Work>
    </rdf:RDF>
  </metadata>
  <g
     id="layer1"
     transform="translate(-1.2449418,-0.9213372)">
    <path
       style="fill:#337d33;fill-opacity:1;stroke:none;stroke-width:1.66698015;stroke-miterlimit:4;stroke-dasharray:none;stroke-opacity:1"
       d="M 10.236328,30.236328 51.009766,71.302734 H 276.06836 V 122.63672 L 389.00195,235.56836 501.93359,122.63672 V 71.302734 H 727.17578 L 768.24219,30.236328 H 450.60156 v 82.132812 l -61.59961,61.59961 -61.60156,-61.59961 V 30.236328 Z M 71.275391,81.098643 V 185.31445 l 51.333989,50.25391 v -92.39844 l 92.13281,92.13281 v 0.26563 h 51.33398 V 81.098643 H 214.74219 V 173.5974 L 122.60938,81.594736 c -51.333989,-0.496093 0,0 -51.333989,-0.496093 z m 440.833989,0.248026 -2.27344,154.223601 h 135.34969 l 41.06456,-41.06836 H 561.17051 v -41.03147 h 84.01512 l 41.06456,-41.0664 H 561.17051 V 81.346709 Z"
       transform="matrix(0.26458333,0,0,0.26458333,6.5365801,0.92130885)"
       id="path841" />
    <g
       aria-label="nve"
       transform="matrix(0.26458333,0,0,0.26458333,19.276786,-36.091163)"
       style="font-style:normal;font-weight:normal;font-size:240px;line-height:1.25;font-family:sans-serif;letter-spacing:0px;word-spacing:0px;fill:#336633;fill-opacity:1;stroke:none"
       id="flowRoot815" />
  </g>
</svg>
