<?xml version="1.0" encoding="utf-8"?>
<!-- Generator: Adobe Illustrator 16.0.0, SVG Export Plug-In . SVG Version: 6.00 Build 0)  -->
<!DOCTYPE svg PUBLIC "-//W3C//DTD SVG 1.1//EN" "http://www.w3.org/Graphics/SVG/1.1/DTD/svg11.dtd">
<svg version="1.1" id="Layer_1" xmlns="http://www.w3.org/2000/svg" xmlns:xlink="http://www.w3.org/1999/xlink" x="0px" y="0px"
	 width="459px" height="459px" viewBox="0 0 459 459" enable-background="new 0 0 459 459" xml:space="preserve">
<g>
	<path fill="#12A5EA" d="M399,0H60C26.863,0,0,26.863,0,60v339c0,33.137,26.863,60,60,60h339c33.137,0,60-26.863,60-60V60
		C459,26.863,432.137,0,399,0z M432.113,228.804v1.392v24.915l-43.348,14.635c-3.944,15.646-10.134,30.397-18.206,43.893
		l20.323,41.016l-17.616,17.624l-0.993,0.985l-17.62,17.62l-41.012-20.324c-13.499,8.073-28.25,14.259-43.893,18.199l-14.639,43.355
		h-24.911h-1.395H203.89l-14.635-43.355c-15.643-3.94-30.39-10.126-43.896-18.199l-41.012,20.324l-17.624-17.62l-0.985-0.993
		l-17.62-17.616l20.323-41.016c-8.069-13.495-14.254-28.247-18.195-43.893L26.887,255.11v-24.915v-1.392V203.89l43.358-14.635
		c3.941-15.643,10.126-30.394,18.195-43.896l-20.323-41.012l17.62-17.62l0.992-0.989l17.617-17.617l41.012,20.32
		c13.507-8.073,28.254-14.262,43.904-18.203l14.627-43.351h24.915h1.395h24.911l14.639,43.351
		c15.643,3.941,30.394,10.13,43.893,18.203l41.012-20.32l17.624,17.617l0.989,0.993l17.616,17.616l-20.323,41.012
		c8.072,13.503,14.262,28.254,18.206,43.9l43.348,14.631V228.804z"/>
	<path fill="#12A5EA" d="M229.504,104.091c-69.259,0-125.405,56.154-125.405,125.409c0,69.259,56.146,125.406,125.405,125.406
		c69.255,0,125.409-56.147,125.409-125.406C354.913,160.245,298.759,104.091,229.504,104.091z M314.2,242.009
		c-12.833,7.624-25.878,14.876-38.852,22.256c-17.057,9.694-34.12,19.38-51.198,29.029c-9.961,5.62-19.825,11.433-29.979,16.663
		c-8.484,4.373-15.921,0.771-17.319-7.75V165.523c0.004-0.675,0.009-1.315,0.013-1.897c0.01-1.328,0.009-2.657,0.082-3.976
		c0.631-11.639,8.808-16.125,19.002-10.369c4.605,2.611,9.127,5.37,13.688,8.075c26.924,15.948,53.858,31.898,80.782,47.86
		c7.967,4.726,15.999,9.38,23.833,14.317C324.964,226.27,324.993,235.584,314.2,242.009z"/>
</g>
</svg>
